<?xml version="1.0" encoding="utf-8"?>
<svg width="1838px" height="920px" viewBox="0 0 1838 920" version="1.1" xmlns:xlink="http://www.w3.org/1999/xlink" xmlns="http://www.w3.org/2000/svg">
  <defs>
    <filter id="filter_1">
      <feColorMatrix in="SourceGraphic" type="matrix" values="0 0 0 0 1 0 0 0 0 1 0 0 0 0 1 0 0 0 1 0" />
    </filter>
    <path d="M0 0L1708 0L1708 790L0 790L0 0Z" id="path_1" />
    <clipPath id="mask_1">
      <use xlink:href="#path_1" />
    </clipPath>
  </defs>
  <g id="svg" transform="translate(65 65)">
    <path d="M0 0L1708 0L1708 790L0 790L0 0Z" id="Background" fill="none" fill-rule="evenodd" stroke="none" />
    <g clip-path="url(#mask_1)">
      <g id="Group" transform="translate(65 65)">
        <path d="M0 0L1578 0L1578 660L0 660L0 0L0 0Z" id="Background" fill="none" fill-rule="evenodd" stroke="none" />
        <g id="shadda-w-outline" transform="translate(85.69995 81.19678)">
          <g id="black-outline">
            <g id="Shaddalyfe">
              <g id="Shape">
                <path d="M1198.97 243.422C1194.65 246.422 1189.76 247.922 1184.28 247.922C1178.79 247.922 1174.71 246.703 1172.04 244.265C1169.36 241.828 1168.03 239.484 1168.03 237.234C1168.03 234.141 1168.68 231.704 1170 229.922C1172.06 231.516 1174.69 232.312 1177.88 232.312C1183.31 232.312 1187.2 229.172 1189.55 222.89L1189.55 179.578C1189.55 175.453 1188.66 172.453 1186.88 170.578C1184.25 167.766 1179.42 164.625 1172.39 161.156C1178.95 158.156 1183.13 155.766 1184.91 153.984C1188 150.891 1189.55 147.094 1189.55 142.594L1189.55 104.906L1169.11 104.906C1166.63 107.812 1164.49 111.656 1162.69 116.437L1158.33 128.672C1155.14 137.578 1153.52 143.672 1153.48 146.953C1153.43 150.235 1153.99 152.883 1155.17 154.898C1156.33 156.914 1158.98 159 1163.11 161.156C1152.98 163.969 1146.09 168.703 1142.44 175.359C1141.31 177.422 1140.33 179.578 1139.49 181.828L1116.14 245.25C1107.04 271.406 1098.61 289.125 1090.83 298.406C1083.7 306.938 1074.79 311.203 1064.11 311.203C1055.95 311.203 1048.27 308.578 1041.05 303.328C1032.79 297.422 1028.67 290.485 1028.67 282.515C1028.67 277.547 1029.98 273.773 1032.61 271.195C1035.23 268.617 1037.65 267.328 1039.85 267.328C1042.05 267.328 1043.58 267.352 1044.42 267.398C1045.26 267.446 1046.11 267.61 1046.96 267.89C1048.64 268.64 1050.24 270.328 1051.74 272.953C1049.76 276.703 1051.03 280.828 1055.53 285.328C1059.75 289.734 1063.71 291.937 1067.42 291.937C1071.12 291.937 1074.21 291.234 1076.7 289.828C1079.18 288.422 1081.4 286.266 1083.38 283.359C1087.69 276.985 1089.85 267.844 1089.85 255.937C1089.85 249.469 1088.11 242.344 1084.64 234.562C1083.7 231.938 1082.58 229.172 1081.27 226.265L1061.3 181.265C1059.14 176.485 1055.88 172.243 1051.53 168.539C1047.17 164.836 1042.27 162.375 1036.83 161.156C1043.29 157.875 1046.53 153.563 1046.53 148.219C1046.53 144.375 1044.98 138.703 1041.89 131.203L1033.6 111.234C1031.16 105.797 1029.14 102.375 1027.55 100.969C1024.73 98.7192 1021.48 97.5942 1017.78 97.5942C1017.26 97.5942 1016.77 97.6089 1016.3 97.6382L1016.3 142.453C1016.3 146.953 1017.28 150.188 1019.25 152.156C1022.15 155.156 1026.89 158.156 1033.46 161.156C1026.42 164.625 1022.02 167.25 1020.24 169.031C1017.61 171.937 1016.3 175.453 1016.3 179.578L1016.3 222.89C1018.54 229.172 1022.43 232.312 1027.97 232.312C1031.15 232.312 1033.78 231.516 1035.85 229.922C1037.15 231.704 1037.81 233.93 1037.81 236.601C1037.81 239.273 1036.47 241.828 1033.81 244.265C1031.13 246.703 1027.12 247.922 1021.78 247.922C1016.44 247.922 1011.47 246.422 1006.88 243.422C1003.03 246.422 998.461 247.922 993.168 247.922C987.868 247.922 983.015 246.422 978.608 243.422C974.295 246.422 969.398 247.922 963.918 247.922C960.058 247.922 956.895 247.32 954.428 246.114C951.995 247.32 948.898 247.922 945.138 247.922C939.798 247.922 934.831 246.422 930.238 243.422C926.205 246.422 922.618 247.922 919.478 247.922C916.338 247.922 913.618 247.618 911.318 247.008C909.025 246.399 906.891 245.438 904.918 244.125C900.511 241.219 897.795 237.094 896.768 231.75C888.235 243 875.438 248.625 858.378 248.625C837.565 248.625 821.954 242.391 811.547 229.922C807.047 224.578 803.953 218.625 802.265 212.062C801.328 208.125 799.687 205.102 797.344 202.992C795 200.883 792.094 198.985 788.625 197.297C795.375 194.203 800.203 188.391 803.109 179.859C806.203 170.859 811.359 164.344 818.578 160.312C826.358 156.094 834.935 153.867 844.308 153.633C853.688 153.399 860.628 153.094 865.128 152.719C869.628 152.344 873.611 151.734 877.078 150.89C883.545 149.39 888.608 146.625 892.268 142.594L892.268 121.5C892.268 112.219 890.368 105.422 886.568 101.109C882.775 96.7965 877.011 94.6402 869.278 94.6402C861.538 94.6402 855.818 96.0699 852.118 98.9292C848.411 101.789 846.558 105.61 846.558 110.39C846.558 113.956 847.451 116.629 849.238 118.411C851.111 120.285 853.968 121.174 857.808 121.078C856.308 128.391 852.371 132.047 845.998 132.047C844.125 132.047 842.298 131.719 840.518 131.062L840.518 131.484C840.518 133.922 841.641 135.469 843.888 136.125C841.548 139.688 837.611 141.422 832.078 141.328C826.545 141.234 822.232 138.281 819.14 132.469C817.734 132.844 816.117 133.031 814.289 133.031C812.461 133.031 810.445 132.422 808.242 131.203C806.039 129.985 804.281 128.297 802.969 126.14C807.656 123.328 810.516 118.969 811.547 113.062C812.672 105.844 818.439 98.5312 828.848 91.1252C841.408 82.2185 857.438 77.7652 876.938 77.7652C909.285 77.7652 929.018 87.7029 936.138 107.578C938.485 114.234 939.658 122.109 939.658 131.203L939.658 142.594C939.658 147.188 940.805 150.938 943.098 153.844C945.198 156.496 948.641 158.718 953.428 160.51C959.195 157.804 962.948 155.582 964.688 153.844C967.688 150.75 969.188 146.953 969.188 142.453L969.188 63C969.188 52.3125 964.828 46.9687 956.108 46.9687C952.921 46.9687 950.298 47.7656 948.238 49.3593C946.925 47.5781 946.268 45.7265 946.268 43.8046C946.268 41.8827 946.758 40.0312 947.738 38.25C948.725 36.4687 950.248 34.8281 952.308 33.3281C956.715 30.1406 962.295 28.5468 969.048 28.5468C975.795 28.5468 981.045 28.9687 984.798 29.8125C989.951 23.3437 995.765 20.1093 1002.24 20.1093C1011.61 20.1093 1016.3 25.1718 1016.3 35.2968L1016.3 82.8742C1018.28 82.2809 1020.55 81.9842 1023.12 81.9842C1028.41 81.9842 1033.4 83.6719 1038.1 87.0472C1041.94 83.6719 1046.62 81.9842 1052.16 81.9842C1057.69 81.9842 1062.56 83.5312 1066.78 86.6252C1071 83.5312 1075.73 81.9842 1080.99 81.9842C1086.23 81.9842 1090.38 83.2265 1093.43 85.7112C1096.47 88.1952 1098.04 90.6562 1098.14 93.0942C1098.23 96.7502 1097.62 99.2345 1096.31 100.547C1094.06 98.8592 1091.72 98.0152 1089.28 98.0152C1086.84 98.0152 1084.85 98.7185 1083.31 100.125C1081.76 101.531 1081.08 103.828 1081.27 107.015L1144.55 104.625C1143.51 99.8439 1140.09 97.4532 1134.28 97.4532C1130.62 97.4532 1127.16 98.3439 1123.88 100.125C1122.94 98.3439 1122.49 96.0469 1122.54 93.2342C1122.58 90.4215 1123.9 87.8435 1126.48 85.5002C1129.06 83.1562 1132.57 81.9842 1137.03 81.9842C1141.48 81.9842 1145.3 83.4842 1148.49 86.4842C1151.86 83.4842 1155.66 81.9842 1159.88 81.9842C1164.1 81.9842 1167.94 83.2969 1171.41 85.9222C1174.59 83.2969 1178.13 81.9842 1182.03 81.9842C1185 81.9842 1187.51 82.6412 1189.55 83.9552L1189.55 77.2032C1189.55 55.4531 1195.17 37.3593 1206.42 22.9218C1218.42 7.64059 1234.4 0 1254.38 0C1275.38 0 1289.91 6.70309 1297.97 20.1093C1300.5 24.2343 1302.09 28.3827 1302.75 32.5546C1303.41 36.7265 1304.46 39.4687 1305.92 40.7812C1307.37 42.0937 1309.27 43.2187 1311.61 44.1562C1308.7 48.7499 1304.53 51.0468 1299.1 51.0468C1297.97 51.0468 1296.66 50.8593 1295.16 50.4843C1291.5 56.0156 1287.04 58.7812 1281.8 58.7812C1272.14 58.7812 1267.03 57.2343 1266.47 54.1406C1269.93 53.7656 1271.67 51.75 1271.67 48.0937C1271.67 48.0937 1268.29 48.6562 1266.33 48.6562C1264.36 48.6562 1262.65 48.4453 1261.2 48.0234C1259.74 47.6015 1258.45 46.9218 1257.33 45.9843C1254.7 43.8281 1253.58 41.0625 1253.96 37.6875C1262.3 37.6875 1267.87 36.1875 1270.69 33.1875C1271.72 32.1562 1272.24 30.5859 1272.24 28.4765C1272.24 26.3672 1270.83 24.2344 1268.02 22.0781C1265.2 19.9218 1261.52 18.8437 1256.98 18.8437C1252.43 18.8437 1248.8 19.3359 1246.08 20.3203C1243.36 21.3046 1241.01 23.0156 1239.05 25.4531C1234.92 30.7031 1232.86 39.3281 1232.86 51.3281C1232.86 55.9218 1233.44 62.2031 1234.62 70.1718C1235.79 78.1407 1236.52 83.3439 1236.8 85.7812L1278.85 85.7812C1279.59 87.2812 1279.97 89.7889 1279.97 93.3042C1279.97 96.8202 1278.61 99.6329 1275.89 101.742C1273.17 103.852 1269.89 104.906 1266.05 104.906L1237.08 104.906L1237.08 142.594C1237.08 147.094 1238.06 150.329 1240.03 152.297C1242.93 155.203 1247.67 158.156 1254.24 161.156C1247.2 164.625 1242.8 167.25 1241.02 169.031C1238.39 171.937 1237.08 175.453 1237.08 179.578L1237.08 222.047C1239.89 228.891 1244.72 232.312 1251.56 232.312C1255.68 232.312 1258.78 231.516 1260.85 229.922C1262.15 231.704 1262.81 233.579 1262.81 235.547C1262.81 237.516 1262.41 239.18 1261.62 240.539C1260.82 241.899 1259.62 243.141 1258.03 244.265C1254.75 246.703 1250.25 247.922 1244.53 247.922C1238.81 247.922 1233.24 246.328 1227.8 243.14C1223.95 246.328 1219.29 247.922 1213.81 247.922C1208.32 247.922 1203.37 246.422 1198.97 243.422L1198.97 243.422L1198.97 243.422ZM159.539 247.922C165.023 247.922 169.921 246.422 174.234 243.422C178.641 246.422 183.469 247.922 188.719 247.922C193.969 247.922 198.516 246.516 202.359 243.703C206.016 246.516 210.141 247.922 214.734 247.922C219.328 247.922 222.984 246.75 225.703 244.406C228.422 242.062 229.781 239.273 229.781 236.039C229.781 232.805 229.078 230.578 227.672 229.359C225.515 231.047 223.359 231.89 221.203 231.89C217.078 231.89 214.125 229.594 212.344 225L212.344 134.015C212.719 130.265 213.515 126.797 214.734 123.609C218.578 113.297 225.375 108.14 235.125 108.14C238.406 108.14 241.453 108.609 244.265 109.547C253.172 112.359 257.625 122.906 257.625 141.187L257.625 225C255.844 229.594 252.89 231.89 248.765 231.89C246.609 231.89 244.453 231.047 242.297 229.359C240.89 230.578 240.187 232.219 240.187 234.281C240.187 238.687 241.546 242.062 244.265 244.406C246.984 246.75 250.617 247.922 255.164 247.922C259.711 247.922 263.812 246.516 267.469 243.703C271.406 246.516 276.023 247.922 281.32 247.922C286.617 247.922 291.375 246.422 295.594 243.422C300.187 246.422 305.203 247.922 310.64 247.922C316.078 247.922 320.039 246.633 322.523 244.054C325.008 241.476 326.25 238.828 326.25 236.109C326.25 233.391 325.734 231.328 324.703 229.922C322.64 231.516 320.015 232.312 316.828 232.312C310.828 232.312 306.937 229.406 305.156 223.594L305.156 179.578C305.156 175.453 306.469 171.937 309.094 169.031C310.781 167.157 315.187 164.485 322.312 161.015C315.75 158.015 311.016 155.062 308.109 152.156C306.14 150.188 305.156 147 305.156 142.594L305.156 133.172C305.156 124.734 304.125 117.187 302.062 110.531C295.593 89.6252 280.547 79.1722 256.922 79.1722C236.297 79.1722 221.437 87.6565 212.344 104.625L212.344 35.2968C212.344 25.1718 207.516 20.1093 197.859 20.1093C191.39 20.1093 185.578 23.3437 180.422 29.8125C176.672 28.9687 171.422 28.5468 164.672 28.5468C157.922 28.5468 152.297 30.1406 147.797 33.3281C145.828 34.8281 144.352 36.4688 143.367 38.25C142.382 40.0312 141.89 41.8827 141.89 43.8046C141.89 45.7266 142.546 47.5781 143.859 49.3593C145.922 47.7656 148.547 46.9687 151.734 46.9687C160.453 46.9687 164.812 52.3125 164.812 63L164.812 142.594C164.812 147.094 163.265 150.891 160.172 153.984C158.391 155.766 154.219 158.156 147.656 161.156C155.156 164.812 159.984 167.765 162.14 170.015C163.921 171.703 164.812 174.891 164.812 179.578L164.812 222.89C162.469 229.172 158.578 232.312 153.14 232.312C149.953 232.312 147.328 231.516 145.265 229.922C143.953 231.704 143.297 234.141 143.297 237.234C143.297 239.484 144.633 241.828 147.305 244.265C149.976 246.703 154.054 247.922 159.539 247.922L159.539 247.922L159.539 247.922ZM577.547 232.453C582.89 242.766 590.343 247.922 599.906 247.922C603.937 247.922 607.969 246.422 612 243.422C616.593 246.422 621.562 247.922 626.906 247.922C632.25 247.922 636.258 246.703 638.93 244.265C641.601 241.828 642.937 239.273 642.937 236.601C642.937 233.93 642.281 231.704 640.969 229.922C638.906 231.516 636.281 232.312 633.094 232.312C628.031 232.312 624.141 228.797 621.422 221.765L621.422 179.578C621.422 173.91 625.042 168.864 632.281 164.442C636.053 166.75 638.902 169.123 640.828 171.562C642.515 173.719 643.453 176.86 643.64 180.984C644.859 202.078 650.438 218.391 660.375 229.922C671.25 242.391 686.531 248.625 706.219 248.625C709.406 248.625 712.641 248.297 715.922 247.64C727.078 245.203 735.984 240.141 742.64 232.453C747.984 242.766 755.437 247.922 765 247.922C769.031 247.922 773.063 246.422 777.094 243.422C781.687 246.422 786.656 247.922 792 247.922C797.343 247.922 801.351 246.703 804.023 244.265C806.695 241.828 808.031 239.273 808.031 236.601C808.031 233.93 807.375 231.704 806.062 229.922C804 231.516 801.375 232.312 798.187 232.312C793.125 232.312 789.234 228.797 786.515 221.765L786.515 179.578C786.515 172.453 792.234 166.312 803.672 161.156C792.234 155.906 786.515 149.719 786.515 142.594L786.515 35.2968C786.515 25.1718 781.687 20.1093 772.031 20.1093C765.562 20.1093 759.75 23.3437 754.594 29.8125C750.844 28.9687 745.594 28.5468 738.844 28.5468C732.094 28.5468 726.516 30.1406 722.109 33.3281C720.046 34.8281 718.523 36.4688 717.539 38.25C716.554 40.0312 716.062 41.8827 716.062 43.8046C716.062 45.7266 716.718 47.5781 718.031 49.3593C720.094 47.7656 722.719 46.9687 725.906 46.9687C734.625 46.9687 738.984 52.3125 738.984 63L738.984 93.2342C737.203 90.8909 735.046 88.8286 732.515 87.0472C725.015 81.7972 716.156 79.1722 705.937 79.1722C687.281 79.1722 672.75 83.6722 662.344 92.6722C656.906 97.4536 652.57 103.571 649.336 111.023C646.101 118.477 644.25 127.453 643.781 137.953C643.406 146.357 639.638 153.019 632.477 157.939C625.107 153.429 621.422 148.314 621.422 142.594L621.422 35.2968C621.422 25.1718 616.594 20.1093 606.937 20.1093C600.468 20.1093 594.656 23.3437 589.5 29.8125C585.75 28.9687 580.5 28.5468 573.75 28.5468C567 28.5468 561.422 30.1406 557.015 33.3281C554.953 34.8281 553.43 36.4688 552.445 38.25C551.461 40.0312 550.969 41.8827 550.969 43.8046C550.969 45.7266 551.625 47.5781 552.937 49.3593C555 47.7656 557.625 46.9687 560.812 46.9687C569.531 46.9687 573.89 52.3125 573.89 63L573.89 93.2342C572.109 90.8909 569.953 88.8286 567.422 87.0472C559.922 81.7972 551.063 79.1722 540.844 79.1722C522.187 79.1722 507.656 83.6722 497.25 92.6722C491.813 97.4536 487.477 103.571 484.242 111.023C481.007 118.477 479.156 127.453 478.687 137.953C478.29 146.837 474.102 153.774 466.123 158.765C463.352 157.334 461.235 155.694 459.773 153.844C457.476 150.938 456.328 147.188 456.328 142.594L456.328 131.203C456.328 122.109 455.156 114.234 452.812 107.578C445.687 87.7029 425.953 77.7652 393.609 77.7652C374.109 77.7652 358.078 82.2186 345.515 91.1252C335.109 98.5312 329.344 105.844 328.219 113.062C327.188 118.969 324.328 123.328 319.64 126.14C320.953 128.297 322.711 129.985 324.914 131.203C327.117 132.422 329.133 133.031 330.961 133.031C332.789 133.031 334.406 132.844 335.812 132.469C338.906 138.281 343.219 141.234 348.75 141.328C354.281 141.422 358.219 139.688 360.562 136.125C358.312 135.469 357.187 133.922 357.187 131.484L357.187 131.062C358.968 131.719 360.797 132.047 362.672 132.047C369.047 132.047 372.984 128.391 374.484 121.078C370.641 121.174 367.782 120.285 365.908 118.411C364.125 116.629 363.234 113.956 363.234 110.39C363.234 105.61 365.086 101.789 368.789 98.9292C372.492 96.0699 378.211 94.6402 385.945 94.6402C393.68 94.6402 399.445 96.7966 403.242 101.109C407.039 105.422 408.937 112.219 408.937 121.5L408.937 142.594C405.281 146.625 400.219 149.39 393.75 150.89C390.281 151.734 386.297 152.344 381.797 152.719C377.297 153.094 370.359 153.399 360.984 153.633C351.609 153.867 343.031 156.094 335.25 160.312C328.031 164.344 322.875 170.859 319.781 179.859C316.875 188.391 312.047 194.203 305.297 197.297C308.766 198.985 311.672 200.883 314.015 202.992C316.359 205.102 318 208.125 318.937 212.062C320.625 218.625 323.719 224.578 328.219 229.922C338.625 242.391 354.234 248.625 375.047 248.625C392.109 248.625 404.906 243 413.437 231.75C414.468 237.094 417.187 241.219 421.594 244.125C423.563 245.438 425.695 246.399 427.992 247.008C430.289 247.618 433.007 247.922 436.148 247.922C439.289 247.922 442.875 246.422 446.906 243.422C451.5 246.422 456.469 247.922 461.812 247.922C467.156 247.922 471.164 246.703 473.836 244.265C476.508 241.828 477.844 239.273 477.844 236.601C477.844 233.93 477.188 231.704 475.875 229.922C473.812 231.516 471.187 232.312 468 232.312C462.937 232.312 459.047 228.797 456.328 221.765L456.328 179.578C456.328 175.36 457.594 171.61 460.125 168.328C461.22 166.93 463.202 165.413 466.071 163.777C470.402 166.293 473.623 168.888 475.734 171.562C477.421 173.719 478.359 176.86 478.547 180.984C479.766 202.078 485.344 218.391 495.281 229.922C506.156 242.391 521.438 248.625 541.125 248.625C544.312 248.625 547.547 248.297 550.828 247.64C561.984 245.203 570.89 240.141 577.547 232.453L577.547 232.453L577.547 232.453ZM12.656 250.875C19.406 250.875 26.531 247.125 34.031 239.625C45.8437 246.094 59.7657 249.328 75.797 249.328C98.5783 249.328 117.094 242.953 131.344 230.203C137.813 224.485 142.734 217.922 146.109 210.515C149.484 203.109 151.172 194.25 151.172 183.937C151.172 173.625 148.594 164.016 143.437 155.109C137.531 144.891 125.812 132.188 108.281 117C106.312 115.406 105.328 113.625 105.328 111.656C105.328 110.438 105.609 108.516 106.172 105.89L108 98.0152C104.813 100.078 101.531 101.672 98.156 102.797C96.562 103.266 95.109 103.641 93.797 103.922C92.4843 104.204 91.1717 104.344 89.859 104.344C88.5464 104.344 86.015 103.172 82.265 100.828L75.515 96.3282C66.9843 90.6095 60.75 85.0782 56.812 79.7342C54.562 76.6409 53.437 72.7972 53.437 68.2031C53.437 62.1094 55.687 56.9062 60.187 52.5937C64.9683 48 71.109 45.7031 78.609 45.7031C90.4217 45.7031 99.9843 49.1718 107.297 56.1093C110.766 59.4843 113.461 63.4452 115.383 67.9921C117.304 72.5388 118.265 76.9685 118.265 81.2812C118.265 85.5939 117.468 89.6252 115.875 93.3752C118.5 94.6879 121.734 95.3442 125.578 95.3442C128.015 95.3442 130.593 93.8909 133.312 90.9842C134.531 89.6715 135.492 88.1012 136.195 86.2732C136.898 84.4452 137.25 82.5235 137.25 80.5082C137.25 78.4922 136.875 76.2185 136.125 73.6872C140.062 69.7499 142.031 64.875 142.031 59.0625C142.031 53.1562 140.437 48.7968 137.25 45.9843C139.5 43.9218 140.625 40.8984 140.625 36.914C140.625 32.9297 139.359 29.3437 136.828 26.1562C135.703 24.7499 134.437 23.6484 133.031 22.8515C131.625 22.0546 130.336 21.6562 129.164 21.6562C127.992 21.6562 127.078 21.7968 126.422 22.0781C126.797 23.0156 126.984 24.1874 126.984 25.5937C126.984 27 126.375 28.5937 125.156 30.375C123.843 32.0625 122.32 33.0234 120.586 33.2578C118.851 33.4921 116.906 33.6093 114.75 33.6093C109.593 33.6093 105 32.8124 100.969 31.2187C91.4997 27.5625 81.0934 25.7344 69.75 25.7343C51.0933 25.7343 35.7183 30.8906 23.625 41.2031C17.8123 46.0781 13.242 52.0078 9.914 58.9921C6.586 65.9765 4.922 72.8672 4.922 79.6642C4.922 86.4609 5.43767 92.1092 6.46901 96.6092C9.46901 109.547 19.172 123.562 35.578 138.656L40.781 143.297C42.5623 144.797 43.453 146.016 43.453 146.953C43.453 151.078 52.5463 154.265 57.515 154.265C62.3903 154.265 68.906 157.125 77.062 162.844C87.656 170.156 95.4373 177.094 100.406 183.656C103.593 187.875 105.187 193.359 105.187 200.109C105.187 209.672 101.812 217.219 95.062 222.75C88.7807 227.906 81.14 230.484 72.14 230.484C58.734 230.484 47.7187 226.078 39.094 217.265C35.0627 213.235 31.9453 208.407 29.742 202.781C27.5387 197.157 26.437 190.547 26.437 182.953C26.437 175.359 28.1247 169.781 31.5 166.219C29.906 163.219 27.2107 161.719 23.414 161.719C19.6173 161.719 15.75 164.297 11.812 169.453C9.93733 171.797 8.461 174.539 7.383 177.679C6.30434 180.82 5.765 184.195 5.765 187.804C5.765 191.414 6.562 194.813 8.15601 198C2.71867 204 0 209.883 0 215.648C0 221.414 2.34367 226.407 7.03101 230.625C7.125 231.094 7.172 231.61 7.172 232.172L7.172 234.281C7.172 239.531 6.09366 243.469 3.937 246.094C5.437 249.282 8.34334 250.875 12.656 250.875L12.656 250.875L12.656 250.875ZM1398.66 196.734C1393.12 196.734 1389.33 198.703 1387.27 202.64C1387.73 204.516 1387.97 206.203 1387.97 207.703C1387.97 214.078 1385.11 219.234 1379.39 223.172C1373.29 227.297 1365.23 229.359 1355.21 229.359C1345.73 229.359 1337.9 226.313 1331.72 220.219C1325.16 213.844 1321.88 205.219 1321.88 194.344L1321.88 180.844L1401.19 168.187C1404.37 167.719 1406.72 167.344 1408.22 167.062C1414.22 166.031 1417.22 162.703 1417.22 157.078C1417.22 154.641 1416.37 152.344 1414.69 150.187C1413.37 150 1412.62 149.297 1412.44 148.078C1412.34 147.516 1412.32 146.906 1412.37 146.25C1412.41 145.594 1412.44 144.937 1412.44 144.281C1412.44 125.437 1405.69 109.547 1392.19 96.6093C1379.15 84.0466 1363.73 77.7653 1345.92 77.7653C1328.76 77.7653 1313.25 83.3903 1299.38 94.6403C1285.03 106.266 1276.69 120.328 1274.35 136.828C1273.97 139.078 1273.45 141.328 1272.8 143.578C1270.54 151.641 1265.34 157.5 1257.19 161.156C1263.65 164.344 1268.29 167.672 1271.11 171.14C1272.61 173.11 1273.69 176.391 1274.35 180.984C1277.06 201.61 1284.56 217.828 1296.85 229.64C1303.13 235.64 1310.65 240.305 1319.42 243.633C1328.18 246.961 1337.57 248.625 1347.61 248.625C1357.64 248.625 1367.3 247.078 1376.58 243.984C1381.08 242.484 1385.32 240.609 1389.31 238.359C1393.29 236.109 1396.82 233.531 1399.92 230.625C1403.01 227.719 1405.45 224.484 1407.24 220.922C1409.02 217.36 1409.91 213.82 1409.91 210.304C1409.91 206.789 1409.06 203.813 1407.38 201.375C1405.31 198.281 1402.4 196.734 1398.66 196.734L1398.66 196.734L1398.66 196.734ZM1362.66 117.844L1362.66 157.219L1321.88 163.828L1321.88 131.344C1321.88 119.25 1324.03 110.344 1328.35 104.625C1330.41 101.906 1332.84 99.9141 1335.66 98.6481C1338.47 97.3828 1341.99 96.7501 1346.21 96.7501C1350.42 96.7501 1354.68 99.2345 1359 104.203C1361.44 107.109 1362.66 111.656 1362.66 117.844L1362.66 117.844L1362.66 117.844ZM526.078 132.75C526.078 110.719 533.578 99.7032 548.578 99.7032C551.859 99.7032 555.047 100.266 558.14 101.39C568.64 105.047 573.89 115.5 573.89 132.75L573.89 204.75C573.89 211.125 571.875 216.609 567.844 221.203C565.969 223.266 563.742 224.93 561.164 226.195C558.586 227.461 555.727 228.094 552.586 228.094C549.445 228.094 546.281 227.485 543.094 226.265C531.75 222.141 526.078 211.5 526.078 194.344L526.078 132.75L526.078 132.75L526.078 132.75ZM713.672 99.7032C698.672 99.7032 691.172 110.719 691.172 132.75L691.172 194.344C691.172 211.5 696.844 222.141 708.187 226.265C711.375 227.485 714.539 228.094 717.68 228.094C720.82 228.094 723.679 227.461 726.258 226.195C728.836 224.93 731.062 223.266 732.937 221.203C736.968 216.609 738.984 211.125 738.984 204.75L738.984 132.75C738.984 115.5 733.734 105.047 723.234 101.39C720.141 100.266 716.953 99.7032 713.672 99.7032L713.672 99.7032L713.672 99.7032ZM370.406 197.859C370.406 201.796 370.828 205.64 371.672 209.39C372.515 213.14 373.781 216.421 375.469 219.234C379.219 225.141 384.516 228.094 391.359 228.094C396.516 228.094 400.781 225.984 404.156 221.765C407.343 217.64 408.937 212.344 408.937 205.875L408.937 160.031C402.937 163.5 395.25 165.89 385.875 167.203C375.562 168.797 370.406 179.016 370.406 197.859L370.406 197.859L370.406 197.859ZM854.998 209.39C854.158 205.64 853.738 201.796 853.738 197.859C853.738 179.016 858.895 168.797 869.208 167.203C878.581 165.89 886.268 163.5 892.268 160.031L892.268 205.875C892.268 212.344 890.675 217.64 887.488 221.765C884.108 225.984 879.841 228.094 874.688 228.094C867.841 228.094 862.545 225.141 858.798 219.234C857.111 216.421 855.845 213.14 854.998 209.39L854.998 209.39L854.998 209.39ZM949.638 229.922C950.991 230.967 952.585 231.669 954.418 232.029C956.258 231.669 957.855 230.967 959.208 229.922C959.675 230.556 960.058 231.247 960.358 231.994C964.331 231.052 967.275 228.018 969.188 222.89L969.188 179.578C969.188 175.453 968.345 172.453 966.658 170.578C964.098 167.932 959.628 164.994 953.248 161.766C948.248 164.185 944.985 166.372 943.458 168.328C940.925 171.61 939.658 175.36 939.658 179.578L939.658 221.765C941.851 227.449 944.815 230.835 948.548 231.925C948.841 231.185 949.205 230.517 949.638 229.922L949.638 229.922L949.638 229.922Z" id="path_1" fill="none" fill-rule="evenodd" stroke="#000000" stroke-width="130" />
                <path d="M1198.97 243.422C1194.65 246.422 1189.76 247.922 1184.28 247.922C1178.79 247.922 1174.71 246.703 1172.04 244.265C1169.36 241.828 1168.03 239.484 1168.03 237.234C1168.03 234.141 1168.68 231.704 1170 229.922C1172.06 231.516 1174.69 232.312 1177.88 232.312C1183.31 232.312 1187.2 229.172 1189.55 222.89L1189.55 179.578C1189.55 175.453 1188.66 172.453 1186.88 170.578C1184.25 167.766 1179.42 164.625 1172.39 161.156C1178.95 158.156 1183.13 155.766 1184.91 153.984C1188 150.891 1189.55 147.094 1189.55 142.594L1189.55 104.906L1169.11 104.906C1166.63 107.812 1164.49 111.656 1162.69 116.437L1158.33 128.672C1155.14 137.578 1153.52 143.672 1153.48 146.953C1153.43 150.235 1153.99 152.883 1155.17 154.898C1156.33 156.914 1158.98 159 1163.11 161.156C1152.98 163.969 1146.09 168.703 1142.44 175.359C1141.31 177.422 1140.33 179.578 1139.49 181.828L1116.14 245.25C1107.04 271.406 1098.61 289.125 1090.83 298.406C1083.7 306.938 1074.79 311.203 1064.11 311.203C1055.95 311.203 1048.27 308.578 1041.05 303.328C1032.79 297.422 1028.67 290.485 1028.67 282.515C1028.67 277.547 1029.98 273.773 1032.61 271.195C1035.23 268.617 1037.65 267.328 1039.85 267.328C1042.05 267.328 1043.58 267.352 1044.42 267.398C1045.26 267.446 1046.11 267.61 1046.96 267.89C1048.64 268.64 1050.24 270.328 1051.74 272.953C1049.76 276.703 1051.03 280.828 1055.53 285.328C1059.75 289.734 1063.71 291.937 1067.42 291.937C1071.12 291.937 1074.21 291.234 1076.7 289.828C1079.18 288.422 1081.4 286.266 1083.38 283.359C1087.69 276.985 1089.85 267.844 1089.85 255.937C1089.85 249.469 1088.11 242.344 1084.64 234.562C1083.7 231.938 1082.58 229.172 1081.27 226.265L1061.3 181.265C1059.14 176.485 1055.88 172.243 1051.53 168.539C1047.17 164.836 1042.27 162.375 1036.83 161.156C1043.29 157.875 1046.53 153.563 1046.53 148.219C1046.53 144.375 1044.98 138.703 1041.89 131.203L1033.6 111.234C1031.16 105.797 1029.14 102.375 1027.55 100.969C1024.73 98.7192 1021.48 97.5942 1017.78 97.5942C1017.26 97.5942 1016.77 97.6089 1016.3 97.6382L1016.3 142.453C1016.3 146.953 1017.28 150.188 1019.25 152.156C1022.15 155.156 1026.89 158.156 1033.46 161.156C1026.42 164.625 1022.02 167.25 1020.24 169.031C1017.61 171.937 1016.3 175.453 1016.3 179.578L1016.3 222.89C1018.54 229.172 1022.43 232.312 1027.97 232.312C1031.15 232.312 1033.78 231.516 1035.85 229.922C1037.15 231.704 1037.81 233.93 1037.81 236.601C1037.81 239.273 1036.47 241.828 1033.81 244.265C1031.13 246.703 1027.12 247.922 1021.78 247.922C1016.44 247.922 1011.47 246.422 1006.88 243.422C1003.03 246.422 998.461 247.922 993.168 247.922C987.868 247.922 983.015 246.422 978.608 243.422C974.295 246.422 969.398 247.922 963.918 247.922C960.058 247.922 956.895 247.32 954.428 246.114C951.995 247.32 948.898 247.922 945.138 247.922C939.798 247.922 934.831 246.422 930.238 243.422C926.205 246.422 922.618 247.922 919.478 247.922C916.338 247.922 913.618 247.618 911.318 247.008C909.025 246.399 906.891 245.438 904.918 244.125C900.511 241.219 897.795 237.094 896.768 231.75C888.235 243 875.438 248.625 858.378 248.625C837.565 248.625 821.954 242.391 811.547 229.922C807.047 224.578 803.953 218.625 802.265 212.062C801.328 208.125 799.687 205.102 797.344 202.992C795 200.883 792.094 198.985 788.625 197.297C795.375 194.203 800.203 188.391 803.109 179.859C806.203 170.859 811.359 164.344 818.578 160.312C826.358 156.094 834.935 153.867 844.308 153.633C853.688 153.399 860.628 153.094 865.128 152.719C869.628 152.344 873.611 151.734 877.078 150.89C883.545 149.39 888.608 146.625 892.268 142.594L892.268 121.5C892.268 112.219 890.368 105.422 886.568 101.109C882.775 96.7965 877.011 94.6402 869.278 94.6402C861.538 94.6402 855.818 96.0699 852.118 98.9292C848.411 101.789 846.558 105.61 846.558 110.39C846.558 113.956 847.451 116.629 849.238 118.411C851.111 120.285 853.968 121.174 857.808 121.078C856.308 128.391 852.371 132.047 845.998 132.047C844.125 132.047 842.298 131.719 840.518 131.062L840.518 131.484C840.518 133.922 841.641 135.469 843.888 136.125C841.548 139.688 837.611 141.422 832.078 141.328C826.545 141.234 822.232 138.281 819.14 132.469C817.734 132.844 816.117 133.031 814.289 133.031C812.461 133.031 810.445 132.422 808.242 131.203C806.039 129.985 804.281 128.297 802.969 126.14C807.656 123.328 810.516 118.969 811.547 113.062C812.672 105.844 818.439 98.5312 828.848 91.1252C841.408 82.2185 857.438 77.7652 876.938 77.7652C909.285 77.7652 929.018 87.7029 936.138 107.578C938.485 114.234 939.658 122.109 939.658 131.203L939.658 142.594C939.658 147.188 940.805 150.938 943.098 153.844C945.198 156.496 948.641 158.718 953.428 160.51C959.195 157.804 962.948 155.582 964.688 153.844C967.688 150.75 969.188 146.953 969.188 142.453L969.188 63C969.188 52.3125 964.828 46.9687 956.108 46.9687C952.921 46.9687 950.298 47.7656 948.238 49.3593C946.925 47.5781 946.268 45.7265 946.268 43.8046C946.268 41.8827 946.758 40.0312 947.738 38.25C948.725 36.4687 950.248 34.8281 952.308 33.3281C956.715 30.1406 962.295 28.5468 969.048 28.5468C975.795 28.5468 981.045 28.9687 984.798 29.8125C989.951 23.3437 995.765 20.1093 1002.24 20.1093C1011.61 20.1093 1016.3 25.1718 1016.3 35.2968L1016.3 82.8742C1018.28 82.2809 1020.55 81.9842 1023.12 81.9842C1028.41 81.9842 1033.4 83.6719 1038.1 87.0472C1041.94 83.6719 1046.62 81.9842 1052.16 81.9842C1057.69 81.9842 1062.56 83.5312 1066.78 86.6252C1071 83.5312 1075.73 81.9842 1080.99 81.9842C1086.23 81.9842 1090.38 83.2265 1093.43 85.7112C1096.47 88.1952 1098.04 90.6562 1098.14 93.0942C1098.23 96.7502 1097.62 99.2345 1096.31 100.547C1094.06 98.8592 1091.72 98.0152 1089.28 98.0152C1086.84 98.0152 1084.85 98.7185 1083.31 100.125C1081.76 101.531 1081.08 103.828 1081.27 107.015L1144.55 104.625C1143.51 99.8439 1140.09 97.4532 1134.28 97.4532C1130.62 97.4532 1127.16 98.3439 1123.88 100.125C1122.94 98.3439 1122.49 96.0469 1122.54 93.2342C1122.58 90.4215 1123.9 87.8435 1126.48 85.5002C1129.06 83.1562 1132.57 81.9842 1137.03 81.9842C1141.48 81.9842 1145.3 83.4842 1148.49 86.4842C1151.86 83.4842 1155.66 81.9842 1159.88 81.9842C1164.1 81.9842 1167.94 83.2969 1171.41 85.9222C1174.59 83.2969 1178.13 81.9842 1182.03 81.9842C1185 81.9842 1187.51 82.6412 1189.55 83.9552L1189.55 77.2032C1189.55 55.4531 1195.17 37.3593 1206.42 22.9218C1218.42 7.64059 1234.4 0 1254.38 0C1275.38 0 1289.91 6.70309 1297.97 20.1093C1300.5 24.2343 1302.09 28.3827 1302.75 32.5546C1303.41 36.7265 1304.46 39.4687 1305.92 40.7812C1307.37 42.0937 1309.27 43.2187 1311.61 44.1562C1308.7 48.7499 1304.53 51.0468 1299.1 51.0468C1297.97 51.0468 1296.66 50.8593 1295.16 50.4843C1291.5 56.0156 1287.04 58.7812 1281.8 58.7812C1272.14 58.7812 1267.03 57.2343 1266.47 54.1406C1269.93 53.7656 1271.67 51.75 1271.67 48.0937C1271.67 48.0937 1268.29 48.6562 1266.33 48.6562C1264.36 48.6562 1262.65 48.4453 1261.2 48.0234C1259.74 47.6015 1258.45 46.9218 1257.33 45.9843C1254.7 43.8281 1253.58 41.0625 1253.96 37.6875C1262.3 37.6875 1267.87 36.1875 1270.69 33.1875C1271.72 32.1562 1272.24 30.5859 1272.24 28.4765C1272.24 26.3672 1270.83 24.2344 1268.02 22.0781C1265.2 19.9218 1261.52 18.8437 1256.98 18.8437C1252.43 18.8437 1248.8 19.3359 1246.08 20.3203C1243.36 21.3046 1241.01 23.0156 1239.05 25.4531C1234.92 30.7031 1232.86 39.3281 1232.86 51.3281C1232.86 55.9218 1233.44 62.2031 1234.62 70.1718C1235.79 78.1407 1236.52 83.3439 1236.8 85.7812L1278.85 85.7812C1279.59 87.2812 1279.97 89.7889 1279.97 93.3042C1279.97 96.8202 1278.61 99.6329 1275.89 101.742C1273.17 103.852 1269.89 104.906 1266.05 104.906L1237.08 104.906L1237.08 142.594C1237.08 147.094 1238.06 150.329 1240.03 152.297C1242.93 155.203 1247.67 158.156 1254.24 161.156C1247.2 164.625 1242.8 167.25 1241.02 169.031C1238.39 171.937 1237.08 175.453 1237.08 179.578L1237.08 222.047C1239.89 228.891 1244.72 232.312 1251.56 232.312C1255.68 232.312 1258.78 231.516 1260.85 229.922C1262.15 231.704 1262.81 233.579 1262.81 235.547C1262.81 237.516 1262.41 239.18 1261.62 240.539C1260.82 241.899 1259.62 243.141 1258.03 244.265C1254.75 246.703 1250.25 247.922 1244.53 247.922C1238.81 247.922 1233.24 246.328 1227.8 243.14C1223.95 246.328 1219.29 247.922 1213.81 247.922C1208.32 247.922 1203.37 246.422 1198.97 243.422L1198.97 243.422L1198.97 243.422ZM159.539 247.922C165.023 247.922 169.921 246.422 174.234 243.422C178.641 246.422 183.469 247.922 188.719 247.922C193.969 247.922 198.516 246.516 202.359 243.703C206.016 246.516 210.141 247.922 214.734 247.922C219.328 247.922 222.984 246.75 225.703 244.406C228.422 242.062 229.781 239.273 229.781 236.039C229.781 232.805 229.078 230.578 227.672 229.359C225.515 231.047 223.359 231.89 221.203 231.89C217.078 231.89 214.125 229.594 212.344 225L212.344 134.015C212.719 130.265 213.515 126.797 214.734 123.609C218.578 113.297 225.375 108.14 235.125 108.14C238.406 108.14 241.453 108.609 244.265 109.547C253.172 112.359 257.625 122.906 257.625 141.187L257.625 225C255.844 229.594 252.89 231.89 248.765 231.89C246.609 231.89 244.453 231.047 242.297 229.359C240.89 230.578 240.187 232.219 240.187 234.281C240.187 238.687 241.546 242.062 244.265 244.406C246.984 246.75 250.617 247.922 255.164 247.922C259.711 247.922 263.812 246.516 267.469 243.703C271.406 246.516 276.023 247.922 281.32 247.922C286.617 247.922 291.375 246.422 295.594 243.422C300.187 246.422 305.203 247.922 310.64 247.922C316.078 247.922 320.039 246.633 322.523 244.054C325.008 241.476 326.25 238.828 326.25 236.109C326.25 233.391 325.734 231.328 324.703 229.922C322.64 231.516 320.015 232.312 316.828 232.312C310.828 232.312 306.937 229.406 305.156 223.594L305.156 179.578C305.156 175.453 306.469 171.937 309.094 169.031C310.781 167.157 315.187 164.485 322.312 161.015C315.75 158.015 311.016 155.062 308.109 152.156C306.14 150.188 305.156 147 305.156 142.594L305.156 133.172C305.156 124.734 304.125 117.187 302.062 110.531C295.593 89.6252 280.547 79.1722 256.922 79.1722C236.297 79.1722 221.437 87.6565 212.344 104.625L212.344 35.2968C212.344 25.1718 207.516 20.1093 197.859 20.1093C191.39 20.1093 185.578 23.3437 180.422 29.8125C176.672 28.9687 171.422 28.5468 164.672 28.5468C157.922 28.5468 152.297 30.1406 147.797 33.3281C145.828 34.8281 144.352 36.4688 143.367 38.25C142.382 40.0312 141.89 41.8827 141.89 43.8046C141.89 45.7266 142.546 47.5781 143.859 49.3593C145.922 47.7656 148.547 46.9687 151.734 46.9687C160.453 46.9687 164.812 52.3125 164.812 63L164.812 142.594C164.812 147.094 163.265 150.891 160.172 153.984C158.391 155.766 154.219 158.156 147.656 161.156C155.156 164.812 159.984 167.765 162.14 170.015C163.921 171.703 164.812 174.891 164.812 179.578L164.812 222.89C162.469 229.172 158.578 232.312 153.14 232.312C149.953 232.312 147.328 231.516 145.265 229.922C143.953 231.704 143.297 234.141 143.297 237.234C143.297 239.484 144.633 241.828 147.305 244.265C149.976 246.703 154.054 247.922 159.539 247.922L159.539 247.922L159.539 247.922ZM577.547 232.453C582.89 242.766 590.343 247.922 599.906 247.922C603.937 247.922 607.969 246.422 612 243.422C616.593 246.422 621.562 247.922 626.906 247.922C632.25 247.922 636.258 246.703 638.93 244.265C641.601 241.828 642.937 239.273 642.937 236.601C642.937 233.93 642.281 231.704 640.969 229.922C638.906 231.516 636.281 232.312 633.094 232.312C628.031 232.312 624.141 228.797 621.422 221.765L621.422 179.578C621.422 173.91 625.042 168.864 632.281 164.442C636.053 166.75 638.902 169.123 640.828 171.562C642.515 173.719 643.453 176.86 643.64 180.984C644.859 202.078 650.438 218.391 660.375 229.922C671.25 242.391 686.531 248.625 706.219 248.625C709.406 248.625 712.641 248.297 715.922 247.64C727.078 245.203 735.984 240.141 742.64 232.453C747.984 242.766 755.437 247.922 765 247.922C769.031 247.922 773.063 246.422 777.094 243.422C781.687 246.422 786.656 247.922 792 247.922C797.343 247.922 801.351 246.703 804.023 244.265C806.695 241.828 808.031 239.273 808.031 236.601C808.031 233.93 807.375 231.704 806.062 229.922C804 231.516 801.375 232.312 798.187 232.312C793.125 232.312 789.234 228.797 786.515 221.765L786.515 179.578C786.515 172.453 792.234 166.312 803.672 161.156C792.234 155.906 786.515 149.719 786.515 142.594L786.515 35.2968C786.515 25.1718 781.687 20.1093 772.031 20.1093C765.562 20.1093 759.75 23.3437 754.594 29.8125C750.844 28.9687 745.594 28.5468 738.844 28.5468C732.094 28.5468 726.516 30.1406 722.109 33.3281C720.046 34.8281 718.523 36.4688 717.539 38.25C716.554 40.0312 716.062 41.8827 716.062 43.8046C716.062 45.7266 716.718 47.5781 718.031 49.3593C720.094 47.7656 722.719 46.9687 725.906 46.9687C734.625 46.9687 738.984 52.3125 738.984 63L738.984 93.2342C737.203 90.8909 735.046 88.8286 732.515 87.0472C725.015 81.7972 716.156 79.1722 705.937 79.1722C687.281 79.1722 672.75 83.6722 662.344 92.6722C656.906 97.4536 652.57 103.571 649.336 111.023C646.101 118.477 644.25 127.453 643.781 137.953C643.406 146.357 639.638 153.019 632.477 157.939C625.107 153.429 621.422 148.314 621.422 142.594L621.422 35.2968C621.422 25.1718 616.594 20.1093 606.937 20.1093C600.468 20.1093 594.656 23.3437 589.5 29.8125C585.75 28.9687 580.5 28.5468 573.75 28.5468C567 28.5468 561.422 30.1406 557.015 33.3281C554.953 34.8281 553.43 36.4688 552.445 38.25C551.461 40.0312 550.969 41.8827 550.969 43.8046C550.969 45.7266 551.625 47.5781 552.937 49.3593C555 47.7656 557.625 46.9687 560.812 46.9687C569.531 46.9687 573.89 52.3125 573.89 63L573.89 93.2342C572.109 90.8909 569.953 88.8286 567.422 87.0472C559.922 81.7972 551.063 79.1722 540.844 79.1722C522.187 79.1722 507.656 83.6722 497.25 92.6722C491.813 97.4536 487.477 103.571 484.242 111.023C481.007 118.477 479.156 127.453 478.687 137.953C478.29 146.837 474.102 153.774 466.123 158.765C463.352 157.334 461.235 155.694 459.773 153.844C457.476 150.938 456.328 147.188 456.328 142.594L456.328 131.203C456.328 122.109 455.156 114.234 452.812 107.578C445.687 87.7029 425.953 77.7652 393.609 77.7652C374.109 77.7652 358.078 82.2186 345.515 91.1252C335.109 98.5312 329.344 105.844 328.219 113.062C327.188 118.969 324.328 123.328 319.64 126.14C320.953 128.297 322.711 129.985 324.914 131.203C327.117 132.422 329.133 133.031 330.961 133.031C332.789 133.031 334.406 132.844 335.812 132.469C338.906 138.281 343.219 141.234 348.75 141.328C354.281 141.422 358.219 139.688 360.562 136.125C358.312 135.469 357.187 133.922 357.187 131.484L357.187 131.062C358.968 131.719 360.797 132.047 362.672 132.047C369.047 132.047 372.984 128.391 374.484 121.078C370.641 121.174 367.782 120.285 365.908 118.411C364.125 116.629 363.234 113.956 363.234 110.39C363.234 105.61 365.086 101.789 368.789 98.9292C372.492 96.0699 378.211 94.6402 385.945 94.6402C393.68 94.6402 399.445 96.7966 403.242 101.109C407.039 105.422 408.937 112.219 408.937 121.5L408.937 142.594C405.281 146.625 400.219 149.39 393.75 150.89C390.281 151.734 386.297 152.344 381.797 152.719C377.297 153.094 370.359 153.399 360.984 153.633C351.609 153.867 343.031 156.094 335.25 160.312C328.031 164.344 322.875 170.859 319.781 179.859C316.875 188.391 312.047 194.203 305.297 197.297C308.766 198.985 311.672 200.883 314.015 202.992C316.359 205.102 318 208.125 318.937 212.062C320.625 218.625 323.719 224.578 328.219 229.922C338.625 242.391 354.234 248.625 375.047 248.625C392.109 248.625 404.906 243 413.437 231.75C414.468 237.094 417.187 241.219 421.594 244.125C423.563 245.438 425.695 246.399 427.992 247.008C430.289 247.618 433.007 247.922 436.148 247.922C439.289 247.922 442.875 246.422 446.906 243.422C451.5 246.422 456.469 247.922 461.812 247.922C467.156 247.922 471.164 246.703 473.836 244.265C476.508 241.828 477.844 239.273 477.844 236.601C477.844 233.93 477.188 231.704 475.875 229.922C473.812 231.516 471.187 232.312 468 232.312C462.937 232.312 459.047 228.797 456.328 221.765L456.328 179.578C456.328 175.36 457.594 171.61 460.125 168.328C461.22 166.93 463.202 165.413 466.071 163.777C470.402 166.293 473.623 168.888 475.734 171.562C477.421 173.719 478.359 176.86 478.547 180.984C479.766 202.078 485.344 218.391 495.281 229.922C506.156 242.391 521.438 248.625 541.125 248.625C544.312 248.625 547.547 248.297 550.828 247.64C561.984 245.203 570.89 240.141 577.547 232.453L577.547 232.453L577.547 232.453ZM12.656 250.875C19.406 250.875 26.531 247.125 34.031 239.625C45.8437 246.094 59.7657 249.328 75.797 249.328C98.5783 249.328 117.094 242.953 131.344 230.203C137.813 224.485 142.734 217.922 146.109 210.515C149.484 203.109 151.172 194.25 151.172 183.937C151.172 173.625 148.594 164.016 143.437 155.109C137.531 144.891 125.812 132.188 108.281 117C106.312 115.406 105.328 113.625 105.328 111.656C105.328 110.438 105.609 108.516 106.172 105.89L108 98.0152C104.813 100.078 101.531 101.672 98.156 102.797C96.562 103.266 95.109 103.641 93.797 103.922C92.4843 104.204 91.1717 104.344 89.859 104.344C88.5464 104.344 86.015 103.172 82.265 100.828L75.515 96.3282C66.9843 90.6095 60.75 85.0782 56.812 79.7342C54.562 76.6409 53.437 72.7972 53.437 68.2031C53.437 62.1094 55.687 56.9062 60.187 52.5937C64.9683 48 71.109 45.7031 78.609 45.7031C90.4217 45.7031 99.9843 49.1718 107.297 56.1093C110.766 59.4843 113.461 63.4452 115.383 67.9921C117.304 72.5388 118.265 76.9685 118.265 81.2812C118.265 85.5939 117.468 89.6252 115.875 93.3752C118.5 94.6879 121.734 95.3442 125.578 95.3442C128.015 95.3442 130.593 93.8909 133.312 90.9842C134.531 89.6715 135.492 88.1012 136.195 86.2732C136.898 84.4452 137.25 82.5235 137.25 80.5082C137.25 78.4922 136.875 76.2185 136.125 73.6872C140.062 69.7499 142.031 64.875 142.031 59.0625C142.031 53.1562 140.437 48.7968 137.25 45.9843C139.5 43.9218 140.625 40.8984 140.625 36.914C140.625 32.9297 139.359 29.3437 136.828 26.1562C135.703 24.7499 134.437 23.6484 133.031 22.8515C131.625 22.0546 130.336 21.6562 129.164 21.6562C127.992 21.6562 127.078 21.7968 126.422 22.0781C126.797 23.0156 126.984 24.1874 126.984 25.5937C126.984 27 126.375 28.5937 125.156 30.375C123.843 32.0625 122.32 33.0234 120.586 33.2578C118.851 33.4921 116.906 33.6093 114.75 33.6093C109.593 33.6093 105 32.8124 100.969 31.2187C91.4997 27.5625 81.0934 25.7344 69.75 25.7343C51.0933 25.7343 35.7183 30.8906 23.625 41.2031C17.8123 46.0781 13.242 52.0078 9.914 58.9921C6.586 65.9765 4.922 72.8672 4.922 79.6642C4.922 86.4609 5.43767 92.1092 6.46901 96.6092C9.46901 109.547 19.172 123.562 35.578 138.656L40.781 143.297C42.5623 144.797 43.453 146.016 43.453 146.953C43.453 151.078 52.5463 154.265 57.515 154.265C62.3903 154.265 68.906 157.125 77.062 162.844C87.656 170.156 95.4373 177.094 100.406 183.656C103.593 187.875 105.187 193.359 105.187 200.109C105.187 209.672 101.812 217.219 95.062 222.75C88.7807 227.906 81.14 230.484 72.14 230.484C58.734 230.484 47.7187 226.078 39.094 217.265C35.0627 213.235 31.9453 208.407 29.742 202.781C27.5387 197.157 26.437 190.547 26.437 182.953C26.437 175.359 28.1247 169.781 31.5 166.219C29.906 163.219 27.2107 161.719 23.414 161.719C19.6173 161.719 15.75 164.297 11.812 169.453C9.93733 171.797 8.461 174.539 7.383 177.679C6.30434 180.82 5.765 184.195 5.765 187.804C5.765 191.414 6.562 194.813 8.15601 198C2.71867 204 0 209.883 0 215.648C0 221.414 2.34367 226.407 7.03101 230.625C7.125 231.094 7.172 231.61 7.172 232.172L7.172 234.281C7.172 239.531 6.09366 243.469 3.937 246.094C5.437 249.282 8.34334 250.875 12.656 250.875L12.656 250.875L12.656 250.875ZM1398.66 196.734C1393.12 196.734 1389.33 198.703 1387.27 202.64C1387.73 204.516 1387.97 206.203 1387.97 207.703C1387.97 214.078 1385.11 219.234 1379.39 223.172C1373.29 227.297 1365.23 229.359 1355.21 229.359C1345.73 229.359 1337.9 226.313 1331.72 220.219C1325.16 213.844 1321.88 205.219 1321.88 194.344L1321.88 180.844L1401.19 168.187C1404.37 167.719 1406.72 167.344 1408.22 167.062C1414.22 166.031 1417.22 162.703 1417.22 157.078C1417.22 154.641 1416.37 152.344 1414.69 150.187C1413.37 150 1412.62 149.297 1412.44 148.078C1412.34 147.516 1412.32 146.906 1412.37 146.25C1412.41 145.594 1412.44 144.937 1412.44 144.281C1412.44 125.437 1405.69 109.547 1392.19 96.6093C1379.15 84.0466 1363.73 77.7653 1345.92 77.7653C1328.76 77.7653 1313.25 83.3903 1299.38 94.6403C1285.03 106.266 1276.69 120.328 1274.35 136.828C1273.97 139.078 1273.45 141.328 1272.8 143.578C1270.54 151.641 1265.34 157.5 1257.19 161.156C1263.65 164.344 1268.29 167.672 1271.11 171.14C1272.61 173.11 1273.69 176.391 1274.35 180.984C1277.06 201.61 1284.56 217.828 1296.85 229.64C1303.13 235.64 1310.65 240.305 1319.42 243.633C1328.18 246.961 1337.57 248.625 1347.61 248.625C1357.64 248.625 1367.3 247.078 1376.58 243.984C1381.08 242.484 1385.32 240.609 1389.31 238.359C1393.29 236.109 1396.82 233.531 1399.92 230.625C1403.01 227.719 1405.45 224.484 1407.24 220.922C1409.02 217.36 1409.91 213.82 1409.91 210.304C1409.91 206.789 1409.06 203.813 1407.38 201.375C1405.31 198.281 1402.4 196.734 1398.66 196.734L1398.66 196.734L1398.66 196.734ZM1362.66 117.844L1362.66 157.219L1321.88 163.828L1321.88 131.344C1321.88 119.25 1324.03 110.344 1328.35 104.625C1330.41 101.906 1332.84 99.9141 1335.66 98.6481C1338.47 97.3828 1341.99 96.7501 1346.21 96.7501C1350.42 96.7501 1354.68 99.2345 1359 104.203C1361.44 107.109 1362.66 111.656 1362.66 117.844L1362.66 117.844L1362.66 117.844ZM526.078 132.75C526.078 110.719 533.578 99.7032 548.578 99.7032C551.859 99.7032 555.047 100.266 558.14 101.39C568.64 105.047 573.89 115.5 573.89 132.75L573.89 204.75C573.89 211.125 571.875 216.609 567.844 221.203C565.969 223.266 563.742 224.93 561.164 226.195C558.586 227.461 555.727 228.094 552.586 228.094C549.445 228.094 546.281 227.485 543.094 226.265C531.75 222.141 526.078 211.5 526.078 194.344L526.078 132.75L526.078 132.75L526.078 132.75ZM713.672 99.7032C698.672 99.7032 691.172 110.719 691.172 132.75L691.172 194.344C691.172 211.5 696.844 222.141 708.187 226.265C711.375 227.485 714.539 228.094 717.68 228.094C720.82 228.094 723.679 227.461 726.258 226.195C728.836 224.93 731.062 223.266 732.937 221.203C736.968 216.609 738.984 211.125 738.984 204.75L738.984 132.75C738.984 115.5 733.734 105.047 723.234 101.39C720.141 100.266 716.953 99.7032 713.672 99.7032L713.672 99.7032L713.672 99.7032ZM370.406 197.859C370.406 201.796 370.828 205.64 371.672 209.39C372.515 213.14 373.781 216.421 375.469 219.234C379.219 225.141 384.516 228.094 391.359 228.094C396.516 228.094 400.781 225.984 404.156 221.765C407.343 217.64 408.937 212.344 408.937 205.875L408.937 160.031C402.937 163.5 395.25 165.89 385.875 167.203C375.562 168.797 370.406 179.016 370.406 197.859L370.406 197.859L370.406 197.859ZM854.998 209.39C854.158 205.64 853.738 201.796 853.738 197.859C853.738 179.016 858.895 168.797 869.208 167.203C878.581 165.89 886.268 163.5 892.268 160.031L892.268 205.875C892.268 212.344 890.675 217.64 887.488 221.765C884.108 225.984 879.841 228.094 874.688 228.094C867.841 228.094 862.545 225.141 858.798 219.234C857.111 216.421 855.845 213.14 854.998 209.39L854.998 209.39L854.998 209.39ZM949.638 229.922C950.991 230.967 952.585 231.669 954.418 232.029C956.258 231.669 957.855 230.967 959.208 229.922C959.675 230.556 960.058 231.247 960.358 231.994C964.331 231.052 967.275 228.018 969.188 222.89L969.188 179.578C969.188 175.453 968.345 172.453 966.658 170.578C964.098 167.932 959.628 164.994 953.248 161.766C948.248 164.185 944.985 166.372 943.458 168.328C940.925 171.61 939.658 175.36 939.658 179.578L939.658 221.765C941.851 227.449 944.815 230.835 948.548 231.925C948.841 231.185 949.205 230.517 949.638 229.922L949.638 229.922L949.638 229.922Z" id="path_1" fill="#000000" fill-rule="evenodd" stroke="none" />
              </g>
            </g>
          </g>
          <g id="svg-Copy" transform="translate(0.28198242 0.4000244)">
            <g id="Shaddalyfe#1">
              <g id="Shape#1">
                <path d="M1198.97 243.422C1194.65 246.422 1189.76 247.922 1184.28 247.922C1178.79 247.922 1174.71 246.703 1172.04 244.265C1169.36 241.828 1168.03 239.484 1168.03 237.234C1168.03 234.141 1168.68 231.704 1170 229.922C1172.06 231.516 1174.69 232.312 1177.88 232.312C1183.31 232.312 1187.2 229.172 1189.55 222.89L1189.55 179.578C1189.55 175.453 1188.66 172.453 1186.88 170.578C1184.25 167.766 1179.42 164.625 1172.39 161.156C1178.95 158.156 1183.13 155.766 1184.91 153.984C1188 150.891 1189.55 147.094 1189.55 142.594L1189.55 104.906L1169.11 104.906C1166.63 107.812 1164.49 111.656 1162.69 116.437L1158.33 128.672C1155.14 137.578 1153.52 143.672 1153.48 146.953C1153.43 150.235 1153.99 152.883 1155.17 154.898C1156.33 156.914 1158.98 159 1163.11 161.156C1152.98 163.969 1146.09 168.703 1142.44 175.359C1141.31 177.422 1140.33 179.578 1139.49 181.828L1116.14 245.25C1107.04 271.406 1098.61 289.125 1090.83 298.406C1083.7 306.938 1074.79 311.203 1064.11 311.203C1055.95 311.203 1048.27 308.578 1041.05 303.328C1032.79 297.422 1028.67 290.485 1028.67 282.515C1028.67 277.547 1029.98 273.773 1032.61 271.195C1035.23 268.617 1037.65 267.328 1039.85 267.328C1042.05 267.328 1043.58 267.352 1044.42 267.398C1045.26 267.446 1046.11 267.61 1046.96 267.89C1048.64 268.64 1050.24 270.328 1051.74 272.953C1049.76 276.703 1051.03 280.828 1055.53 285.328C1059.75 289.734 1063.71 291.937 1067.42 291.937C1071.12 291.937 1074.21 291.234 1076.7 289.828C1079.18 288.422 1081.4 286.266 1083.38 283.359C1087.69 276.985 1089.85 267.844 1089.85 255.937C1089.85 249.469 1088.11 242.344 1084.64 234.562C1083.7 231.938 1082.58 229.172 1081.27 226.265L1061.3 181.265C1059.14 176.485 1055.88 172.243 1051.53 168.539C1047.17 164.836 1042.27 162.375 1036.83 161.156C1043.29 157.875 1046.53 153.563 1046.53 148.219C1046.53 144.375 1044.98 138.703 1041.89 131.203L1033.6 111.234C1031.16 105.797 1029.14 102.375 1027.55 100.969C1024.73 98.7192 1021.48 97.5942 1017.78 97.5942C1017.26 97.5942 1016.77 97.6089 1016.3 97.6382L1016.3 142.453C1016.3 146.953 1017.28 150.188 1019.25 152.156C1022.15 155.156 1026.89 158.156 1033.46 161.156C1026.42 164.625 1022.02 167.25 1020.24 169.031C1017.61 171.937 1016.3 175.453 1016.3 179.578L1016.3 222.89C1018.54 229.172 1022.43 232.312 1027.97 232.312C1031.15 232.312 1033.78 231.516 1035.85 229.922C1037.15 231.704 1037.81 233.93 1037.81 236.601C1037.81 239.273 1036.47 241.828 1033.81 244.265C1031.13 246.703 1027.12 247.922 1021.78 247.922C1016.44 247.922 1011.47 246.422 1006.88 243.422C1003.03 246.422 998.461 247.922 993.168 247.922C987.868 247.922 983.015 246.422 978.608 243.422C974.295 246.422 969.398 247.922 963.918 247.922C960.058 247.922 956.895 247.32 954.428 246.114C951.995 247.32 948.898 247.922 945.138 247.922C939.798 247.922 934.831 246.422 930.238 243.422C926.205 246.422 922.618 247.922 919.478 247.922C916.338 247.922 913.618 247.618 911.318 247.008C909.025 246.399 906.891 245.438 904.918 244.125C900.511 241.219 897.795 237.094 896.768 231.75C888.235 243 875.438 248.625 858.378 248.625C837.565 248.625 821.954 242.391 811.547 229.922C807.047 224.578 803.953 218.625 802.265 212.062C801.328 208.125 799.687 205.102 797.344 202.992C795 200.883 792.094 198.985 788.625 197.297C795.375 194.203 800.203 188.391 803.109 179.859C806.203 170.859 811.359 164.344 818.578 160.312C826.358 156.094 834.935 153.867 844.308 153.633C853.688 153.399 860.628 153.094 865.128 152.719C869.628 152.344 873.611 151.734 877.078 150.89C883.545 149.39 888.608 146.625 892.268 142.594L892.268 121.5C892.268 112.219 890.368 105.422 886.568 101.109C882.775 96.7965 877.011 94.6402 869.278 94.6402C861.538 94.6402 855.818 96.0699 852.118 98.9292C848.411 101.789 846.558 105.61 846.558 110.39C846.558 113.956 847.451 116.629 849.238 118.411C851.111 120.285 853.968 121.174 857.808 121.078C856.308 128.391 852.371 132.047 845.998 132.047C844.125 132.047 842.298 131.719 840.518 131.062L840.518 131.484C840.518 133.922 841.641 135.469 843.888 136.125C841.548 139.688 837.611 141.422 832.078 141.328C826.545 141.234 822.232 138.281 819.14 132.469C817.734 132.844 816.117 133.031 814.289 133.031C812.461 133.031 810.445 132.422 808.242 131.203C806.039 129.985 804.281 128.297 802.969 126.14C807.656 123.328 810.516 118.969 811.547 113.062C812.672 105.844 818.439 98.5312 828.848 91.1252C841.408 82.2185 857.438 77.7652 876.938 77.7652C909.285 77.7652 929.018 87.7029 936.138 107.578C938.485 114.234 939.658 122.109 939.658 131.203L939.658 142.594C939.658 147.188 940.805 150.938 943.098 153.844C945.198 156.496 948.641 158.718 953.428 160.51C959.195 157.804 962.948 155.582 964.688 153.844C967.688 150.75 969.188 146.953 969.188 142.453L969.188 63C969.188 52.3125 964.828 46.9687 956.108 46.9687C952.921 46.9687 950.298 47.7656 948.238 49.3593C946.925 47.5781 946.268 45.7265 946.268 43.8046C946.268 41.8827 946.758 40.0312 947.738 38.25C948.725 36.4687 950.248 34.8281 952.308 33.3281C956.715 30.1406 962.295 28.5468 969.048 28.5468C975.795 28.5468 981.045 28.9687 984.798 29.8125C989.951 23.3437 995.765 20.1093 1002.24 20.1093C1011.61 20.1093 1016.3 25.1718 1016.3 35.2968L1016.3 82.8742C1018.28 82.2809 1020.55 81.9842 1023.12 81.9842C1028.41 81.9842 1033.4 83.6719 1038.1 87.0472C1041.94 83.6719 1046.62 81.9842 1052.16 81.9842C1057.69 81.9842 1062.56 83.5312 1066.78 86.6252C1071 83.5312 1075.73 81.9842 1080.99 81.9842C1086.23 81.9842 1090.38 83.2265 1093.43 85.7112C1096.47 88.1952 1098.04 90.6562 1098.14 93.0942C1098.23 96.7502 1097.62 99.2345 1096.31 100.547C1094.06 98.8592 1091.72 98.0152 1089.28 98.0152C1086.84 98.0152 1084.85 98.7185 1083.31 100.125C1081.76 101.531 1081.08 103.828 1081.27 107.015L1113.75 194.765L1144.55 104.625C1143.51 99.8439 1140.09 97.4532 1134.28 97.4532C1130.62 97.4532 1127.16 98.3439 1123.88 100.125C1122.94 98.3439 1122.49 96.0469 1122.54 93.2342C1122.58 90.4215 1123.9 87.8435 1126.48 85.5002C1129.06 83.1562 1132.57 81.9842 1137.03 81.9842C1141.48 81.9842 1145.3 83.4842 1148.49 86.4842C1151.86 83.4842 1155.66 81.9842 1159.88 81.9842C1164.1 81.9842 1167.94 83.2969 1171.41 85.9222C1174.59 83.2969 1178.13 81.9842 1182.03 81.9842C1185 81.9842 1187.51 82.6412 1189.55 83.9552L1189.55 77.2032C1189.55 55.4531 1195.17 37.3593 1206.42 22.9218C1218.42 7.64059 1234.4 0 1254.38 0C1275.38 0 1289.91 6.70309 1297.97 20.1093C1300.5 24.2343 1302.09 28.3827 1302.75 32.5546C1303.41 36.7265 1304.46 39.4687 1305.92 40.7812C1307.37 42.0937 1309.27 43.2187 1311.61 44.1562C1308.7 48.7499 1304.53 51.0468 1299.1 51.0468C1297.97 51.0468 1296.66 50.8593 1295.16 50.4843C1291.5 56.0156 1287.04 58.7812 1281.8 58.7812C1272.14 58.7812 1267.03 57.2343 1266.47 54.1406C1269.93 53.7656 1271.67 51.75 1271.67 48.0937L1271.67 47.8125C1270.07 48.375 1268.29 48.6562 1266.33 48.6562C1264.36 48.6562 1262.65 48.4453 1261.2 48.0234C1259.74 47.6015 1258.45 46.9218 1257.33 45.9843C1254.7 43.8281 1253.58 41.0625 1253.96 37.6875C1262.3 37.6875 1267.87 36.1875 1270.69 33.1875C1271.72 32.1562 1272.24 30.5859 1272.24 28.4765C1272.24 26.3672 1270.83 24.2344 1268.02 22.0781C1265.2 19.9218 1261.52 18.8437 1256.98 18.8437C1252.43 18.8437 1248.8 19.3359 1246.08 20.3203C1243.36 21.3046 1241.01 23.0156 1239.05 25.4531C1234.92 30.7031 1232.86 39.3281 1232.86 51.3281C1232.86 55.9218 1233.44 62.2031 1234.62 70.1718C1235.79 78.1407 1236.52 83.3439 1236.8 85.7812L1278.85 85.7812C1279.59 87.2812 1279.97 89.7889 1279.97 93.3042C1279.97 96.8202 1278.61 99.6329 1275.89 101.742C1273.17 103.852 1269.89 104.906 1266.05 104.906L1237.08 104.906L1237.08 142.594C1237.08 147.094 1238.06 150.329 1240.03 152.297C1242.93 155.203 1247.67 158.156 1254.24 161.156C1247.2 164.625 1242.8 167.25 1241.02 169.031C1238.39 171.937 1237.08 175.453 1237.08 179.578L1237.08 222.047C1239.89 228.891 1244.72 232.312 1251.56 232.312C1255.68 232.312 1258.78 231.516 1260.85 229.922C1262.15 231.704 1262.81 233.579 1262.81 235.547C1262.81 237.516 1262.41 239.18 1261.62 240.539C1260.82 241.899 1259.62 243.141 1258.03 244.265C1254.75 246.703 1250.25 247.922 1244.53 247.922C1238.81 247.922 1233.24 246.328 1227.8 243.14C1223.95 246.328 1219.29 247.922 1213.81 247.922C1208.32 247.922 1203.37 246.422 1198.97 243.422L1198.97 243.422L1198.97 243.422ZM159.539 247.922C165.023 247.922 169.921 246.422 174.234 243.422C178.641 246.422 183.469 247.922 188.719 247.922C193.969 247.922 198.516 246.516 202.359 243.703C206.016 246.516 210.141 247.922 214.734 247.922C219.328 247.922 222.984 246.75 225.703 244.406C228.422 242.062 229.781 239.273 229.781 236.039C229.781 232.805 229.078 230.578 227.672 229.359C225.515 231.047 223.359 231.89 221.203 231.89C217.078 231.89 214.125 229.594 212.344 225L212.344 134.015C212.719 130.265 213.515 126.797 214.734 123.609C218.578 113.297 225.375 108.14 235.125 108.14C238.406 108.14 241.453 108.609 244.265 109.547C253.172 112.359 257.625 122.906 257.625 141.187L257.625 225C255.844 229.594 252.89 231.89 248.765 231.89C246.609 231.89 244.453 231.047 242.297 229.359C240.89 230.578 240.187 232.219 240.187 234.281C240.187 238.687 241.546 242.062 244.265 244.406C246.984 246.75 250.617 247.922 255.164 247.922C259.711 247.922 263.812 246.516 267.469 243.703C271.406 246.516 276.023 247.922 281.32 247.922C286.617 247.922 291.375 246.422 295.594 243.422C300.188 246.422 305.203 247.922 310.64 247.922C316.078 247.922 320.039 246.633 322.523 244.054C325.008 241.476 326.25 238.828 326.25 236.109C326.25 233.391 325.734 231.328 324.703 229.922C322.641 231.516 320.015 232.312 316.828 232.312C310.828 232.312 306.937 229.406 305.156 223.594L305.156 179.578C305.156 175.453 306.469 171.937 309.094 169.031C310.781 167.157 315.188 164.485 322.312 161.015C315.75 158.015 311.016 155.062 308.109 152.156C306.141 150.188 305.156 147 305.156 142.594L305.156 133.172C305.156 124.734 304.125 117.187 302.062 110.531C295.594 89.6252 280.547 79.1722 256.922 79.1722C236.297 79.1722 221.437 87.6565 212.344 104.625L212.344 35.2968C212.344 25.1718 207.516 20.1093 197.859 20.1093C191.39 20.1093 185.578 23.3437 180.422 29.8125C176.672 28.9687 171.422 28.5468 164.672 28.5468C157.922 28.5468 152.297 30.1406 147.797 33.3281C145.828 34.8281 144.352 36.4688 143.367 38.25C142.382 40.0312 141.89 41.8827 141.89 43.8046C141.89 45.7266 142.546 47.5781 143.859 49.3593C145.922 47.7656 148.547 46.9687 151.734 46.9687C160.453 46.9687 164.812 52.3125 164.812 63L164.812 142.594C164.812 147.094 163.265 150.891 160.172 153.984C158.391 155.766 154.219 158.156 147.656 161.156C155.156 164.812 159.984 167.765 162.14 170.015C163.921 171.703 164.812 174.891 164.812 179.578L164.812 222.89C162.469 229.172 158.578 232.312 153.14 232.312C149.953 232.312 147.328 231.516 145.265 229.922C143.953 231.704 143.297 234.141 143.297 237.234C143.297 239.484 144.633 241.828 147.305 244.265C149.976 246.703 154.054 247.922 159.539 247.922L159.539 247.922L159.539 247.922ZM577.547 232.453C582.89 242.766 590.343 247.922 599.906 247.922C603.937 247.922 607.969 246.422 612 243.422C616.593 246.422 621.562 247.922 626.906 247.922C632.25 247.922 636.258 246.703 638.93 244.265C641.601 241.828 642.937 239.273 642.937 236.601C642.937 233.93 642.281 231.704 640.969 229.922C638.906 231.516 636.281 232.312 633.094 232.312C628.031 232.312 624.141 228.797 621.422 221.765L621.422 179.578C621.422 173.91 625.042 168.864 632.281 164.442C636.053 166.75 638.902 169.123 640.828 171.562C642.515 173.719 643.453 176.86 643.64 180.984C644.859 202.078 650.438 218.391 660.375 229.922C671.25 242.391 686.531 248.625 706.219 248.625C709.406 248.625 712.641 248.297 715.922 247.64C727.078 245.203 735.984 240.141 742.64 232.453C747.984 242.766 755.437 247.922 765 247.922C769.031 247.922 773.063 246.422 777.094 243.422C781.687 246.422 786.656 247.922 792 247.922C797.343 247.922 801.351 246.703 804.023 244.265C806.695 241.828 808.031 239.273 808.031 236.601C808.031 233.93 807.375 231.704 806.062 229.922C804 231.516 801.375 232.312 798.187 232.312C793.125 232.312 789.234 228.797 786.515 221.765L786.515 179.578C786.515 172.453 792.234 166.312 803.672 161.156C792.234 155.906 786.515 149.719 786.515 142.594L786.515 35.2968C786.515 25.1718 781.687 20.1093 772.031 20.1093C765.562 20.1093 759.75 23.3437 754.594 29.8125C750.844 28.9687 745.594 28.5468 738.844 28.5468C732.094 28.5468 726.516 30.1406 722.109 33.3281C720.046 34.8281 718.523 36.4688 717.539 38.25C716.554 40.0312 716.062 41.8827 716.062 43.8046C716.062 45.7266 716.718 47.5781 718.031 49.3593C720.094 47.7656 722.719 46.9687 725.906 46.9687C734.625 46.9687 738.984 52.3125 738.984 63L738.984 93.2342C737.203 90.8909 735.046 88.8286 732.515 87.0472C725.015 81.7972 716.156 79.1722 705.937 79.1722C687.281 79.1722 672.75 83.6722 662.344 92.6722C656.906 97.4536 652.57 103.571 649.336 111.023C646.101 118.477 644.25 127.453 643.781 137.953C643.406 146.357 639.638 153.019 632.477 157.939C625.107 153.429 621.422 148.314 621.422 142.594L621.422 35.2968C621.422 25.1718 616.594 20.1093 606.937 20.1093C600.468 20.1093 594.656 23.3437 589.5 29.8125C585.75 28.9687 580.5 28.5468 573.75 28.5468C567 28.5468 561.422 30.1406 557.015 33.3281C554.953 34.8281 553.43 36.4688 552.445 38.25C551.461 40.0312 550.969 41.8827 550.969 43.8046C550.969 45.7266 551.625 47.5781 552.937 49.3593C555 47.7656 557.625 46.9687 560.812 46.9687C569.531 46.9687 573.89 52.3125 573.89 63L573.89 93.2342C572.109 90.8909 569.953 88.8286 567.422 87.0472C559.922 81.7972 551.063 79.1722 540.844 79.1722C522.187 79.1722 507.656 83.6722 497.25 92.6722C491.813 97.4536 487.477 103.571 484.242 111.023C481.007 118.477 479.156 127.453 478.687 137.953C478.29 146.837 474.102 153.774 466.123 158.765C463.352 157.334 461.235 155.694 459.773 153.844C457.476 150.938 456.328 147.188 456.328 142.594L456.328 131.203C456.328 122.109 455.156 114.234 452.812 107.578C445.687 87.7029 425.953 77.7652 393.609 77.7652C374.109 77.7652 358.078 82.2186 345.515 91.1252C335.109 98.5312 329.344 105.844 328.219 113.062C327.188 118.969 324.328 123.328 319.64 126.14C320.953 128.297 322.711 129.985 324.914 131.203C327.117 132.422 329.133 133.031 330.961 133.031C332.789 133.031 334.406 132.844 335.812 132.469C338.906 138.281 343.219 141.234 348.75 141.328C354.281 141.422 358.219 139.688 360.562 136.125C358.312 135.469 357.187 133.922 357.187 131.484L357.187 131.062C358.968 131.719 360.797 132.047 362.672 132.047C369.047 132.047 372.984 128.391 374.484 121.078C370.641 121.174 367.782 120.285 365.908 118.411C364.125 116.629 363.234 113.956 363.234 110.39C363.234 105.61 365.086 101.789 368.789 98.9292C372.492 96.0699 378.211 94.6402 385.945 94.6402C393.68 94.6402 399.445 96.7966 403.242 101.109C407.039 105.422 408.937 112.219 408.937 121.5L408.937 142.594C405.281 146.625 400.219 149.39 393.75 150.89C390.281 151.734 386.297 152.344 381.797 152.719C377.297 153.094 370.359 153.399 360.984 153.633C351.609 153.867 343.031 156.094 335.25 160.312C328.031 164.344 322.875 170.859 319.781 179.859C316.875 188.391 312.047 194.203 305.297 197.297C308.766 198.985 311.672 200.883 314.015 202.992C316.359 205.102 318 208.125 318.937 212.062C320.625 218.625 323.719 224.578 328.219 229.922C338.625 242.391 354.234 248.625 375.047 248.625C392.109 248.625 404.906 243 413.437 231.75C414.468 237.094 417.187 241.219 421.594 244.125C423.563 245.438 425.695 246.399 427.992 247.008C430.289 247.618 433.007 247.922 436.148 247.922C439.289 247.922 442.875 246.422 446.906 243.422C451.5 246.422 456.469 247.922 461.812 247.922C467.156 247.922 471.164 246.703 473.836 244.265C476.508 241.828 477.844 239.273 477.844 236.601C477.844 233.93 477.188 231.704 475.875 229.922C473.812 231.516 471.187 232.312 468 232.312C462.937 232.312 459.047 228.797 456.328 221.765L456.328 179.578C456.328 175.36 457.594 171.61 460.125 168.328C461.22 166.93 463.202 165.413 466.071 163.777C470.402 166.293 473.623 168.888 475.734 171.562C477.421 173.719 478.359 176.86 478.547 180.984C479.766 202.078 485.344 218.391 495.281 229.922C506.156 242.391 521.438 248.625 541.125 248.625C544.312 248.625 547.547 248.297 550.828 247.64C561.984 245.203 570.89 240.141 577.547 232.453L577.547 232.453L577.547 232.453ZM12.656 250.875C19.406 250.875 26.531 247.125 34.031 239.625C45.8437 246.094 59.7657 249.328 75.797 249.328C98.5783 249.328 117.094 242.953 131.344 230.203C137.813 224.485 142.734 217.922 146.109 210.515C149.484 203.109 151.172 194.25 151.172 183.937C151.172 173.625 148.594 164.016 143.437 155.109C137.531 144.891 125.812 132.188 108.281 117C106.312 115.406 105.328 113.625 105.328 111.656C105.328 110.438 105.609 108.516 106.172 105.89L108 98.0152C104.813 100.078 101.531 101.672 98.156 102.797C96.562 103.266 95.109 103.641 93.797 103.922C92.4843 104.204 91.1717 104.344 89.859 104.344C88.5464 104.344 86.015 103.172 82.265 100.828L75.515 96.3282C66.9843 90.6095 60.75 85.0782 56.812 79.7342C54.562 76.6409 53.437 72.7972 53.437 68.2031C53.437 62.1094 55.687 56.9062 60.187 52.5937C64.9683 48 71.109 45.7031 78.609 45.7031C90.4217 45.7031 99.9843 49.1718 107.297 56.1093C110.766 59.4843 113.461 63.4452 115.383 67.9921C117.304 72.5388 118.265 76.9685 118.265 81.2812C118.265 85.5939 117.468 89.6252 115.875 93.3752C118.5 94.6879 121.734 95.3442 125.578 95.3442C128.015 95.3442 130.593 93.8909 133.312 90.9842C134.531 89.6715 135.492 88.1012 136.195 86.2732C136.898 84.4452 137.25 82.5235 137.25 80.5082C137.25 78.4922 136.875 76.2185 136.125 73.6872C140.062 69.7499 142.031 64.875 142.031 59.0625C142.031 53.1562 140.437 48.7968 137.25 45.9843C139.5 43.9218 140.625 40.8984 140.625 36.914C140.625 32.9297 139.359 29.3437 136.828 26.1562C135.703 24.7499 134.437 23.6484 133.031 22.8515C131.625 22.0546 130.336 21.6562 129.164 21.6562C127.992 21.6562 127.078 21.7968 126.422 22.0781C126.797 23.0156 126.984 24.1874 126.984 25.5937C126.984 27 126.375 28.5937 125.156 30.375C123.843 32.0625 122.32 33.0234 120.586 33.2578C118.851 33.4921 116.906 33.6093 114.75 33.6093C109.593 33.6093 105 32.8124 100.969 31.2187C91.4997 27.5625 81.0934 25.7344 69.75 25.7343C51.0933 25.7343 35.7183 30.8906 23.625 41.2031C17.8123 46.0781 13.242 52.0078 9.914 58.9921C6.586 65.9765 4.922 72.8672 4.922 79.6642C4.922 86.4609 5.43767 92.1092 6.46901 96.6092C9.46901 109.547 19.172 123.562 35.578 138.656L40.781 143.297C42.5623 144.797 43.453 146.016 43.453 146.953C43.453 151.078 42.656 155.531 41.062 160.312C47.062 156.281 52.5463 154.265 57.515 154.265C62.3903 154.265 68.906 157.125 77.062 162.844C87.656 170.156 95.4373 177.094 100.406 183.656C103.593 187.875 105.187 193.359 105.187 200.109C105.187 209.672 101.812 217.219 95.062 222.75C88.7807 227.906 81.14 230.484 72.14 230.484C58.734 230.484 47.7187 226.078 39.094 217.265C35.0627 213.235 31.9453 208.407 29.742 202.781C27.5387 197.157 26.437 190.547 26.437 182.953C26.437 175.359 28.1247 169.781 31.5 166.219C29.906 163.219 27.2107 161.719 23.414 161.719C19.6173 161.719 15.75 164.297 11.812 169.453C9.93733 171.797 8.461 174.539 7.383 177.679C6.30434 180.82 5.765 184.195 5.765 187.804C5.765 191.414 6.562 194.813 8.15601 198C2.71867 204 0 209.883 0 215.648C0 221.414 2.34367 226.407 7.03101 230.625C7.125 231.094 7.172 231.61 7.172 232.172L7.172 234.281C7.172 239.531 6.09366 243.469 3.937 246.094C5.437 249.282 8.34334 250.875 12.656 250.875L12.656 250.875L12.656 250.875ZM1398.66 196.734C1393.12 196.734 1389.33 198.703 1387.27 202.64C1387.73 204.516 1387.97 206.203 1387.97 207.703C1387.97 214.078 1385.11 219.234 1379.39 223.172C1373.29 227.297 1365.23 229.359 1355.21 229.359C1345.73 229.359 1337.9 226.313 1331.72 220.219C1325.16 213.844 1321.88 205.219 1321.88 194.344L1321.88 180.844L1401.19 168.187C1404.37 167.719 1406.72 167.344 1408.22 167.062C1414.22 166.031 1417.22 162.703 1417.22 157.078C1417.22 154.641 1416.37 152.344 1414.69 150.187C1413.37 150 1412.62 149.297 1412.44 148.078C1412.34 147.516 1412.32 146.906 1412.37 146.25C1412.41 145.594 1412.44 144.937 1412.44 144.281C1412.44 125.437 1405.69 109.547 1392.19 96.6093C1379.15 84.0466 1363.73 77.7653 1345.92 77.7653C1328.76 77.7653 1313.25 83.3903 1299.38 94.6403C1285.03 106.266 1276.69 120.328 1274.35 136.828C1273.97 139.078 1273.45 141.328 1272.8 143.578C1270.54 151.641 1265.34 157.5 1257.19 161.156C1263.65 164.344 1268.29 167.672 1271.11 171.14C1272.61 173.11 1273.69 176.391 1274.35 180.984C1277.06 201.61 1284.56 217.828 1296.85 229.64C1303.13 235.64 1310.65 240.305 1319.42 243.633C1328.18 246.961 1337.57 248.625 1347.61 248.625C1357.64 248.625 1367.3 247.078 1376.58 243.984C1381.08 242.484 1385.32 240.609 1389.31 238.359C1393.29 236.109 1396.82 233.531 1399.92 230.625C1403.01 227.719 1405.45 224.484 1407.24 220.922C1409.02 217.36 1409.91 213.82 1409.91 210.304C1409.91 206.789 1409.06 203.813 1407.38 201.375C1405.31 198.281 1402.4 196.734 1398.66 196.734L1398.66 196.734L1398.66 196.734ZM1362.66 117.844L1362.66 157.219L1321.88 163.828L1321.88 131.344C1321.88 119.25 1324.03 110.344 1328.35 104.625C1330.41 101.906 1332.84 99.9141 1335.66 98.6481C1338.47 97.3828 1341.99 96.7501 1346.21 96.7501C1350.42 96.7501 1354.68 99.2345 1359 104.203C1361.44 107.109 1362.66 111.656 1362.66 117.844L1362.66 117.844L1362.66 117.844ZM526.078 132.75C526.078 110.719 533.578 99.7032 548.578 99.7032C551.859 99.7032 555.047 100.266 558.14 101.39C568.64 105.047 573.89 115.5 573.89 132.75L573.89 204.75C573.89 211.125 571.875 216.609 567.844 221.203C565.969 223.266 563.742 224.93 561.164 226.195C558.586 227.461 555.727 228.094 552.586 228.094C549.445 228.094 546.281 227.485 543.094 226.265C531.75 222.141 526.078 211.5 526.078 194.344L526.078 132.75L526.078 132.75L526.078 132.75ZM713.672 99.7032C698.672 99.7032 691.172 110.719 691.172 132.75L691.172 194.344C691.172 211.5 696.844 222.141 708.187 226.265C711.375 227.485 714.539 228.094 717.68 228.094C720.82 228.094 723.679 227.461 726.258 226.195C728.836 224.93 731.062 223.266 732.937 221.203C736.968 216.609 738.984 211.125 738.984 204.75L738.984 132.75C738.984 115.5 733.734 105.047 723.234 101.39C720.141 100.266 716.953 99.7032 713.672 99.7032L713.672 99.7032L713.672 99.7032ZM370.406 197.859C370.406 201.796 370.828 205.64 371.672 209.39C372.515 213.14 373.781 216.421 375.469 219.234C379.219 225.141 384.516 228.094 391.359 228.094C396.516 228.094 400.781 225.984 404.156 221.765C407.343 217.64 408.937 212.344 408.937 205.875L408.937 160.031C402.937 163.5 395.25 165.89 385.875 167.203C375.562 168.797 370.406 179.016 370.406 197.859L370.406 197.859L370.406 197.859ZM854.998 209.39C854.158 205.64 853.738 201.796 853.738 197.859C853.738 179.016 858.895 168.797 869.208 167.203C878.581 165.89 886.268 163.5 892.268 160.031L892.268 205.875C892.268 212.344 890.675 217.64 887.488 221.765C884.108 225.984 879.841 228.094 874.688 228.094C867.841 228.094 862.545 225.141 858.798 219.234C857.111 216.421 855.845 213.14 854.998 209.39L854.998 209.39L854.998 209.39ZM949.638 229.922C950.991 230.967 952.585 231.669 954.418 232.029C956.258 231.669 957.855 230.967 959.208 229.922C959.675 230.556 960.058 231.247 960.358 231.994C964.331 231.052 967.275 228.018 969.188 222.89L969.188 179.578C969.188 175.453 968.345 172.453 966.658 170.578C964.098 167.932 959.628 164.994 953.248 161.766C948.248 164.185 944.985 166.372 943.458 168.328C940.925 171.61 939.658 175.36 939.658 179.578L939.658 221.765C941.851 227.449 944.815 230.835 948.548 231.925C948.841 231.185 949.205 230.517 949.638 229.922L949.638 229.922L949.638 229.922Z" id="path_2" fill="none" fill-rule="evenodd" stroke="#EEE8E8" stroke-width="70" />
                <path d="M1198.97 243.422C1194.65 246.422 1189.76 247.922 1184.28 247.922C1178.79 247.922 1174.71 246.703 1172.04 244.265C1169.36 241.828 1168.03 239.484 1168.03 237.234C1168.03 234.141 1168.68 231.704 1170 229.922C1172.06 231.516 1174.69 232.312 1177.88 232.312C1183.31 232.312 1187.2 229.172 1189.55 222.89L1189.55 179.578C1189.55 175.453 1188.66 172.453 1186.88 170.578C1184.25 167.766 1179.42 164.625 1172.39 161.156C1178.95 158.156 1183.13 155.766 1184.91 153.984C1188 150.891 1189.55 147.094 1189.55 142.594L1189.55 104.906L1169.11 104.906C1166.63 107.812 1164.49 111.656 1162.69 116.437L1158.33 128.672C1155.14 137.578 1153.52 143.672 1153.48 146.953C1153.43 150.235 1153.99 152.883 1155.17 154.898C1156.33 156.914 1158.98 159 1163.11 161.156C1152.98 163.969 1146.09 168.703 1142.44 175.359C1141.31 177.422 1140.33 179.578 1139.49 181.828L1116.14 245.25C1107.04 271.406 1098.61 289.125 1090.83 298.406C1083.7 306.938 1074.79 311.203 1064.11 311.203C1055.95 311.203 1048.27 308.578 1041.05 303.328C1032.79 297.422 1028.67 290.485 1028.67 282.515C1028.67 277.547 1029.98 273.773 1032.61 271.195C1035.23 268.617 1037.65 267.328 1039.85 267.328C1042.05 267.328 1043.58 267.352 1044.42 267.398C1045.26 267.446 1046.11 267.61 1046.96 267.89C1048.64 268.64 1050.24 270.328 1051.74 272.953C1049.76 276.703 1051.03 280.828 1055.53 285.328C1059.75 289.734 1063.71 291.937 1067.42 291.937C1071.12 291.937 1074.21 291.234 1076.7 289.828C1079.18 288.422 1081.4 286.266 1083.38 283.359C1087.69 276.985 1089.85 267.844 1089.85 255.937C1089.85 249.469 1088.11 242.344 1084.64 234.562C1083.7 231.938 1082.58 229.172 1081.27 226.265L1061.3 181.265C1059.14 176.485 1055.88 172.243 1051.53 168.539C1047.17 164.836 1042.27 162.375 1036.83 161.156C1043.29 157.875 1046.53 153.563 1046.53 148.219C1046.53 144.375 1044.98 138.703 1041.89 131.203L1033.6 111.234C1031.16 105.797 1029.14 102.375 1027.55 100.969C1024.73 98.7192 1021.48 97.5942 1017.78 97.5942C1017.26 97.5942 1016.77 97.6089 1016.3 97.6382L1016.3 142.453C1016.3 146.953 1017.28 150.188 1019.25 152.156C1022.15 155.156 1026.89 158.156 1033.46 161.156C1026.42 164.625 1022.02 167.25 1020.24 169.031C1017.61 171.937 1016.3 175.453 1016.3 179.578L1016.3 222.89C1018.54 229.172 1022.43 232.312 1027.97 232.312C1031.15 232.312 1033.78 231.516 1035.85 229.922C1037.15 231.704 1037.81 233.93 1037.81 236.601C1037.81 239.273 1036.47 241.828 1033.81 244.265C1031.13 246.703 1027.12 247.922 1021.78 247.922C1016.44 247.922 1011.47 246.422 1006.88 243.422C1003.03 246.422 998.461 247.922 993.168 247.922C987.868 247.922 983.015 246.422 978.608 243.422C974.295 246.422 969.398 247.922 963.918 247.922C960.058 247.922 956.895 247.32 954.428 246.114C951.995 247.32 948.898 247.922 945.138 247.922C939.798 247.922 934.831 246.422 930.238 243.422C926.205 246.422 922.618 247.922 919.478 247.922C916.338 247.922 913.618 247.618 911.318 247.008C909.025 246.399 906.891 245.438 904.918 244.125C900.511 241.219 897.795 237.094 896.768 231.75C888.235 243 875.438 248.625 858.378 248.625C837.565 248.625 821.954 242.391 811.547 229.922C807.047 224.578 803.953 218.625 802.265 212.062C801.328 208.125 799.687 205.102 797.344 202.992C795 200.883 792.094 198.985 788.625 197.297C795.375 194.203 800.203 188.391 803.109 179.859C806.203 170.859 811.359 164.344 818.578 160.312C826.358 156.094 834.935 153.867 844.308 153.633C853.688 153.399 860.628 153.094 865.128 152.719C869.628 152.344 873.611 151.734 877.078 150.89C883.545 149.39 888.608 146.625 892.268 142.594L892.268 121.5C892.268 112.219 890.368 105.422 886.568 101.109C882.775 96.7965 877.011 94.6402 869.278 94.6402C861.538 94.6402 855.818 96.0699 852.118 98.9292C848.411 101.789 846.558 105.61 846.558 110.39C846.558 113.956 847.451 116.629 849.238 118.411C851.111 120.285 853.968 121.174 857.808 121.078C856.308 128.391 852.371 132.047 845.998 132.047C844.125 132.047 842.298 131.719 840.518 131.062L840.518 131.484C840.518 133.922 841.641 135.469 843.888 136.125C841.548 139.688 837.611 141.422 832.078 141.328C826.545 141.234 822.232 138.281 819.14 132.469C817.734 132.844 816.117 133.031 814.289 133.031C812.461 133.031 810.445 132.422 808.242 131.203C806.039 129.985 804.281 128.297 802.969 126.14C807.656 123.328 810.516 118.969 811.547 113.062C812.672 105.844 818.439 98.5312 828.848 91.1252C841.408 82.2185 857.438 77.7652 876.938 77.7652C909.285 77.7652 929.018 87.7029 936.138 107.578C938.485 114.234 939.658 122.109 939.658 131.203L939.658 142.594C939.658 147.188 940.805 150.938 943.098 153.844C945.198 156.496 948.641 158.718 953.428 160.51C959.195 157.804 962.948 155.582 964.688 153.844C967.688 150.75 969.188 146.953 969.188 142.453L969.188 63C969.188 52.3125 964.828 46.9687 956.108 46.9687C952.921 46.9687 950.298 47.7656 948.238 49.3593C946.925 47.5781 946.268 45.7265 946.268 43.8046C946.268 41.8827 946.758 40.0312 947.738 38.25C948.725 36.4687 950.248 34.8281 952.308 33.3281C956.715 30.1406 962.295 28.5468 969.048 28.5468C975.795 28.5468 981.045 28.9687 984.798 29.8125C989.951 23.3437 995.765 20.1093 1002.24 20.1093C1011.61 20.1093 1016.3 25.1718 1016.3 35.2968L1016.3 82.8742C1018.28 82.2809 1020.55 81.9842 1023.12 81.9842C1028.41 81.9842 1033.4 83.6719 1038.1 87.0472C1041.94 83.6719 1046.62 81.9842 1052.16 81.9842C1057.69 81.9842 1062.56 83.5312 1066.78 86.6252C1071 83.5312 1075.73 81.9842 1080.99 81.9842C1086.23 81.9842 1090.38 83.2265 1093.43 85.7112C1096.47 88.1952 1098.04 90.6562 1098.14 93.0942C1098.23 96.7502 1097.62 99.2345 1096.31 100.547C1094.06 98.8592 1091.72 98.0152 1089.28 98.0152C1086.84 98.0152 1084.85 98.7185 1083.31 100.125C1081.76 101.531 1081.08 103.828 1081.27 107.015L1113.75 194.765L1144.55 104.625C1143.51 99.8439 1140.09 97.4532 1134.28 97.4532C1130.62 97.4532 1127.16 98.3439 1123.88 100.125C1122.94 98.3439 1122.49 96.0469 1122.54 93.2342C1122.58 90.4215 1123.9 87.8435 1126.48 85.5002C1129.06 83.1562 1132.57 81.9842 1137.03 81.9842C1141.48 81.9842 1145.3 83.4842 1148.49 86.4842C1151.86 83.4842 1155.66 81.9842 1159.88 81.9842C1164.1 81.9842 1167.94 83.2969 1171.41 85.9222C1174.59 83.2969 1178.13 81.9842 1182.03 81.9842C1185 81.9842 1187.51 82.6412 1189.55 83.9552L1189.55 77.2032C1189.55 55.4531 1195.17 37.3593 1206.42 22.9218C1218.42 7.64059 1234.4 0 1254.38 0C1275.38 0 1289.91 6.70309 1297.97 20.1093C1300.5 24.2343 1302.09 28.3827 1302.75 32.5546C1303.41 36.7265 1304.46 39.4687 1305.92 40.7812C1307.37 42.0937 1309.27 43.2187 1311.61 44.1562C1308.7 48.7499 1304.53 51.0468 1299.1 51.0468C1297.97 51.0468 1296.66 50.8593 1295.16 50.4843C1291.5 56.0156 1287.04 58.7812 1281.8 58.7812C1272.14 58.7812 1267.03 57.2343 1266.47 54.1406C1269.93 53.7656 1271.67 51.75 1271.67 48.0937L1271.67 47.8125C1270.07 48.375 1268.29 48.6562 1266.33 48.6562C1264.36 48.6562 1262.65 48.4453 1261.2 48.0234C1259.74 47.6015 1258.45 46.9218 1257.33 45.9843C1254.7 43.8281 1253.58 41.0625 1253.96 37.6875C1262.3 37.6875 1267.87 36.1875 1270.69 33.1875C1271.72 32.1562 1272.24 30.5859 1272.24 28.4765C1272.24 26.3672 1270.83 24.2344 1268.02 22.0781C1265.2 19.9218 1261.52 18.8437 1256.98 18.8437C1252.43 18.8437 1248.8 19.3359 1246.08 20.3203C1243.36 21.3046 1241.01 23.0156 1239.05 25.4531C1234.92 30.7031 1232.86 39.3281 1232.86 51.3281C1232.86 55.9218 1233.44 62.2031 1234.62 70.1718C1235.79 78.1407 1236.52 83.3439 1236.8 85.7812L1278.85 85.7812C1279.59 87.2812 1279.97 89.7889 1279.97 93.3042C1279.97 96.8202 1278.61 99.6329 1275.89 101.742C1273.17 103.852 1269.89 104.906 1266.05 104.906L1237.08 104.906L1237.08 142.594C1237.08 147.094 1238.06 150.329 1240.03 152.297C1242.93 155.203 1247.67 158.156 1254.24 161.156C1247.2 164.625 1242.8 167.25 1241.02 169.031C1238.39 171.937 1237.08 175.453 1237.08 179.578L1237.08 222.047C1239.89 228.891 1244.72 232.312 1251.56 232.312C1255.68 232.312 1258.78 231.516 1260.85 229.922C1262.15 231.704 1262.81 233.579 1262.81 235.547C1262.81 237.516 1262.41 239.18 1261.62 240.539C1260.82 241.899 1259.62 243.141 1258.03 244.265C1254.75 246.703 1250.25 247.922 1244.53 247.922C1238.81 247.922 1233.24 246.328 1227.8 243.14C1223.95 246.328 1219.29 247.922 1213.81 247.922C1208.32 247.922 1203.37 246.422 1198.97 243.422L1198.97 243.422L1198.97 243.422ZM159.539 247.922C165.023 247.922 169.921 246.422 174.234 243.422C178.641 246.422 183.469 247.922 188.719 247.922C193.969 247.922 198.516 246.516 202.359 243.703C206.016 246.516 210.141 247.922 214.734 247.922C219.328 247.922 222.984 246.75 225.703 244.406C228.422 242.062 229.781 239.273 229.781 236.039C229.781 232.805 229.078 230.578 227.672 229.359C225.515 231.047 223.359 231.89 221.203 231.89C217.078 231.89 214.125 229.594 212.344 225L212.344 134.015C212.719 130.265 213.515 126.797 214.734 123.609C218.578 113.297 225.375 108.14 235.125 108.14C238.406 108.14 241.453 108.609 244.265 109.547C253.172 112.359 257.625 122.906 257.625 141.187L257.625 225C255.844 229.594 252.89 231.89 248.765 231.89C246.609 231.89 244.453 231.047 242.297 229.359C240.89 230.578 240.187 232.219 240.187 234.281C240.187 238.687 241.546 242.062 244.265 244.406C246.984 246.75 250.617 247.922 255.164 247.922C259.711 247.922 263.812 246.516 267.469 243.703C271.406 246.516 276.023 247.922 281.32 247.922C286.617 247.922 291.375 246.422 295.594 243.422C300.188 246.422 305.203 247.922 310.64 247.922C316.078 247.922 320.039 246.633 322.523 244.054C325.008 241.476 326.25 238.828 326.25 236.109C326.25 233.391 325.734 231.328 324.703 229.922C322.641 231.516 320.015 232.312 316.828 232.312C310.828 232.312 306.937 229.406 305.156 223.594L305.156 179.578C305.156 175.453 306.469 171.937 309.094 169.031C310.781 167.157 315.188 164.485 322.312 161.015C315.75 158.015 311.016 155.062 308.109 152.156C306.141 150.188 305.156 147 305.156 142.594L305.156 133.172C305.156 124.734 304.125 117.187 302.062 110.531C295.594 89.6252 280.547 79.1722 256.922 79.1722C236.297 79.1722 221.437 87.6565 212.344 104.625L212.344 35.2968C212.344 25.1718 207.516 20.1093 197.859 20.1093C191.39 20.1093 185.578 23.3437 180.422 29.8125C176.672 28.9687 171.422 28.5468 164.672 28.5468C157.922 28.5468 152.297 30.1406 147.797 33.3281C145.828 34.8281 144.352 36.4688 143.367 38.25C142.382 40.0312 141.89 41.8827 141.89 43.8046C141.89 45.7266 142.546 47.5781 143.859 49.3593C145.922 47.7656 148.547 46.9687 151.734 46.9687C160.453 46.9687 164.812 52.3125 164.812 63L164.812 142.594C164.812 147.094 163.265 150.891 160.172 153.984C158.391 155.766 154.219 158.156 147.656 161.156C155.156 164.812 159.984 167.765 162.14 170.015C163.921 171.703 164.812 174.891 164.812 179.578L164.812 222.89C162.469 229.172 158.578 232.312 153.14 232.312C149.953 232.312 147.328 231.516 145.265 229.922C143.953 231.704 143.297 234.141 143.297 237.234C143.297 239.484 144.633 241.828 147.305 244.265C149.976 246.703 154.054 247.922 159.539 247.922L159.539 247.922L159.539 247.922ZM577.547 232.453C582.89 242.766 590.343 247.922 599.906 247.922C603.937 247.922 607.969 246.422 612 243.422C616.593 246.422 621.562 247.922 626.906 247.922C632.25 247.922 636.258 246.703 638.93 244.265C641.601 241.828 642.937 239.273 642.937 236.601C642.937 233.93 642.281 231.704 640.969 229.922C638.906 231.516 636.281 232.312 633.094 232.312C628.031 232.312 624.141 228.797 621.422 221.765L621.422 179.578C621.422 173.91 625.042 168.864 632.281 164.442C636.053 166.75 638.902 169.123 640.828 171.562C642.515 173.719 643.453 176.86 643.64 180.984C644.859 202.078 650.438 218.391 660.375 229.922C671.25 242.391 686.531 248.625 706.219 248.625C709.406 248.625 712.641 248.297 715.922 247.64C727.078 245.203 735.984 240.141 742.64 232.453C747.984 242.766 755.437 247.922 765 247.922C769.031 247.922 773.063 246.422 777.094 243.422C781.687 246.422 786.656 247.922 792 247.922C797.343 247.922 801.351 246.703 804.023 244.265C806.695 241.828 808.031 239.273 808.031 236.601C808.031 233.93 807.375 231.704 806.062 229.922C804 231.516 801.375 232.312 798.187 232.312C793.125 232.312 789.234 228.797 786.515 221.765L786.515 179.578C786.515 172.453 792.234 166.312 803.672 161.156C792.234 155.906 786.515 149.719 786.515 142.594L786.515 35.2968C786.515 25.1718 781.687 20.1093 772.031 20.1093C765.562 20.1093 759.75 23.3437 754.594 29.8125C750.844 28.9687 745.594 28.5468 738.844 28.5468C732.094 28.5468 726.516 30.1406 722.109 33.3281C720.046 34.8281 718.523 36.4688 717.539 38.25C716.554 40.0312 716.062 41.8827 716.062 43.8046C716.062 45.7266 716.718 47.5781 718.031 49.3593C720.094 47.7656 722.719 46.9687 725.906 46.9687C734.625 46.9687 738.984 52.3125 738.984 63L738.984 93.2342C737.203 90.8909 735.046 88.8286 732.515 87.0472C725.015 81.7972 716.156 79.1722 705.937 79.1722C687.281 79.1722 672.75 83.6722 662.344 92.6722C656.906 97.4536 652.57 103.571 649.336 111.023C646.101 118.477 644.25 127.453 643.781 137.953C643.406 146.357 639.638 153.019 632.477 157.939C625.107 153.429 621.422 148.314 621.422 142.594L621.422 35.2968C621.422 25.1718 616.594 20.1093 606.937 20.1093C600.468 20.1093 594.656 23.3437 589.5 29.8125C585.75 28.9687 580.5 28.5468 573.75 28.5468C567 28.5468 561.422 30.1406 557.015 33.3281C554.953 34.8281 553.43 36.4688 552.445 38.25C551.461 40.0312 550.969 41.8827 550.969 43.8046C550.969 45.7266 551.625 47.5781 552.937 49.3593C555 47.7656 557.625 46.9687 560.812 46.9687C569.531 46.9687 573.89 52.3125 573.89 63L573.89 93.2342C572.109 90.8909 569.953 88.8286 567.422 87.0472C559.922 81.7972 551.063 79.1722 540.844 79.1722C522.187 79.1722 507.656 83.6722 497.25 92.6722C491.813 97.4536 487.477 103.571 484.242 111.023C481.007 118.477 479.156 127.453 478.687 137.953C478.29 146.837 474.102 153.774 466.123 158.765C463.352 157.334 461.235 155.694 459.773 153.844C457.476 150.938 456.328 147.188 456.328 142.594L456.328 131.203C456.328 122.109 455.156 114.234 452.812 107.578C445.687 87.7029 425.953 77.7652 393.609 77.7652C374.109 77.7652 358.078 82.2186 345.515 91.1252C335.109 98.5312 329.344 105.844 328.219 113.062C327.188 118.969 324.328 123.328 319.64 126.14C320.953 128.297 322.711 129.985 324.914 131.203C327.117 132.422 329.133 133.031 330.961 133.031C332.789 133.031 334.406 132.844 335.812 132.469C338.906 138.281 343.219 141.234 348.75 141.328C354.281 141.422 358.219 139.688 360.562 136.125C358.312 135.469 357.187 133.922 357.187 131.484L357.187 131.062C358.968 131.719 360.797 132.047 362.672 132.047C369.047 132.047 372.984 128.391 374.484 121.078C370.641 121.174 367.782 120.285 365.908 118.411C364.125 116.629 363.234 113.956 363.234 110.39C363.234 105.61 365.086 101.789 368.789 98.9292C372.492 96.0699 378.211 94.6402 385.945 94.6402C393.68 94.6402 399.445 96.7966 403.242 101.109C407.039 105.422 408.937 112.219 408.937 121.5L408.937 142.594C405.281 146.625 400.219 149.39 393.75 150.89C390.281 151.734 386.297 152.344 381.797 152.719C377.297 153.094 370.359 153.399 360.984 153.633C351.609 153.867 343.031 156.094 335.25 160.312C328.031 164.344 322.875 170.859 319.781 179.859C316.875 188.391 312.047 194.203 305.297 197.297C308.766 198.985 311.672 200.883 314.015 202.992C316.359 205.102 318 208.125 318.937 212.062C320.625 218.625 323.719 224.578 328.219 229.922C338.625 242.391 354.234 248.625 375.047 248.625C392.109 248.625 404.906 243 413.437 231.75C414.468 237.094 417.187 241.219 421.594 244.125C423.563 245.438 425.695 246.399 427.992 247.008C430.289 247.618 433.007 247.922 436.148 247.922C439.289 247.922 442.875 246.422 446.906 243.422C451.5 246.422 456.469 247.922 461.812 247.922C467.156 247.922 471.164 246.703 473.836 244.265C476.508 241.828 477.844 239.273 477.844 236.601C477.844 233.93 477.188 231.704 475.875 229.922C473.812 231.516 471.187 232.312 468 232.312C462.937 232.312 459.047 228.797 456.328 221.765L456.328 179.578C456.328 175.36 457.594 171.61 460.125 168.328C461.22 166.93 463.202 165.413 466.071 163.777C470.402 166.293 473.623 168.888 475.734 171.562C477.421 173.719 478.359 176.86 478.547 180.984C479.766 202.078 485.344 218.391 495.281 229.922C506.156 242.391 521.438 248.625 541.125 248.625C544.312 248.625 547.547 248.297 550.828 247.64C561.984 245.203 570.89 240.141 577.547 232.453L577.547 232.453L577.547 232.453ZM12.656 250.875C19.406 250.875 26.531 247.125 34.031 239.625C45.8437 246.094 59.7657 249.328 75.797 249.328C98.5783 249.328 117.094 242.953 131.344 230.203C137.813 224.485 142.734 217.922 146.109 210.515C149.484 203.109 151.172 194.25 151.172 183.937C151.172 173.625 148.594 164.016 143.437 155.109C137.531 144.891 125.812 132.188 108.281 117C106.312 115.406 105.328 113.625 105.328 111.656C105.328 110.438 105.609 108.516 106.172 105.89L108 98.0152C104.813 100.078 101.531 101.672 98.156 102.797C96.562 103.266 95.109 103.641 93.797 103.922C92.4843 104.204 91.1717 104.344 89.859 104.344C88.5464 104.344 86.015 103.172 82.265 100.828L75.515 96.3282C66.9843 90.6095 60.75 85.0782 56.812 79.7342C54.562 76.6409 53.437 72.7972 53.437 68.2031C53.437 62.1094 55.687 56.9062 60.187 52.5937C64.9683 48 71.109 45.7031 78.609 45.7031C90.4217 45.7031 99.9843 49.1718 107.297 56.1093C110.766 59.4843 113.461 63.4452 115.383 67.9921C117.304 72.5388 118.265 76.9685 118.265 81.2812C118.265 85.5939 117.468 89.6252 115.875 93.3752C118.5 94.6879 121.734 95.3442 125.578 95.3442C128.015 95.3442 130.593 93.8909 133.312 90.9842C134.531 89.6715 135.492 88.1012 136.195 86.2732C136.898 84.4452 137.25 82.5235 137.25 80.5082C137.25 78.4922 136.875 76.2185 136.125 73.6872C140.062 69.7499 142.031 64.875 142.031 59.0625C142.031 53.1562 140.437 48.7968 137.25 45.9843C139.5 43.9218 140.625 40.8984 140.625 36.914C140.625 32.9297 139.359 29.3437 136.828 26.1562C135.703 24.7499 134.437 23.6484 133.031 22.8515C131.625 22.0546 130.336 21.6562 129.164 21.6562C127.992 21.6562 127.078 21.7968 126.422 22.0781C126.797 23.0156 126.984 24.1874 126.984 25.5937C126.984 27 126.375 28.5937 125.156 30.375C123.843 32.0625 122.32 33.0234 120.586 33.2578C118.851 33.4921 116.906 33.6093 114.75 33.6093C109.593 33.6093 105 32.8124 100.969 31.2187C91.4997 27.5625 81.0934 25.7344 69.75 25.7343C51.0933 25.7343 35.7183 30.8906 23.625 41.2031C17.8123 46.0781 13.242 52.0078 9.914 58.9921C6.586 65.9765 4.922 72.8672 4.922 79.6642C4.922 86.4609 5.43767 92.1092 6.46901 96.6092C9.46901 109.547 19.172 123.562 35.578 138.656L40.781 143.297C42.5623 144.797 43.453 146.016 43.453 146.953C43.453 151.078 42.656 155.531 41.062 160.312C47.062 156.281 52.5463 154.265 57.515 154.265C62.3903 154.265 68.906 157.125 77.062 162.844C87.656 170.156 95.4373 177.094 100.406 183.656C103.593 187.875 105.187 193.359 105.187 200.109C105.187 209.672 101.812 217.219 95.062 222.75C88.7807 227.906 81.14 230.484 72.14 230.484C58.734 230.484 47.7187 226.078 39.094 217.265C35.0627 213.235 31.9453 208.407 29.742 202.781C27.5387 197.157 26.437 190.547 26.437 182.953C26.437 175.359 28.1247 169.781 31.5 166.219C29.906 163.219 27.2107 161.719 23.414 161.719C19.6173 161.719 15.75 164.297 11.812 169.453C9.93733 171.797 8.461 174.539 7.383 177.679C6.30434 180.82 5.765 184.195 5.765 187.804C5.765 191.414 6.562 194.813 8.15601 198C2.71867 204 0 209.883 0 215.648C0 221.414 2.34367 226.407 7.03101 230.625C7.125 231.094 7.172 231.61 7.172 232.172L7.172 234.281C7.172 239.531 6.09366 243.469 3.937 246.094C5.437 249.282 8.34334 250.875 12.656 250.875L12.656 250.875L12.656 250.875ZM1398.66 196.734C1393.12 196.734 1389.33 198.703 1387.27 202.64C1387.73 204.516 1387.97 206.203 1387.97 207.703C1387.97 214.078 1385.11 219.234 1379.39 223.172C1373.29 227.297 1365.23 229.359 1355.21 229.359C1345.73 229.359 1337.9 226.313 1331.72 220.219C1325.16 213.844 1321.88 205.219 1321.88 194.344L1321.88 180.844L1401.19 168.187C1404.37 167.719 1406.72 167.344 1408.22 167.062C1414.22 166.031 1417.22 162.703 1417.22 157.078C1417.22 154.641 1416.37 152.344 1414.69 150.187C1413.37 150 1412.62 149.297 1412.44 148.078C1412.34 147.516 1412.32 146.906 1412.37 146.25C1412.41 145.594 1412.44 144.937 1412.44 144.281C1412.44 125.437 1405.69 109.547 1392.19 96.6093C1379.15 84.0466 1363.73 77.7653 1345.92 77.7653C1328.76 77.7653 1313.25 83.3903 1299.38 94.6403C1285.03 106.266 1276.69 120.328 1274.35 136.828C1273.97 139.078 1273.45 141.328 1272.8 143.578C1270.54 151.641 1265.34 157.5 1257.19 161.156C1263.65 164.344 1268.29 167.672 1271.11 171.14C1272.61 173.11 1273.69 176.391 1274.35 180.984C1277.06 201.61 1284.56 217.828 1296.85 229.64C1303.13 235.64 1310.65 240.305 1319.42 243.633C1328.18 246.961 1337.57 248.625 1347.61 248.625C1357.64 248.625 1367.3 247.078 1376.58 243.984C1381.08 242.484 1385.32 240.609 1389.31 238.359C1393.29 236.109 1396.82 233.531 1399.92 230.625C1403.01 227.719 1405.45 224.484 1407.24 220.922C1409.02 217.36 1409.91 213.82 1409.91 210.304C1409.91 206.789 1409.06 203.813 1407.38 201.375C1405.31 198.281 1402.4 196.734 1398.66 196.734L1398.66 196.734L1398.66 196.734ZM1362.66 117.844L1362.66 157.219L1321.88 163.828L1321.88 131.344C1321.88 119.25 1324.03 110.344 1328.35 104.625C1330.41 101.906 1332.84 99.9141 1335.66 98.6481C1338.47 97.3828 1341.99 96.7501 1346.21 96.7501C1350.42 96.7501 1354.68 99.2345 1359 104.203C1361.44 107.109 1362.66 111.656 1362.66 117.844L1362.66 117.844L1362.66 117.844ZM526.078 132.75C526.078 110.719 533.578 99.7032 548.578 99.7032C551.859 99.7032 555.047 100.266 558.14 101.39C568.64 105.047 573.89 115.5 573.89 132.75L573.89 204.75C573.89 211.125 571.875 216.609 567.844 221.203C565.969 223.266 563.742 224.93 561.164 226.195C558.586 227.461 555.727 228.094 552.586 228.094C549.445 228.094 546.281 227.485 543.094 226.265C531.75 222.141 526.078 211.5 526.078 194.344L526.078 132.75L526.078 132.75L526.078 132.75ZM713.672 99.7032C698.672 99.7032 691.172 110.719 691.172 132.75L691.172 194.344C691.172 211.5 696.844 222.141 708.187 226.265C711.375 227.485 714.539 228.094 717.68 228.094C720.82 228.094 723.679 227.461 726.258 226.195C728.836 224.93 731.062 223.266 732.937 221.203C736.968 216.609 738.984 211.125 738.984 204.75L738.984 132.75C738.984 115.5 733.734 105.047 723.234 101.39C720.141 100.266 716.953 99.7032 713.672 99.7032L713.672 99.7032L713.672 99.7032ZM370.406 197.859C370.406 201.796 370.828 205.64 371.672 209.39C372.515 213.14 373.781 216.421 375.469 219.234C379.219 225.141 384.516 228.094 391.359 228.094C396.516 228.094 400.781 225.984 404.156 221.765C407.343 217.64 408.937 212.344 408.937 205.875L408.937 160.031C402.937 163.5 395.25 165.89 385.875 167.203C375.562 168.797 370.406 179.016 370.406 197.859L370.406 197.859L370.406 197.859ZM854.998 209.39C854.158 205.64 853.738 201.796 853.738 197.859C853.738 179.016 858.895 168.797 869.208 167.203C878.581 165.89 886.268 163.5 892.268 160.031L892.268 205.875C892.268 212.344 890.675 217.64 887.488 221.765C884.108 225.984 879.841 228.094 874.688 228.094C867.841 228.094 862.545 225.141 858.798 219.234C857.111 216.421 855.845 213.14 854.998 209.39L854.998 209.39L854.998 209.39ZM949.638 229.922C950.991 230.967 952.585 231.669 954.418 232.029C956.258 231.669 957.855 230.967 959.208 229.922C959.675 230.556 960.058 231.247 960.358 231.994C964.331 231.052 967.275 228.018 969.188 222.89L969.188 179.578C969.188 175.453 968.345 172.453 966.658 170.578C964.098 167.932 959.628 164.994 953.248 161.766C948.248 164.185 944.985 166.372 943.458 168.328C940.925 171.61 939.658 175.36 939.658 179.578L939.658 221.765C941.851 227.449 944.815 230.835 948.548 231.925C948.841 231.185 949.205 230.517 949.638 229.922L949.638 229.922L949.638 229.922Z" id="path_2" fill="#AE1B22" fill-rule="evenodd" stroke="none" />
              </g>
            </g>
          </g>
        </g>
        <g id="records" transform="translate(939.6936 542.9916)" filter="url(#filter_1)">
          <path d="M219.202 53.4929L229.687 64.0845C221.984 72.3224 213.425 77.4577 198.982 77.4577C176.943 77.4577 160.574 60.447 160.574 38.9429L160.574 38.7289C160.574 17.4387 176.622 0 199.624 0C213.746 0 222.198 4.7074 229.152 11.5545L218.667 23.6439C212.89 18.4016 207.006 15.192 199.517 15.192C186.892 15.192 177.799 25.6766 177.799 38.5149L177.799 38.7289C177.799 51.5672 186.678 62.2658 199.517 62.2658C208.076 62.2658 213.318 58.8422 219.202 53.4929L219.202 53.4929L219.202 53.4929ZM326.556 38.7289L326.556 38.5149C326.556 17.2247 309.974 0 286.865 0C263.756 0 246.959 17.4387 246.959 38.7289L246.959 38.9429C246.959 60.233 263.542 77.4577 286.651 77.4577C309.76 77.4577 326.556 60.0191 326.556 38.7289L326.556 38.7289L326.556 38.7289ZM578.651 53.814L578.651 54.0279C578.651 68.899 567.31 77.2439 551.155 77.2439C539.815 77.2439 528.367 73.2854 519.38 65.2614L529.116 53.6C535.856 59.1633 542.917 62.6938 551.476 62.6938C558.216 62.6938 562.282 60.0191 562.282 55.6327L562.282 55.4187C562.282 51.2463 559.714 49.1066 547.197 45.897C532.112 42.0455 522.376 37.8731 522.376 23.002L522.376 22.7881C522.376 9.20087 533.289 0.21405 548.588 0.21405C559.5 0.21405 568.808 3.63757 576.404 9.73578L567.845 22.1461C561.212 17.5458 554.686 14.7641 548.374 14.7641C542.061 14.7641 538.745 17.6527 538.745 21.2903L538.745 21.5042C538.745 26.4256 541.954 28.0304 554.9 31.3469C570.092 35.3054 578.651 40.7617 578.651 53.814L578.651 53.814L578.651 53.814ZM64.7264 76.174L46.4318 49.4275C55.9536 45.897 62.4797 38.301 62.4797 26.2116L62.4797 25.9976C62.4797 10.5916 51.8881 1.28387 34.2355 1.28387L0 1.28387L0 76.174L16.4758 76.174L16.4758 52.2091L29.4211 52.2091L45.469 76.174L64.7264 76.174L64.7264 76.174L64.7264 76.174ZM141.804 76.174L141.804 61.5169L101.149 61.5169L101.149 45.79L136.454 45.79L136.454 31.1329L101.149 31.1329L101.149 15.9409L141.269 15.9409L141.269 1.28387L84.7803 1.28387L84.7803 76.174L141.804 76.174L141.804 76.174L141.804 76.174ZM395.075 49.4275L413.369 76.174L394.112 76.174L378.064 52.2091L365.119 52.2091L365.119 76.174L348.643 76.174L348.643 1.28387L382.878 1.28387C400.531 1.28387 411.123 10.5916 411.123 25.9976L411.123 26.2116C411.123 38.301 404.597 45.897 395.075 49.4275L395.075 49.4275L395.075 49.4275ZM502.429 38.7289L502.429 38.5149C502.429 17.4387 486.167 1.28387 462.63 1.28387L433.423 1.28387L433.423 76.174L462.63 76.174C486.167 76.174 502.429 59.8051 502.429 38.7289L502.429 38.7289L502.429 38.7289ZM309.332 38.9429C309.332 51.7812 300.131 62.2658 286.865 62.2658C273.598 62.2658 264.184 51.5672 264.184 38.7289L264.184 38.5149C264.184 25.6766 273.384 15.192 286.651 15.192C299.917 15.192 309.332 25.8906 309.332 38.7289L309.332 38.9429L309.332 38.9429L309.332 38.9429ZM45.7899 27.0673C45.7899 33.3795 41.1895 37.6589 33.1656 37.6589L16.4758 37.6589L16.4758 16.1548L32.8447 16.1548C40.8687 16.1548 45.7899 19.7923 45.7899 26.8534L45.7899 27.0673L45.7899 27.0673L45.7899 27.0673ZM381.809 37.6589C389.833 37.6589 394.433 33.3795 394.433 27.0673L394.433 26.8534C394.433 19.7923 389.512 16.1548 381.488 16.1548L365.119 16.1548L365.119 37.6589L381.809 37.6589L381.809 37.6589L381.809 37.6589ZM485.204 38.9428C485.204 52.209 476.11 61.3028 462.63 61.3028L449.899 61.3028L449.899 16.1548L462.63 16.1548C476.11 16.1548 485.204 25.4626 485.204 38.7288L485.204 38.9428L485.204 38.9428L485.204 38.9428Z" id="Shape#2" fill="#000000" fill-rule="evenodd" stroke="none" />
        </g>
      </g>
    </g>
  </g>
</svg>