<?xml version="1.0" encoding="utf-8"?>
<svg width="1113px" height="345px" viewBox="0 0 1113 345" version="1.1" xmlns:xlink="http://www.w3.org/1999/xlink" xmlns="http://www.w3.org/2000/svg">
  <g id="shaddalyfe" fill="#FFFFFF">
    <path d="M95.616 226.644Q97.92 217.572 101.664 208.068Q94.752 205.188 85.0095 195.972Q77.5665 189.348 70.6973 183.444Q63.828 177.54 58.3898 170.916Q52.9515 164.292 49.6598 156.228Q46.368 148.164 46.08 136.932Q45.504 123.108 48.0555 117.204Q50.607 111.3 53.721 111.012Q58.2525 111.012 60.3743 113.892Q62.496 116.772 62.496 124.548Q62.496 140.1 57.888 149.028Q64.224 152.484 69.984 158.388Q75.744 164.292 78.336 171.492Q84.384 155.94 99.072 149.028Q97.056 143.556 95.472 137.508Q93.888 131.46 93.888 124.548Q94.176 117.348 95.76 113.172Q97.344 108.996 99.648 105.54Q91.008 104.388 83.664 99.924Q76.32 95.46 70.704 89.7Q65.088 83.94 61.344 77.748Q57.6 71.556 55.872 67.236L54.432 67.236Q52.992 71.556 50.688 77.028Q48.384 82.5 43.488 87.684Q38.592 92.868 30.384 97.62Q22.176 102.372 8.64 105.54Q12.384 111.876 14.256 118.644Q16.128 125.412 16.128 134.916Q16.128 154.5 8.928 174.948Q14.112 177.252 19.44 180.276Q24.768 183.3 30.528 187.62Q34.848 190.788 39.744 194.964Q44.64 199.14 48.96 203.892Q53.28 208.644 56.88 213.828Q60.48 219.012 62.208 224.196Q63.648 228.228 63.936 233.556Q64.224 238.884 64.224 246.372Q64.224 265.812 57.3653 268.644Q56.095 269.169 54.5895 269.124Q51.471 269.124 49.0635 264.228Q46.656 259.332 46.656 250.116Q46.656 241.476 48.384 235.86Q50.112 230.244 52.128 227.94Q36.7695 219.876 29.7945 203.748Q25.7265 212.1 21.366 217.716Q17.0055 223.332 8.64 227.94Q15.264 235.716 15.264 250.692Q15.264 264.228 8.64 276.612Q17.28 280.068 24.336 283.668Q31.392 287.268 36.864 291.588Q42.336 295.908 46.224 301.38Q50.112 306.852 52.416 314.34L54.72 314.34Q59.616 300.516 71.136 291.732Q82.656 282.948 100.224 276.612Q97.056 267.396 95.184 259.332Q93.312 251.268 93.312 244.644Q93.312 235.716 95.616 226.644ZM202.032 294.18Q208.224 283.812 220.608 276.612Q211.68 270.852 211.68 255.876L211.68 124.26Q211.68 111.012 220.608 105.252Q208.8 98.916 204.192 89.268Q199.584 79.62 196.704 67.236L195.264 67.236Q193.824 72.708 191.952 78.468Q190.08 84.228 187.344 89.412Q184.608 94.596 180.576 98.772Q176.544 102.948 170.496 105.252Q176.832 107.844 176.832 120.516L176.832 173.796Q176.832 177.252 175.536 180.852Q174.24 184.452 169.92 185.028Q162.432 184.164 162.432 174.948L162.432 120.516Q162.432 113.892 163.008 111.012Q163.584 108.132 167.328 105.252Q161.856 101.796 158.256 97.908Q154.656 94.02 152.208 89.412Q149.76 84.804 148.176 79.332Q146.592 73.86 145.152 67.236L143.712 67.236Q140.832 79.908 134.352 90.564Q127.872 101.22 116.352 105.252Q121.824 108.42 124.848 113.46Q127.872 118.5 127.872 123.684L127.872 252.42Q127.872 260.196 125.856 265.956Q123.552 271.716 115.776 276.612Q126.144 281.796 132.768 290.868Q139.392 299.94 141.696 314.628L143.136 314.628Q144 310.02 145.44 304.692Q146.88 299.364 149.616 294.18Q152.352 288.996 156.528 284.388Q160.704 279.78 167.328 276.612Q162.432 274.02 162.432 258.756L162.432 209.796Q162.432 206.628 164.448 204.18Q166.464 201.732 169.92 201.732Q173.376 201.732 175.104 204.18Q176.832 206.628 176.832 209.796L176.832 258.18Q176.832 273.156 170.496 276.612Q180.576 282.66 185.904 292.596Q191.232 302.532 192.384 314.628L193.536 314.628Q195.84 304.548 202.032 294.18ZM315.792 294.468Q311.04 305.412 309.312 314.34L307.872 314.34Q307.008 310.596 305.424 305.556Q303.84 300.516 301.248 295.044Q298.656 289.572 295.056 284.532Q291.456 279.492 286.56 276.036Q290.016 270.564 290.736 264.372Q291.456 258.18 290.016 252.996Q288.576 248.964 285.84 244.644Q283.104 240.324 278.208 240.324Q274.752 240.324 272.592 242.34Q270.432 244.356 269.136 247.092Q267.84 249.828 267.408 253.14Q266.976 256.452 266.976 259.044Q267.264 262.788 268.272 267.396Q269.28 272.004 271.584 276.036Q264.096 282.66 258.912 293.028Q253.728 303.396 251.712 314.34L250.272 314.34Q246.24 285.54 232.416 276.036Q236.16 272.004 238.176 267.108Q240.192 262.212 240.768 257.316L255.168 134.052Q255.168 130.884 254.592 126.852Q254.016 122.82 253.008 118.788Q252 114.756 250.272 111.3Q248.544 107.844 245.952 105.54Q259.776 98.916 268.272 90.276Q276.768 81.636 281.952 67.236L283.104 67.236Q288 82.5 296.496 91.428Q304.992 100.356 317.952 105.252Q313.92 110.436 312.768 116.772Q311.616 123.108 312.192 128.868L323.712 255.876Q323.712 259.62 325.728 266.1Q327.744 272.58 331.488 276.036Q320.544 283.524 315.792 294.468ZM423.648 288.708Q427.68 271.716 446.112 266.532Q441.216 261.636 439.344 256.884Q437.472 252.132 437.472 245.22L437.472 136.356Q437.472 126.564 443.52 119.652Q442.368 119.652 440.928 118.212Q439.488 116.772 438.048 115.044Q436.608 113.316 435.456 111.444Q434.304 109.572 434.016 108.708Q431.136 103.524 431.424 99.204Q431.712 94.884 433.152 89.124Q426.816 93.444 420.48 96.612Q414.144 99.78 407.52 99.78Q396 99.78 388.944 92.148Q381.888 84.516 376.128 67.236L374.688 67.236Q372.672 80.196 364.176 89.556Q355.68 98.916 342.72 105.252Q352.224 114.468 352.224 134.052L352.224 248.1Q352.224 255.588 350.064 262.788Q347.904 269.988 341.856 276.612Q349.056 278.628 353.952 282.228Q358.848 285.828 362.16 290.724Q365.472 295.62 367.776 301.668Q370.08 307.716 372.096 314.34L373.536 314.34Q378.432 298.788 384.768 291.156Q391.104 283.524 402.624 283.524Q407.808 283.524 413.28 284.964Q418.752 286.404 423.648 288.708ZM561.024 266.532Q542.592 271.716 538.56 288.708Q533.664 286.404 528.192 284.964Q522.72 283.524 517.536 283.524Q506.016 283.524 499.68 291.156Q493.344 298.788 488.448 314.34L487.008 314.34Q484.992 307.716 482.688 301.668Q480.384 295.62 477.072 290.724Q473.76 285.828 468.864 282.228Q463.968 278.628 456.768 276.612Q462.816 269.988 464.976 262.788Q467.136 255.588 467.136 248.1L467.136 134.052Q467.136 114.468 457.632 105.252Q470.592 98.916 479.088 89.556Q487.584 80.196 489.6 67.236L491.04 67.236Q496.8 84.516 503.856 92.148Q510.912 99.78 522.432 99.78Q529.056 99.78 535.392 96.612Q541.728 93.444 548.064 89.124Q546.624 94.884 546.336 99.204Q546.048 103.524 548.928 108.708Q549.216 109.572 550.368 111.444Q551.52 113.316 552.96 115.044Q554.4 116.772 555.84 118.212Q557.28 119.652 558.432 119.652Q552.384 126.564 552.384 136.356L552.384 245.22Q552.384 252.132 554.256 256.884Q556.128 261.636 561.024 266.532ZM647.136 314.34Q648.864 305.412 653.616 294.468Q658.368 283.524 669.312 276.036Q665.568 272.58 663.552 266.1Q661.536 259.62 661.536 255.876L650.016 128.868Q649.44 123.108 650.592 116.772Q651.744 110.436 655.776 105.252Q642.816 100.356 634.32 91.428Q625.824 82.5 620.928 67.236L619.776 67.236Q614.592 81.636 606.096 90.276Q597.6 98.916 583.776 105.54Q586.368 107.844 588.096 111.3Q589.824 114.756 590.832 118.788Q591.84 122.82 592.416 126.852Q592.992 130.884 592.992 134.052L578.592 257.316Q578.016 262.212 576 267.108Q573.984 272.004 570.24 276.036Q584.064 285.54 588.096 314.34L589.536 314.34Q591.552 303.396 596.736 293.028Q601.92 282.66 609.408 276.036Q607.104 272.004 606.096 267.396Q605.088 262.788 604.8 259.044Q604.8 256.452 605.232 253.14Q605.664 249.828 606.96 247.092Q608.256 244.356 610.416 242.34Q612.576 240.324 616.032 240.324Q620.928 240.324 623.664 244.644Q626.4 248.964 627.84 252.996Q629.28 258.18 628.56 264.372Q627.84 270.564 624.384 276.036Q629.28 279.492 632.88 284.532Q636.48 289.572 639.072 295.044Q641.664 300.516 643.248 305.556Q644.832 310.596 645.696 314.34L647.136 314.34ZM782.208 288.708Q771.264 286.404 760.608 285.972Q749.952 285.54 742.464 290.148Q735.552 294.468 730.224 301.812Q724.896 309.156 722.592 314.34L721.152 314.34Q717.984 301.668 707.616 290.148Q702.72 285.252 696.24 281.94Q689.76 278.628 682.272 276.612Q692.064 267.972 692.064 255.012L692.064 124.548Q692.064 114.18 680.256 105.54Q691.776 100.932 697.968 90.132Q704.16 79.332 708.192 67.236L709.632 67.236Q711.648 73.284 713.664 78.468Q715.68 83.652 718.704 88.404Q721.728 93.156 726.624 97.476Q731.52 101.796 739.008 106.116Q733.248 109.284 730.368 112.884Q727.488 116.484 727.488 123.108L727.488 257.316Q727.488 269.988 734.688 270.276Q737.28 270.276 739.296 268.26Q741.312 266.244 742.608 263.508Q743.904 260.772 744.624 257.748Q745.344 254.724 745.344 252.708Q745.344 239.748 735.84 226.788Q745.344 220.74 750.096 213.828Q754.848 206.916 758.88 196.548Q760.896 202.596 762.768 206.916Q764.64 211.236 767.232 214.692Q769.824 218.148 773.136 221.028Q776.448 223.908 781.344 226.788Q772.704 235.428 772.704 252.996Q772.704 262.788 774.576 271.428Q776.448 280.068 782.208 288.708ZM890.208 113.892Q894.24 108.708 898.272 105.828Q893.088 102.084 889.344 96.9Q885.6 91.716 883.008 86.388Q880.416 81.06 878.832 75.876Q877.248 70.692 876.384 67.236L874.944 67.236Q872.64 78.18 867.744 88.26Q862.848 98.34 852.768 106.116Q857.088 109.572 858.816 114.468Q860.544 119.364 859.104 124.26L847.296 167.46L845.856 167.46L834.912 124.836Q833.472 119.076 833.616 115.332Q833.76 111.588 838.08 105.828Q833.184 102.372 828.576 97.764Q823.968 93.156 820.368 87.972Q816.768 82.788 814.32 77.46Q811.872 72.132 811.296 67.236L809.856 67.236Q808.128 76.164 802.224 86.964Q796.32 97.764 786.24 105.828Q792.864 110.724 796.752 115.044Q800.64 119.364 802.368 125.124L828 210.372L828 252.132Q828 272.58 820.512 276.612Q830.016 283.812 835.056 293.604Q840.096 303.396 843.552 314.34L844.992 314.34Q846.72 309.156 849.024 303.396Q851.328 297.636 854.496 292.452Q857.664 287.268 861.552 283.236Q865.44 279.204 869.76 276.9Q866.304 274.596 864.72 269.556Q863.136 264.516 863.136 257.316L863.136 196.836L884.448 124.836Q886.176 119.076 890.208 113.892ZM1002.24 94.02Q994.176 119.364 993.6 129.156Q993.888 135.492 996.48 141.396Q999.072 147.3 1001.66 153.06Q989.28 162.564 983.52 177.828Q977.184 161.124 966.24 152.484Q972.288 138.66 972.288 128.004Q972.288 125.988 971.856 123.108Q971.424 120.228 970.272 117.636Q969.12 115.044 967.248 113.316Q965.376 111.588 962.496 111.588Q954.144 111.588 954.144 124.836L954.144 181.86Q954.144 187.332 956.736 187.62Q961.344 187.62 964.8 174.372Q965.952 170.628 966.24 167.748L971.424 180.42Q974.016 186.756 979.488 192.228Q978.048 194.244 975.312 199.14Q972.576 204.036 970.272 208.932Q968.544 212.964 967.68 215.124L966.24 218.724Q965.952 216.996 965.808 214.692Q965.664 212.388 965.088 210.66Q963.648 203.748 961.776 200.868Q959.904 197.988 957.312 197.988Q954.144 197.988 954.144 204.9L954.144 256.452Q954.144 270.852 964.512 277.188Q954.432 283.236 947.376 291.444Q940.32 299.652 936.288 314.34L934.848 314.34Q932.544 302.82 925.488 293.028Q918.432 283.236 906.912 276.612Q912.672 272.868 915.984 265.668Q919.296 258.468 919.296 251.556L919.296 132.324Q919.296 125.988 919.008 121.956Q918.72 117.924 917.424 115.188Q916.128 112.452 913.824 110.148Q911.52 107.844 907.488 105.252Q919.296 99.78 927.072 91.428Q934.848 83.076 938.88 67.236L940.32 67.236Q946.08 81.924 956.304 89.988Q966.528 98.052 982.656 98.052Q986.4 97.764 991.44 96.9Q996.48 96.036 1002.24 94.02ZM1047.46 314.34L1048.9 314.34Q1052.35 306.276 1057.97 299.652Q1063.58 293.028 1071.22 288.708Q1078.85 284.388 1087.92 283.092Q1096.99 281.796 1107.07 284.676Q1104.19 277.476 1101.89 270.132Q1099.58 262.788 1099.3 255.3Q1099.87 247.524 1102.03 240.18Q1104.19 232.836 1106.5 225.924Q1101.31 223.62 1096.85 218.58Q1092.38 213.54 1089.22 205.476Q1087.2 210.66 1085.18 214.26Q1083.17 217.86 1081.73 219.3Q1079.42 221.604 1076.83 223.188Q1074.24 224.772 1071.94 225.924Q1076.83 240.612 1077.26 248.532Q1077.7 256.452 1075.97 260.196Q1074.24 263.94 1071.22 264.516Q1068.19 265.092 1066.46 265.092Q1058.11 265.092 1058.11 250.692L1058.11 202.02Q1058.11 195.108 1061.28 195.108Q1063.87 195.108 1065.74 197.988Q1067.62 200.868 1069.06 207.78Q1069.63 209.508 1069.78 211.812Q1069.92 214.116 1070.21 215.844L1071.65 212.244Q1072.51 210.084 1074.24 206.052Q1076.54 201.156 1079.28 196.26Q1082.02 191.364 1083.46 189.348Q1077.98 183.876 1075.39 177.54L1070.21 164.868Q1069.92 167.748 1068.77 171.492Q1065.31 184.74 1060.7 184.74Q1058.11 184.452 1058.11 178.98L1058.11 124.836Q1058.11 111.588 1066.46 111.588Q1069.34 111.588 1071.22 113.316Q1073.09 115.044 1074.24 117.636Q1075.39 120.228 1075.82 123.108Q1076.26 125.988 1076.26 128.004Q1076.26 138.66 1070.21 152.484Q1081.15 161.124 1087.49 177.828Q1093.25 162.564 1105.63 153.06Q1103.04 147.3 1100.45 141.396Q1097.86 135.492 1097.57 129.156Q1097.86 124.26 1100.02 115.332Q1102.18 106.404 1106.21 93.444Q1100.45 95.748 1095.41 96.756Q1090.37 97.764 1086.62 98.052Q1070.5 98.052 1060.27 89.988Q1050.05 81.924 1044.29 67.236L1042.85 67.236Q1038.82 83.076 1031.04 91.428Q1023.26 99.78 1011.46 105.252Q1015.49 107.844 1017.79 110.148Q1020.1 112.452 1021.39 115.188Q1022.69 117.924 1022.98 121.956Q1023.26 125.988 1023.26 132.324L1023.26 251.556Q1023.26 260.196 1019.95 266.532Q1016.64 272.868 1010.88 276.612Q1016.93 279.78 1022.83 283.236Q1028.74 286.692 1033.63 291.3Q1038.53 295.908 1042.27 301.524Q1046.02 307.14 1047.46 314.34ZM403.2 132.612L403.2 250.692Q403.2 254.724 401.472 259.188Q399.744 263.652 394.848 263.652Q390.816 263.652 388.656 261.492Q386.496 259.332 386.496 251.556L386.496 132.612Q386.496 124.548 388.224 121.524Q389.952 118.5 394.848 118.5Q397.44 118.5 399.168 119.94Q400.896 121.38 401.76 123.54Q402.624 125.7 402.912 128.148Q403.2 130.596 403.2 132.612ZM518.112 250.692L518.112 132.612Q518.112 130.596 517.824 128.148Q517.536 125.7 516.672 123.54Q515.808 121.38 514.08 119.94Q512.352 118.5 509.76 118.5Q504.864 118.5 503.136 121.524Q501.408 124.548 501.408 132.612L501.408 251.556Q501.408 259.332 503.568 261.492Q505.728 263.652 509.76 263.652Q514.656 263.652 516.384 259.188Q518.112 254.724 518.112 250.692ZM280.224 135.492L279.072 135.492L267.84 215.268Q267.84 223.332 271.008 226.5Q274.176 229.668 278.208 229.668Q283.68 229.668 286.704 226.5Q289.728 223.332 289.728 214.98L280.224 135.492ZM616.896 135.492L618.048 135.492L627.552 214.98Q627.552 223.332 624.528 226.5Q621.504 229.668 616.032 229.668Q612 229.668 608.832 226.5Q605.664 223.332 605.664 215.268L616.896 135.492Z" />
  </g>
</svg>