<?xml version="1.0" encoding="utf-8"?>
<svg width="1240px" height="1240px" viewBox="0 0 1240 1240" version="1.1" xmlns:xlink="http://www.w3.org/1999/xlink" xmlns="http://www.w3.org/2000/svg">
  <defs>
    <filter id="filter_1">
      <feColorMatrix in="SourceGraphic" type="matrix" values="0 0 0 0 1 0 0 0 0 1 0 0 0 0 1 0 0 0 1 0" />
    </filter>
  </defs>
  <g id="Logo" filter="url(#filter_1)">
    <path d="M573.937 0L573.937 179.114L536.68 179.114L536.68 0L573.937 0ZM450.893 181.65C438.065 181.65 427.425 178.297 418.97 171.592C410.516 164.887 406.289 154.888 406.289 141.594C406.289 131.566 408.65 123.695 413.373 117.981C418.096 112.267 424.291 108.083 431.958 105.43C439.625 102.778 447.89 101.043 456.752 100.227C468.413 99.0606 476.751 97.8362 481.765 96.5535C486.779 95.2708 489.287 92.4721 489.287 88.1575L489.287 87.6328C489.287 82.0938 487.552 77.8083 484.083 74.7765C480.614 71.7446 475.701 70.2287 469.346 70.2287C462.641 70.2287 457.306 71.6863 453.341 74.6016C449.377 77.5168 446.753 81.2192 445.47 85.7087L411.012 82.9101C413.577 70.666 419.947 60.9582 430.121 53.7866C440.296 46.6151 453.429 43.0293 469.521 43.0293C479.491 43.0293 488.82 44.6035 497.508 47.752C506.195 50.9005 513.206 55.8127 518.541 62.4887C523.876 69.1646 526.544 77.8375 526.544 88.5074L526.544 179.114L491.211 179.114L491.211 160.485L490.161 160.485C486.896 166.724 482.013 171.811 475.512 175.747C469.011 179.682 460.804 181.65 450.893 181.65L450.893 181.65ZM461.565 155.933C469.727 155.933 476.433 153.558 481.68 148.806C486.927 144.054 489.551 138.15 489.551 131.095L489.551 116.84C488.094 117.831 485.834 118.706 482.773 119.464C479.712 120.222 476.447 120.877 472.978 121.431C469.509 121.985 466.404 122.466 463.664 122.874C457.134 123.807 451.871 125.644 447.878 128.384C443.884 131.125 441.887 135.119 441.887 140.366C441.887 145.497 443.738 149.374 447.44 151.998C451.143 154.622 455.851 155.933 461.565 155.933L461.565 155.933ZM345.43 181.737C331.67 181.737 319.805 178.924 309.835 173.298C299.864 167.671 292.197 159.683 286.833 149.334C281.469 138.985 278.787 126.726 278.787 112.558C278.787 98.7399 281.469 86.6125 286.833 76.1758C292.197 65.7392 299.762 57.6056 309.529 51.7751C319.295 45.9446 330.766 43.0293 343.943 43.0293C355.779 43.0293 366.464 45.5364 375.997 50.5507C385.529 55.5649 393.095 63.13 398.692 73.246C404.289 83.3619 407.088 96.0287 407.088 111.246L407.088 121.479L315.607 121.479L315.607 121.566C315.607 131.595 318.347 139.495 323.828 145.268C329.309 151.04 336.713 153.926 346.042 153.926C352.281 153.926 357.674 152.614 362.222 149.99C366.77 147.367 369.977 143.489 371.842 138.358L406.301 140.632C403.677 153.11 397.03 163.08 386.36 170.543C375.69 178.006 362.047 181.737 345.43 181.737L345.43 181.737ZM315.607 98.393L372.018 98.393C371.959 90.4052 369.394 83.8167 364.321 78.6275C359.249 73.4384 352.66 70.8438 344.556 70.8438C336.277 70.8438 329.484 73.5258 324.178 78.8899C318.872 84.254 316.016 90.755 315.607 98.393L315.607 98.393ZM202.357 179.117L202.357 44.7815L238.477 44.7815L238.477 68.2202L239.877 68.2202C242.326 59.8826 246.436 53.571 252.208 49.2856C257.981 45.0001 264.627 42.8574 272.149 42.8574C276.288 42.8574 280.195 43.2947 283.868 44.1693L283.868 77.2283C282.119 76.6453 279.699 76.1643 276.609 75.7853C273.519 75.4063 270.691 75.2168 268.126 75.2168C259.905 75.2168 253.098 77.7968 247.704 82.9568C242.311 88.1169 239.614 94.8365 239.614 103.116L239.614 179.117L202.357 179.117ZM196.943 44.7782L196.943 72.7647L171.668 72.7647L171.668 137.833C171.668 142.964 172.834 146.433 175.166 148.241C177.499 150.048 180.53 150.952 184.262 150.952C186.011 150.952 187.76 150.792 189.509 150.471C191.259 150.15 192.6 149.902 193.533 149.728L199.392 177.452C197.526 178.035 194.903 178.72 191.521 179.507C188.139 180.294 184.029 180.775 179.189 180.95C165.663 181.533 154.803 178.603 146.611 172.161C138.42 165.718 134.353 155.908 134.411 142.731L134.411 72.7647L116.045 72.7647L116.045 44.7782L134.411 44.7782L134.411 12.5938L171.668 12.5938L171.668 44.7782L196.943 44.7782ZM117.718 83.085L83.6097 85.184C82.6768 80.8694 80.3154 77.167 76.5256 74.0768C72.7358 70.9867 67.6049 69.4416 61.133 69.4416C55.3608 69.4416 50.4777 70.6514 46.4838 73.0711C42.4899 75.4907 40.5221 78.7121 40.5804 82.7351C40.5221 85.9419 41.7903 88.6531 44.3848 90.8687C46.9794 93.0844 51.3961 94.8627 57.6347 96.2037L81.948 101.101C107.777 106.407 120.721 118.535 120.779 137.484C120.779 146.288 118.199 154.013 113.039 160.66C107.879 167.307 100.81 172.481 91.8307 176.184C82.8517 179.886 72.5609 181.737 60.9581 181.737C43.175 181.737 29.0068 178.02 18.4536 170.587C7.90035 163.153 1.74916 153.022 0 140.195L36.6448 138.271C37.8109 143.752 40.5076 147.891 44.7347 150.69C48.9618 153.489 54.3988 154.888 61.0456 154.888C67.5758 154.888 72.8378 153.605 76.8317 151.04C80.8256 148.474 82.8517 145.209 82.91 141.244C82.7351 134.598 76.9921 130.137 65.6808 127.863L42.4171 123.228C16.4129 118.039 3.46916 105.241 3.58577 84.8341C3.52747 71.8904 8.70205 61.687 19.1095 54.2239C29.517 46.7608 43.3208 43.0293 60.5208 43.0293C77.4876 43.0293 90.8541 46.6151 100.62 53.7866C110.386 60.9582 116.086 70.7243 117.718 83.085L117.718 83.085Z" transform="translate(0 665.16406)" id="streal" fill="#FFFFFF" fill-rule="evenodd" stroke="none" />
    <path d="M0 620C0 277.583 277.583 0 620 0C962.417 0 1240 277.583 1240 620C1240 962.417 962.417 1240 620 1240L620 1083.92C876.281 1083.53 1083.92 875.652 1083.92 619.279C1083.92 362.666 875.892 154.641 619.279 154.641C362.666 154.641 154.641 362.666 154.641 619.279C154.641 619.52 154.641 619.76 154.641 620L0 620ZM620 1051.27C858.317 1050.48 1051.27 857.047 1051.27 618.546C1051.27 379.56 857.532 185.824 618.546 185.824C379.56 185.824 185.824 379.56 185.824 618.546C185.824 619.031 185.825 619.516 185.827 620L362.755 620C362.754 619.76 362.754 619.521 362.754 619.281C362.754 477.605 477.605 362.754 619.281 362.754C760.957 362.754 875.807 477.605 875.807 619.281C875.807 760.717 761.345 875.419 620 875.807L620 1051.27ZM620 844.894C744.299 844.356 844.896 743.426 844.896 619.001C844.896 494.242 743.759 393.105 619.001 393.105C494.242 393.105 393.105 494.242 393.105 619.001C393.105 619.334 393.106 619.667 393.108 620L585.17 620C585.171 600.046 601.347 583.871 621.3 583.871C641.255 583.871 657.431 600.047 657.431 620.002C657.431 639.956 641.255 656.132 621.3 656.132C620.865 656.132 620.432 656.125 620 656.109L620 844.894Z" id="Disc" fill="#FFFFFF" fill-rule="evenodd" stroke="none" />
  </g>
</svg>