<?xml version="1.0" encoding="utf-8"?>
<svg width="1075px" height="503px" viewBox="0 0 1075 503" version="1.1" xmlns:xlink="http://www.w3.org/1999/xlink" xmlns="http://www.w3.org/2000/svg">
  <g id="Group">
    <g id="MY-LUV-IS-EVERYTHING-I-GIVE-2-Copy" transform="translate(12 8)">
      <g stroke="#000000" stroke-width="15" id="MY-LUV-IS-">
        <path d="M879.266 36.9023Q867.523 33.3164 860.281 33.3164Q843.266 33.3164 831.453 43.2305Q826.18 47.5195 823.297 53.3906Q820.414 59.2617 820.414 65.4492Q820.414 77.9648 831.523 87.8086Q836.094 91.8164 841.367 94.4531Q846.641 97.0898 856.695 100.254Q862.391 102.012 864.922 104.051Q867.453 106.09 867.453 108.902Q867.453 111.926 864.219 113.859Q860.984 115.793 855.781 115.793Q849.734 115.793 844.074 113.191Q838.414 110.59 835.813 106.652Q830.328 98.2852 828.852 96.7383Q826.391 93.9961 823.719 93.9961Q821.047 93.9961 819.289 96.2461Q817.883 98.0039 817.883 101.449Q817.883 108.621 820.59 116.18Q823.297 123.738 826.672 125.988Q831.102 128.871 841.086 131.016Q851.07 133.16 860.07 133.16Q880.25 133.16 892.766 123.457Q905 113.965 905 98.9883Q905 82.043 887.07 73.3242Q882.992 71.3555 868.438 67.0664Q857.68 63.9727 857.68 57.8555Q857.68 54.7617 860.035 52.8633Q862.391 50.9648 866.328 50.9648Q874.484 50.9648 882.922 58.8398Q888.898 64.3945 890.656 65.5195Q892.414 66.6445 895.227 66.6445Q898.602 66.6445 900.957 63.9375Q903.313 61.2305 903.313 57.293Q903.313 50.543 898.074 43.0898Q892.836 35.6367 888.125 35.6367Q886.859 35.6367 885.734 36.0586Q882.219 37.3242 881.516 37.3242Q880.672 37.3242 879.266 36.9023ZM191.539 102.152L183.102 121.066Q180.922 125.848 179.586 127.5Q178.25 129.152 176.633 129.152Q175.086 129.152 173.891 127.816Q173.117 126.973 170.34 121.629Q167.563 116.285 165.734 112.137L156.453 91.2539Q154.555 86.8945 152.445 86.8945Q150.195 86.8945 149.984 90.6211Q149.492 98.918 149.492 105.949Q149.492 113.262 150.195 115.863Q150.688 117.41 151.496 118.113Q152.305 118.816 155.891 120.645Q158.211 121.84 158.211 124.793Q158.211 132.668 138.031 132.668Q121.016 132.668 121.016 125.004Q121.016 123.035 121.895 122.156Q122.773 121.277 126.43 119.52Q128.75 118.465 129.559 116.637Q130.367 114.809 130.93 109.535Q131.563 103.91 132.125 91.0781Q132.688 78.2461 132.688 69.1055Q132.688 57.6445 130.93 53.5664Q130.297 52.1602 129.488 51.457Q128.68 50.7539 126.43 49.6289Q121.438 47.2383 121.438 43.4414Q121.438 40.9805 123.301 38.9414Q125.164 36.9024 128.258 36.0586Q131.352 35.1445 136.52 34.4766Q141.688 33.8086 145.273 33.8086Q154.273 33.8086 158 35.2852Q159.828 35.9883 160.883 37.1836Q161.938 38.3789 163.906 42.1055L178.531 69.0352Q180.922 73.4649 181.836 74.4492Q182.75 75.4336 184.367 75.4336Q185.773 75.4336 186.863 74.3789Q187.953 73.3242 189.43 70.4414L199.344 51.1055Q201.172 47.3789 201.734 46.2539Q205.18 39.2227 208.555 36.9023Q212.844 33.8789 224.164 33.8789Q244.063 33.8789 244.063 42.9492Q244.063 44.9883 243.289 46.2188Q242.516 47.4492 240.125 49.207Q236.891 51.668 236.047 56.3086Q234.43 66.0117 234.43 79.9336Q234.43 97.8633 236.117 111.363Q236.539 114.668 237.418 115.863Q238.297 117.059 241.953 119.449Q244.484 121.137 244.484 123.949Q244.484 128.871 237.945 130.91Q234.57 132.035 230.844 132.387Q227.117 132.738 219.383 132.738Q207.5 132.738 201.664 131.051Q195.195 129.152 195.195 124.582Q195.195 122.895 196.039 121.805Q196.883 120.715 200.398 117.832Q202.227 116.355 202.895 112.137Q203.563 107.918 203.563 97.793Q203.563 92.168 203.035 90.4102Q202.508 88.6523 200.82 88.6523Q198.852 88.6523 197.023 91.3594Q195.195 94.0664 191.539 102.152ZM277.25 33.8086Q291.031 33.8086 298.273 35.2852Q301.578 35.918 303.582 37.7813Q305.586 39.6445 305.586 42.0352Q305.586 43.8633 304.039 45.7617Q301.789 48.6445 301.789 49.9102Q301.789 52.4414 305.797 57.9961Q308.398 61.582 310.719 61.582Q312.195 61.582 313.602 60.4922Q315.008 59.4023 317.258 56.5898Q320 53.1445 320 51.1055Q320 49.8398 319.684 49.207Q319.367 48.5742 317.398 46.1836Q315.992 44.5664 315.992 41.8242Q315.992 33.8789 337.508 33.8789Q349.672 33.8789 353.328 35.0039Q355.648 35.707 357.16 37.6758Q358.672 39.6445 358.672 41.8945Q358.672 44.7773 356.914 46.2539Q355.156 47.7305 350.797 48.5039Q346.789 49.2773 343.836 51.5625Q340.883 53.8477 333.008 62.2852Q323.445 72.6211 321.09 77.5078Q318.734 82.3945 318.734 92.0977Q318.734 100.254 319.367 107.215Q319.719 111.504 320.703 113.156Q321.688 114.809 324.781 116.426Q329.914 119.098 329.914 123.105Q329.914 132.668 301.648 132.668Q290.047 132.668 279.711 130.418Q270.992 128.52 270.992 122.895Q270.992 118.535 276.336 116.637Q280.344 115.23 281.328 113.051Q283.578 108.199 283.578 90.1289Q283.578 84.5039 282.453 81.375Q281.328 78.2461 277.531 73.2539Q269.586 62.918 261.148 54.6211Q257.492 51.0352 254.117 49.7695Q249.336 48.0117 248.352 47.168Q246.383 45.4805 246.383 42.668C246.383 39.5273 248.75 37.2656 253.484 35.8828Q260.586 33.8086 277.25 33.8086ZM671.211 122.402L703.484 57.082Q706.578 50.7539 708.828 49.1367Q710.094 48.2227 714.383 47.7305Q720.43 46.957 720.43 41.7539Q720.43 37.3945 715.824 35.6016Q711.219 33.8086 700.039 33.8086Q677.609 33.8086 677.609 42.1758Q677.609 45.1289 681.266 47.0273Q684.57 48.7148 684.57 51.1055Q684.57 52.3008 683.656 54.5156Q682.742 56.7305 677.188 68.9648Q674.094 75.7852 672.266 78.1055Q670.438 80.4258 668.117 80.4258Q665.727 80.4258 663.828 76.0664L655.039 56.2383Q653.773 53.3555 653.773 51.8086Q653.773 50.1211 656.586 48.2227Q660.242 45.6914 660.242 42.7383Q660.242 38.168 653.492 35.9883Q646.742 33.8086 632.398 33.8086Q618.617 33.8086 611.234 36.7266Q603.852 39.6445 603.852 45.0586Q603.852 49.4883 608.07 50.2617Q611.656 50.8945 613.59 52.8281Q615.523 54.7617 617.914 60.1055L646.672 123.457Q648.43 127.395 649.59 128.906Q650.75 130.418 652.789 131.543Q655.461 133.02 658.836 133.02Q662.914 133.02 665.586 130.734Q668.258 128.449 671.211 122.402ZM788.352 33.8086Q796.367 33.8086 803.469 35.2148Q813.031 37.1133 813.031 43.3008Q813.031 45.3398 812.082 46.3594Q811.133 47.3789 807.266 49.3477Q804.031 50.9648 803.012 56.4492Q801.992 61.9336 801.992 77.8242Q801.992 104.684 803.328 111.082Q803.82 113.121 804.84 114.211Q805.859 115.301 808.391 116.566Q813.031 118.676 813.031 122.684Q813.031 128.309 804.453 130.418Q795.172 132.668 781.742 132.668Q758.82 132.668 758.82 123.949Q758.82 120.785 763.32 118.043Q766.766 115.934 767.398 112.277Q768.734 104.262 768.734 78.2461Q768.734 60.2461 766.906 55.1836Q765.922 52.3008 762.195 49.9805Q759.313 48.082 758.328 46.8164Q757.344 45.5508 757.344 43.582Q757.344 40.5586 760.262 38.7656Q763.18 36.9727 770.563 35.5664Q779.352 33.8086 788.352 33.8086ZM442.695 98.2852L442.695 66.0117Q442.695 56.3086 443.398 53.4258Q444.102 50.543 446.773 49.3477Q451.273 47.4492 452.434 46.3242Q453.594 45.1992 453.594 42.8789Q453.594 37.1836 444.875 35.2852Q438.125 33.8789 424.484 33.8789Q412.32 33.8789 405.078 36.1992Q396.57 38.8711 396.57 44.0039Q396.57 46.2539 398.82 48.0117Q400.086 48.9961 404.727 50.6133Q407.539 51.5273 408.418 53.6016Q409.297 55.6758 409.297 61.3008Q409.367 67.207 409.719 78.8789Q410.07 91.043 410.07 97.5117Q410.07 111.434 409.156 114.316Q408.031 117.762 404.023 119.66Q400.367 121.418 399.418 122.367Q398.469 123.316 398.469 125.285Q398.469 128.52 401.352 130.137Q403.32 131.262 408.172 131.262L457.32 131.262L472.93 133.16Q475.109 133.16 476.656 132Q478.203 130.84 480.242 127.676Q486.711 117.762 486.711 109.043Q486.711 103.699 484.355 100.359Q482 97.0195 478.273 97.0195Q474.547 97.0195 473.492 101.59Q471.664 109.043 467.023 112.559Q462.383 116.074 454.367 116.074Q446.914 116.074 444.594 112.348Q442.695 109.184 442.695 98.2852ZM591.688 70.4414L591.688 87.5977Q591.688 103.137 589.367 109.605Q584.375 123.246 567.43 129.363Q557.164 133.16 544.227 133.16Q521.656 133.16 508.086 122.402Q501.477 117.129 498.945 110.168Q496.414 103.207 496.414 90.0586Q496.414 84.9258 496.766 73.1836Q496.977 64.8867 496.977 62.2148Q496.977 56.3789 496.098 54.1289Q495.219 51.8789 492.266 49.9102Q487.625 46.8867 487.625 43.1602Q487.625 40.418 489.98 38.3086Q492.336 36.1992 496.203 35.4258Q503.938 33.8789 514.484 33.8789Q526.086 33.8789 533.75 35.6367Q541.273 37.3242 541.273 43.3008Q541.273 46.2539 539.094 48.0117Q538.602 48.4336 534.875 50.1914Q532.625 51.1758 531.816 53.7773Q531.008 56.3789 531.008 62.3555Q531.008 68.4727 530.445 88.793Q530.094 100.887 536.984 107.215Q542.609 112.418 551.469 112.418Q557.094 112.418 561.664 110.344Q566.234 108.27 568.625 104.684Q570.523 101.941 571.227 98.5664Q571.93 95.1914 571.93 89.3555L571.93 73.8867Q571.578 56.0977 570.91 53.0391Q570.242 49.9805 566.375 48.2227Q562.719 46.6055 561.383 45.2695Q560.047 43.9336 560.047 41.9648Q560.047 37.7461 565.074 35.8125Q570.102 33.8789 581.211 33.8789Q592.109 33.8789 596.996 35.7773Q601.883 37.6758 601.883 41.8242Q601.883 43.8633 601.039 44.8477Q600.195 45.832 596.609 47.8711Q592.883 49.9805 592.355 52.4063Q591.828 54.832 591.688 70.4414Z" />
      </g>
      <g stroke="#000000" stroke-width="15" id="EVERYTHING-">
        <path d="M53.5078 200.285L17.3672 200.285Q9.49219 200.285 6.75 200.918Q4.57031 201.48 3.23438 203.238Q1.89844 204.996 1.89844 207.246Q1.89844 211.395 5.90625 212.59Q8.57813 213.363 9.42188 213.926Q10.2656 214.488 10.9688 215.895Q14.3437 222.996 14.3438 250.137Q14.3437 268.137 12.0234 278.754Q11.4609 281.355 10.4414 282.691Q9.42188 284.027 7.3125 284.941Q4.28906 286.348 3.44531 287.262Q2.60156 288.176 2.60156 290.215Q2.60156 293.098 4.57031 294.68Q6.53906 296.262 10.125 296.262L69.75 296.262Q77.2734 296.473 81.7734 297.316Q84.3047 297.738 85.6406 297.738Q87.2578 297.738 88.3125 296.93Q89.3672 296.121 90.9844 293.73Q94.1484 288.809 96.3281 282.48Q98.5078 276.152 98.5078 271.934Q98.5078 268.066 96.5742 265.5Q94.6406 262.934 91.6875 262.934Q89.1563 262.934 87.5742 264.34Q85.9922 265.746 84.0234 269.824Q80.6484 276.926 75.3047 279.633Q69.9609 282.34 59.4141 282.34Q52.5937 282.34 49.6758 281.531Q46.7578 280.723 46.1953 278.613Q45.7031 276.926 45.2461 271.688Q44.7891 266.449 44.7891 263.145Q44.7891 257.73 45.9492 255.727Q47.1094 253.723 50.2734 253.723Q58.5 253.723 59.5547 261.668Q60.0469 265.535 60.9609 266.766Q61.875 267.996 64.2656 267.996Q68.1328 267.996 70.0313 264.129Q73.4766 257.027 73.4766 245.918Q73.4766 240.293 72.457 235.125Q71.4375 229.957 69.9609 227.918Q67.9219 225.176 65.0391 225.176Q63.0703 225.176 61.5938 226.441Q60.1875 227.566 59.6602 229.078Q59.1328 230.59 58.6406 234.668Q58.2891 237.832 56.9531 239.063Q55.6172 240.293 52.6641 240.293Q46.6875 240.293 45.2813 239.273Q43.875 238.254 43.875 234.035Q43.875 223.348 44.0508 220.746Q44.2266 218.145 45.1406 216.598Q46.8984 213.715 54.9844 213.715Q65.8125 213.715 70.5586 215.297Q75.3047 216.879 78.3984 221.59Q80.5781 224.895 81.8789 225.844Q83.1797 226.793 85.5 226.793Q88.875 226.793 90.8086 224.156Q92.7422 221.52 92.7422 216.949Q92.7422 207.879 88.1016 201.48Q85.2891 197.543 81.6328 197.543Q80.7891 197.543 79.3125 197.965Q74.5313 199.371 69.5039 199.828Q64.4766 200.285 53.5078 200.285ZM232.453 200.285L268.594 200.285Q279.563 200.285 284.59 199.828Q289.617 199.371 294.398 197.965Q295.875 197.543 296.719 197.543Q300.375 197.543 303.188 201.48Q307.828 207.879 307.828 216.949Q307.828 221.52 305.895 224.156Q303.961 226.793 300.586 226.793Q298.266 226.793 296.965 225.844Q295.664 224.895 293.484 221.59Q290.391 216.879 285.645 215.297Q280.898 213.715 270.07 213.715Q261.984 213.715 260.227 216.598Q259.313 218.145 259.137 220.746Q258.961 223.348 258.961 234.035Q258.961 238.254 260.367 239.273Q261.773 240.293 267.75 240.293Q270.703 240.293 272.039 239.063Q273.375 237.832 273.727 234.668Q274.219 230.59 274.746 229.078Q275.273 227.566 276.68 226.441Q278.156 225.176 280.125 225.176Q283.008 225.176 285.047 227.918Q286.523 229.957 287.543 235.125Q288.563 240.293 288.563 245.918Q288.563 257.027 285.117 264.129Q283.219 267.996 279.352 267.996Q276.961 267.996 276.047 266.766Q275.133 265.535 274.641 261.668Q273.586 253.723 265.359 253.723Q262.195 253.723 261.035 255.727Q259.875 257.73 259.875 263.145Q259.875 266.449 260.332 271.688Q260.789 276.926 261.281 278.613Q261.844 280.723 264.762 281.531Q267.68 282.34 274.5 282.34Q285.047 282.34 290.391 279.633Q295.734 276.926 299.109 269.824Q301.078 265.746 302.66 264.34Q304.242 262.934 306.773 262.934Q309.727 262.934 311.66 265.5Q313.594 268.066 313.594 271.934Q313.594 276.152 311.414 282.48Q309.234 288.809 306.07 293.73Q304.453 296.121 303.398 296.93Q302.344 297.738 300.727 297.738Q299.391 297.738 296.859 297.316Q292.359 296.473 284.836 296.262L225.211 296.262Q221.625 296.262 219.656 294.68Q217.688 293.098 217.688 290.215Q217.688 288.176 218.531 287.262Q219.375 286.348 222.398 284.941Q224.508 284.027 225.527 282.691Q226.547 281.355 227.109 278.754Q229.43 268.137 229.43 250.137Q229.43 222.996 226.055 215.895Q225.352 214.488 224.508 213.926Q223.664 213.363 220.992 212.59Q216.984 211.395 216.984 207.246Q216.984 204.996 218.32 203.238Q219.656 201.48 221.836 200.918Q224.578 200.285 232.453 200.285ZM608.555 200.285L571.5 200.285Q568.336 200.285 565.91 200.004Q563.484 199.723 559.688 198.949Q557.859 198.527 556.453 198.527Q551.25 198.527 545.906 205.699Q542.602 210.129 540.633 215.367Q538.664 220.605 538.664 224.965Q538.664 229.395 541.125 232.242Q543.586 235.09 547.383 235.09Q550.758 235.09 554.344 232.348Q557.367 230.027 562.078 222.855Q564.68 218.918 567.422 218.918Q569.672 218.918 570.656 221.59Q571.641 224.262 571.641 230.59Q571.641 239.59 571.148 251.859Q570.656 264.129 570.094 269.613Q569.461 275.801 568.441 277.98Q567.422 280.16 564.75 280.934Q560.391 282.27 559.758 282.621Q557.227 284.238 557.227 287.121Q557.227 292.465 564.328 294.855Q572.766 297.738 590.203 297.738Q604.406 297.738 611.262 295.277Q618.117 292.816 618.117 287.754Q618.117 285.223 616.746 283.781Q615.375 282.34 611.578 280.723Q608.063 279.246 606.797 276.504Q605.531 273.762 605.531 267.715L605.531 228.34Q605.531 223.348 606.656 221.168Q607.781 218.988 610.383 218.988Q612.281 218.988 613.617 220.324Q614.953 221.66 617.273 226.02Q619.945 230.801 622.688 232.875Q625.43 234.949 629.156 234.949Q633.094 234.949 635.906 232.84Q639.633 230.027 639.633 223.91Q639.633 214.98 634.254 206.543Q628.875 198.105 623.18 198.105Q621.563 198.105 619.453 198.668Q614.531 200.074 608.555 200.285ZM1008.35 200.918Q1000.2 198.316 990.984 198.316Q976.289 198.316 964.828 204.223Q951.68 210.902 944.367 223.207Q937.477 234.668 937.477 247.395Q937.477 259.98 943.242 270.809Q950.133 283.816 963.352 291.059Q976.219 298.16 991.617 298.16Q1001.04 298.16 1009.58 295.277Q1018.13 292.395 1024.17 287.262Q1032.96 279.738 1035.98 268.559Q1036.76 265.676 1037.5 264.938Q1038.23 264.199 1040.7 263.848Q1043.51 263.496 1045.27 261.633Q1047.02 259.77 1047.02 257.238Q1047.02 250.98 1039.36 248.59Q1031.27 246.129 1019.39 246.129Q1008.28 246.129 999.773 248.801Q992.039 251.262 992.039 257.098Q992.039 260.051 994.043 261.984Q996.047 263.918 999.07 263.918Q1002.45 263.918 1003.11 264.023Q1003.78 264.129 1004.55 264.691Q1006.52 266.098 1006.52 269.473Q1006.52 273.27 1004.17 275.695Q1001.81 278.121 998.156 278.121Q993.727 278.121 989.227 275.555Q984.727 272.988 981.492 268.699Q972.914 256.887 972.914 240.082Q972.914 228.762 978.293 222.082Q983.672 215.402 992.813 215.402Q1002.87 215.402 1010.6 224.895Q1015.24 230.59 1016.44 231.504Q1020.38 234.457 1024.45 234.457Q1029.45 234.457 1032.5 230.73Q1035.56 227.004 1035.56 220.957Q1035.56 212.098 1029.8 204.645Q1026.21 200.004 1022.27 200.004Q1020.73 200.004 1019.25 200.496Q1014.75 202.113 1013.34 202.113Q1012.01 202.113 1008.35 200.918ZM672.609 198.738Q694.547 198.738 694.547 207.809Q694.547 210.27 693.422 211.816Q692.297 213.363 689.133 215.262Q686.391 216.949 685.652 219.691Q684.914 222.434 684.914 230.801Q684.914 235.723 686.742 236.848Q687.797 237.551 689.941 237.691Q692.086 237.832 700.031 237.832Q707.273 237.832 709.031 237.059Q710.789 236.285 710.789 233.191Q710.789 223.91 709.945 220.254Q709.102 216.598 706.641 215.262Q703.547 213.504 702.563 212.273Q701.578 211.043 701.578 209.004Q701.578 206.121 703.758 203.766Q705.938 201.41 709.453 200.566Q716.766 198.809 727.805 198.809Q740.742 198.809 746.895 201.164Q753.047 203.52 753.047 208.512Q753.047 212.73 748.688 214.84Q745.945 216.105 745.102 217.266Q744.258 218.426 743.766 221.59Q743.484 223.348 743.063 237.199Q742.641 251.051 742.641 259.207Q742.641 273.48 743.695 277.348Q744.258 279.457 744.961 280.16Q745.664 280.863 749.391 282.973Q752.063 284.449 752.063 287.473Q752.063 292.816 745.699 295.242Q739.336 297.668 725.063 297.668Q712.547 297.668 706.57 295.207Q701.156 292.957 701.156 288.246Q701.156 284.238 705.305 281.988Q707.344 280.863 708.082 279.738Q708.82 278.613 709.523 275.59Q710.789 269.684 710.789 261.105Q710.789 256.676 709.488 255.621Q708.188 254.566 702.703 254.566Q690.117 254.566 686.672 255.973Q685.266 256.535 684.914 259.277Q684.492 262.652 684.492 267.574Q684.492 275.59 686.742 279.105Q687.516 280.23 690.398 281.988Q693.352 283.676 693.352 287.543Q693.352 292.465 686.531 295.066Q679.711 297.668 667.055 297.668Q655.523 297.668 648.211 295.277Q645.047 294.223 643.254 292.289Q641.461 290.355 641.461 288.035Q641.461 285.715 642.586 284.449Q643.711 283.184 647.508 281.215Q649.477 280.23 650.285 278.684Q651.094 277.137 651.516 273.48Q652.57 265.254 652.57 251.965Q652.57 249.504 652.5 246.129Q652.219 229.254 652.219 226.863Q652.289 220.816 651.199 218.883Q650.109 216.949 645.469 214.629Q642.375 213.152 642.375 210.199Q642.375 203.098 656.156 200.355Q664.172 198.738 672.609 198.738ZM166.852 287.402L199.125 222.082Q202.219 215.754 204.469 214.137Q205.734 213.223 210.023 212.73Q216.07 211.957 216.07 206.754Q216.07 202.395 211.465 200.602Q206.859 198.809 195.68 198.809Q173.25 198.809 173.25 207.176Q173.25 210.129 176.906 212.027Q180.211 213.715 180.211 216.105Q180.211 217.301 179.297 219.516Q178.383 221.73 172.828 233.965Q169.734 240.785 167.906 243.105Q166.078 245.426 163.758 245.426Q161.367 245.426 159.469 241.066L150.68 221.238Q149.414 218.355 149.414 216.809Q149.414 215.121 152.227 213.223Q155.883 210.691 155.883 207.738Q155.883 203.168 149.133 200.988Q142.383 198.809 128.039 198.809Q114.258 198.809 106.875 201.727Q99.4922 204.645 99.4922 210.059Q99.4922 214.488 103.711 215.262Q107.297 215.895 109.23 217.828Q111.164 219.762 113.555 225.105L142.313 288.457Q144.07 292.395 145.23 293.906Q146.391 295.418 148.43 296.543Q151.102 298.02 154.477 298.02Q158.555 298.02 161.227 295.734Q163.898 293.449 166.852 287.402ZM457.242 198.809Q471.023 198.809 478.266 200.285Q481.57 200.918 483.574 202.781Q485.578 204.645 485.578 207.035Q485.578 208.863 484.031 210.762Q481.781 213.645 481.781 214.91Q481.781 217.441 485.789 222.996Q488.391 226.582 490.711 226.582Q492.188 226.582 493.594 225.492Q495 224.402 497.25 221.59Q499.992 218.145 499.992 216.105Q499.992 214.84 499.676 214.207Q499.359 213.574 497.391 211.184Q495.984 209.566 495.984 206.824Q495.984 198.879 517.5 198.879Q529.664 198.879 533.32 200.004Q535.641 200.707 537.152 202.676Q538.664 204.645 538.664 206.895Q538.664 209.777 536.906 211.254Q535.148 212.73 530.789 213.504Q526.781 214.277 523.828 216.563Q520.875 218.848 513 227.285Q503.438 237.621 501.082 242.508Q498.727 247.395 498.727 257.098Q498.727 265.254 499.359 272.215Q499.711 276.504 500.695 278.156Q501.68 279.809 504.773 281.426Q509.906 284.098 509.906 288.105Q509.906 297.668 481.641 297.668Q470.039 297.668 459.703 295.418Q450.984 293.52 450.984 287.895Q450.984 283.535 456.328 281.637Q460.336 280.23 461.32 278.051Q463.57 273.199 463.57 255.129Q463.57 249.504 462.445 246.375Q461.32 243.246 457.523 238.254Q449.578 227.918 441.141 219.621Q437.484 216.035 434.109 214.77Q429.328 213.012 428.344 212.168Q426.375 210.48 426.375 207.668Q426.375 202.957 433.477 200.883Q440.578 198.809 457.242 198.809ZM803.039 200.215Q795.938 198.809 787.922 198.809Q778.922 198.809 770.133 200.566Q762.75 201.973 759.832 203.766Q756.914 205.559 756.914 208.582Q756.914 210.551 757.898 211.816Q758.883 213.082 761.766 214.98Q765.492 217.301 766.477 220.184Q768.305 225.246 768.305 243.246Q768.305 269.262 766.969 277.277Q766.336 280.934 762.891 283.043Q758.391 285.785 758.391 288.949Q758.391 297.668 781.313 297.668Q794.742 297.668 804.023 295.418Q812.602 293.309 812.602 287.684Q812.602 283.676 807.961 281.566Q805.43 280.301 804.41 279.211Q803.391 278.121 802.898 276.082Q801.563 269.684 801.563 242.824Q801.563 226.934 802.582 221.449Q803.602 215.965 806.836 214.348Q810.703 212.379 811.652 211.359Q812.602 210.34 812.602 208.301Q812.602 202.113 803.039 200.215ZM856.055 203.66L891.07 234.316Q895.992 238.605 898.172 238.605Q901.828 238.605 901.828 230.801Q901.828 221.941 900.773 218.707Q899.719 215.473 896.344 213.855Q893.602 212.52 892.477 211.008Q891.352 209.496 891.352 207.105Q891.352 201.199 899.438 199.512Q902.742 198.809 910.969 198.809Q921.586 198.809 925.664 200.074Q932.133 202.043 932.133 207.527Q932.133 212.098 926.859 214.418Q924.75 215.332 923.977 216.035Q923.203 216.738 922.641 218.145Q920.742 222.785 920.672 235.723L920.672 258.645Q920.672 263.918 920.742 273.059Q920.813 285.434 919.266 290.918Q917.367 297.738 912.375 297.738Q910.195 297.738 908.613 296.824Q907.031 295.91 903.375 292.605L861.68 255.27Q857.32 251.332 854.438 251.332Q850.148 251.332 850.148 263.215Q850.148 272.988 851.238 276.574Q852.328 280.16 855.703 281.848Q860.414 284.168 860.414 287.895Q860.414 297.668 839.391 297.668Q829.898 297.668 824.66 295.172Q819.422 292.676 819.422 288.105Q819.422 285.715 820.406 284.52Q821.391 283.324 824.836 281.285Q828.141 279.316 828.844 274.324Q830.039 265.254 830.039 248.238Q830.039 230.098 827.93 221.801Q827.156 218.777 825.961 217.301Q824.766 215.824 822.023 214.488Q818.859 212.941 817.629 211.465Q816.398 209.988 816.398 207.879Q816.398 201.129 828 199.371Q831.938 198.809 841.781 198.809Q847.406 198.809 849.973 199.688Q852.539 200.566 856.055 203.66ZM359.965 257.52Q360.703 255.902 363.375 255.902Q368.016 256.113 370.512 258.855Q373.008 261.598 374.625 268.277Q377.156 278.684 379.02 283.605Q380.883 288.527 383.555 291.762Q389.461 299.004 403.172 299.004Q413.438 299.004 419.344 296.262Q422.016 294.996 423.703 292.781Q425.391 290.566 425.391 288.387Q425.391 286.699 424.477 285.328Q423.563 283.957 422.227 283.535Q417.867 282.27 416.672 280.898Q415.477 279.527 414.844 274.887Q413.367 263.707 409.922 258.293Q406.477 252.879 399.094 250.207Q395.648 248.941 395.648 246.902Q395.648 245.355 397.898 244.23Q403.313 241.559 406.406 236.25Q409.5 230.941 409.5 224.473Q409.5 212.871 400.641 206.332Q390.797 199.09 375.75 199.09Q373.078 199.09 366.398 199.582Q355.852 200.426 349.523 200.426Q345.727 200.426 343.969 200.285Q334.688 199.582 332.367 199.582Q327.094 199.582 324.07 200.355Q320.484 201.27 318.48 203.203Q316.477 205.137 316.477 207.738Q316.477 209.707 317.531 210.938Q318.586 212.168 321.68 213.645Q324.914 215.262 325.898 218.777Q326.883 222.293 326.883 232.066Q326.883 262.863 326.531 267.855Q326.109 274.676 325.02 277.453Q323.93 280.23 320.836 282.27Q318.094 284.098 317.32 285.117Q316.547 286.137 316.547 287.824Q316.547 297.668 342.563 297.668Q356.555 297.668 362.426 295.734Q368.297 293.801 368.297 289.16Q368.297 285.363 364.078 283.043Q362.109 281.918 361.406 281.145Q360.703 280.371 360.352 278.965Q359.227 273.973 359.227 265.043Q359.227 259.137 359.965 257.52ZM358.523 236.426L359.297 220.043Q359.438 216.809 360.563 215.543Q361.688 214.277 364.43 214.277Q374.063 214.277 374.063 227.848Q374.063 234.879 371.25 238.078Q368.438 241.277 362.25 241.277Q360 241.277 359.262 240.434Q358.523 239.59 358.523 237.059L358.523 236.426Z" />
      </g>
      <g stroke="#000000" stroke-width="15" id="I-GIVE-2-U">
        <path d="M589.543 366.938L553.402 366.938Q545.527 366.938 542.785 367.57Q540.605 368.133 539.27 369.891Q537.934 371.648 537.934 373.898Q537.934 378.047 541.941 379.242Q544.613 380.016 545.457 380.578Q546.301 381.141 547.004 382.547Q550.379 389.648 550.379 416.789Q550.379 434.789 548.059 445.406Q547.496 448.008 546.477 449.344Q545.457 450.68 543.348 451.594Q540.324 453 539.48 453.914Q538.637 454.828 538.637 456.867Q538.637 459.75 540.605 461.332Q542.574 462.914 546.16 462.914L605.785 462.914Q613.309 463.125 617.809 463.969Q620.34 464.391 621.676 464.391Q623.293 464.391 624.348 463.582Q625.402 462.773 627.02 460.383Q630.184 455.461 632.363 449.133Q634.543 442.805 634.543 438.586Q634.543 434.719 632.609 432.152Q630.676 429.586 627.723 429.586Q625.191 429.586 623.609 430.992Q622.027 432.398 620.059 436.477Q616.684 443.578 611.34 446.285Q605.996 448.992 595.449 448.992Q588.629 448.992 585.711 448.184Q582.793 447.375 582.23 445.266Q581.738 443.578 581.281 438.34Q580.824 433.102 580.824 429.797Q580.824 424.383 581.984 422.379Q583.145 420.375 586.309 420.375Q594.535 420.375 595.59 428.32Q596.082 432.188 596.996 433.418Q597.91 434.648 600.301 434.648Q604.168 434.648 606.066 430.781Q609.512 423.68 609.512 412.57Q609.512 406.945 608.492 401.777Q607.473 396.609 605.996 394.57Q603.957 391.828 601.074 391.828Q599.105 391.828 597.629 393.094Q596.223 394.219 595.695 395.73Q595.168 397.242 594.676 401.32Q594.324 404.484 592.988 405.715Q591.652 406.945 588.699 406.945Q582.723 406.945 581.316 405.926Q579.91 404.906 579.91 400.688Q579.91 390 580.086 387.398Q580.262 384.797 581.176 383.25Q582.934 380.367 591.02 380.367Q601.848 380.367 606.594 381.949Q611.34 383.531 614.434 388.242Q616.613 391.547 617.914 392.496Q619.215 393.445 621.535 393.445Q624.91 393.445 626.844 390.809Q628.777 388.172 628.777 383.602Q628.777 374.531 624.137 368.133Q621.324 364.195 617.668 364.195Q616.824 364.195 615.348 364.617Q610.566 366.023 605.539 366.48Q600.512 366.938 589.543 366.938ZM303.441 364.969Q312.652 364.969 320.809 367.57Q324.465 368.766 325.801 368.766Q327.207 368.766 331.707 367.148Q333.184 366.656 334.73 366.656Q338.668 366.656 342.254 371.297Q348.02 378.75 348.02 387.609Q348.02 393.656 344.961 397.383Q341.902 401.109 336.91 401.109Q332.832 401.109 328.895 398.156Q327.699 397.242 323.059 391.547Q315.324 382.055 305.27 382.055Q296.129 382.055 290.75 388.734Q285.371 395.414 285.371 406.734Q285.371 423.539 293.949 435.352Q297.184 439.641 301.684 442.207Q306.184 444.773 310.613 444.773Q314.27 444.773 316.625 442.348Q318.98 439.922 318.98 436.125Q318.98 432.75 317.012 431.344Q316.238 430.781 315.57 430.676Q314.902 430.57 311.527 430.57Q308.504 430.57 306.5 428.637Q304.496 426.703 304.496 423.75Q304.496 417.914 312.23 415.453Q320.738 412.781 331.848 412.781Q343.73 412.781 351.816 415.242Q359.48 417.633 359.48 423.891Q359.48 426.422 357.723 428.285Q355.965 430.148 353.152 430.5Q350.691 430.852 349.953 431.59Q349.215 432.328 348.441 435.211Q345.418 446.391 336.629 453.914Q330.582 459.047 322.039 461.93Q313.496 464.813 304.074 464.813Q288.676 464.813 275.809 457.711Q262.59 450.469 255.699 437.461Q249.934 426.633 249.934 414.047Q249.934 401.32 256.824 389.859Q264.137 377.555 277.285 370.875Q288.746 364.969 303.441 364.969ZM183.91 365.461Q191.926 365.461 199.027 366.867Q208.59 368.766 208.59 374.953Q208.59 376.992 207.641 378.012Q206.691 379.031 202.824 381Q199.59 382.617 198.57 388.102Q197.551 393.586 197.551 409.477Q197.551 436.336 198.887 442.734Q199.379 444.773 200.398 445.863Q201.418 446.953 203.949 448.219Q208.59 450.328 208.59 454.336Q208.59 459.961 200.012 462.07Q190.73 464.32 177.301 464.32Q154.379 464.32 154.379 455.602Q154.379 452.438 158.879 449.695Q162.324 447.586 162.957 443.93Q164.293 435.914 164.293 409.898Q164.293 391.898 162.465 386.836Q161.48 383.953 157.754 381.633Q154.871 379.734 153.887 378.469Q152.902 377.203 152.902 375.234Q152.902 372.211 155.82 370.418Q158.738 368.625 166.121 367.219Q174.91 365.461 183.91 365.461ZM408.91 366.867Q401.809 365.461 393.793 365.461Q384.793 365.461 376.004 367.219Q368.621 368.625 365.703 370.418Q362.785 372.211 362.785 375.234Q362.785 377.203 363.77 378.469Q364.754 379.734 367.637 381.633Q371.363 383.953 372.348 386.836Q374.176 391.898 374.176 409.898Q374.176 435.914 372.84 443.93Q372.207 447.586 368.762 449.695Q364.262 452.438 364.262 455.602Q364.262 464.32 387.184 464.32Q400.613 464.32 409.895 462.07Q418.473 459.961 418.473 454.336Q418.473 450.328 413.832 448.219Q411.301 446.953 410.281 445.863Q409.262 444.773 408.77 442.734Q407.434 436.336 407.434 409.477Q407.434 393.586 408.453 388.102Q409.473 382.617 412.707 381Q416.574 379.031 417.523 378.012Q418.473 376.992 418.473 374.953Q418.473 368.766 408.91 366.867ZM520.074 388.734L487.801 454.055Q484.848 460.102 482.176 462.387Q479.504 464.672 475.426 464.672Q472.051 464.672 469.379 463.195Q467.34 462.07 466.18 460.559Q465.02 459.047 463.262 455.109L434.504 391.758Q432.113 386.414 430.18 384.48Q428.246 382.547 424.66 381.914Q420.441 381.141 420.441 376.711Q420.441 371.297 427.824 368.379Q435.207 365.461 448.988 365.461Q463.332 365.461 470.082 367.641Q476.832 369.82 476.832 374.391Q476.832 377.344 473.176 379.875Q470.363 381.773 470.363 383.461Q470.363 385.008 471.629 387.891L480.418 407.719Q482.316 412.078 484.707 412.078Q487.027 412.078 488.855 409.758Q490.684 407.438 493.777 400.617Q499.332 388.383 500.246 386.168Q501.16 383.953 501.16 382.758Q501.16 380.367 497.855 378.68Q494.199 376.781 494.199 373.828Q494.199 365.461 516.629 365.461Q527.809 365.461 532.414 367.254Q537.02 369.047 537.02 373.406Q537.02 378.609 530.973 379.383Q526.684 379.875 525.418 380.789Q523.168 382.406 520.074 388.734ZM899.832 419.25L899.832 402.094Q899.973 386.484 900.5 384.059Q901.027 381.633 904.754 379.523Q908.34 377.484 909.184 376.5Q910.027 375.516 910.027 373.477Q910.027 369.328 905.141 367.43Q900.254 365.531 889.355 365.531Q878.246 365.531 873.219 367.465Q868.191 369.398 868.191 373.617Q868.191 375.586 869.527 376.922Q870.863 378.258 874.52 379.875Q878.387 381.633 879.055 384.691Q879.723 387.75 880.074 405.539L880.074 421.008Q880.074 426.844 879.371 430.219Q878.668 433.594 876.77 436.336Q874.379 439.922 869.809 441.996Q865.238 444.07 859.613 444.07Q850.754 444.07 845.129 438.867Q838.238 432.539 838.59 420.445Q839.152 400.125 839.152 394.008Q839.152 388.031 839.961 385.43Q840.77 382.828 843.02 381.844Q846.746 380.086 847.238 379.664Q849.418 377.906 849.418 374.953Q849.418 368.977 841.895 367.289Q834.23 365.531 822.629 365.531Q812.082 365.531 804.348 367.078Q800.48 367.852 798.125 369.961Q795.77 372.07 795.77 374.813Q795.77 378.539 800.41 381.563Q803.363 383.531 804.242 385.781Q805.121 388.031 805.121 393.867Q805.121 396.539 804.91 404.836Q804.559 416.578 804.559 421.711Q804.559 434.859 807.09 441.82Q809.621 448.781 816.23 454.055Q829.801 464.813 852.371 464.813Q865.309 464.813 875.574 461.016Q892.52 454.898 897.512 441.258Q899.832 434.789 899.832 419.25ZM727.004 462.914L679.121 462.914Q672.793 462.914 672.793 459.328Q672.793 457.5 674.129 455.918Q675.465 454.336 682.777 447.445Q696.348 434.648 702.887 423.609Q706.262 417.984 706.262 413.906Q706.262 410.391 704.223 408.316Q702.184 406.242 698.738 406.242Q695.504 406.242 693.816 407.121Q692.129 408 686.363 412.852Q684.816 414.117 682.285 414.117Q678.98 414.117 676.203 411.551Q673.426 408.984 673.426 405.961Q673.426 403.219 675.957 399.738Q678.488 396.258 682.637 393.164Q697.824 382.266 716.316 382.266Q730.379 382.266 739.59 387.68Q743.738 390.141 746.27 394.57Q748.801 399 748.801 403.852Q748.801 416.156 731.785 430.57Q725.738 435.633 725.738 438.164Q725.738 440.133 727.566 441.504Q729.395 442.875 731.996 442.875Q738.184 442.875 743.035 438.094Q745.496 435.703 746.305 435.211Q747.113 434.719 748.52 434.719Q754.707 434.719 754.707 445.266Q754.707 450.539 752.703 455.953Q750.699 461.367 747.254 465.305Q743.598 469.523 739.238 469.523Q737.48 469.523 736.426 468.785Q735.371 468.047 734.035 466.008Q732.77 464.039 731.539 463.477Q730.309 462.914 727.004 462.914Z" />
      </g>
    </g>
    <g id="MY-LUV-IS-EVERYTHING-I-GIVE-2">
      <g stroke="#000000" stroke-width="6" id="MY-LUV-IS-" fill="#F6C74D">
        <path d="M879.266 36.9023Q867.523 33.3164 860.281 33.3164Q843.266 33.3164 831.453 43.2305Q826.18 47.5195 823.297 53.3906Q820.414 59.2617 820.414 65.4492Q820.414 77.9648 831.523 87.8086Q836.094 91.8164 841.367 94.4531Q846.641 97.0898 856.695 100.254Q862.391 102.012 864.922 104.051Q867.453 106.09 867.453 108.902Q867.453 111.926 864.219 113.859Q860.984 115.793 855.781 115.793Q849.734 115.793 844.074 113.191Q838.414 110.59 835.813 106.652Q830.328 98.2852 828.852 96.7383Q826.391 93.9961 823.719 93.9961Q821.047 93.9961 819.289 96.2461Q817.883 98.0039 817.883 101.449Q817.883 108.621 820.59 116.18Q823.297 123.738 826.672 125.988Q831.102 128.871 841.086 131.016Q851.07 133.16 860.07 133.16Q880.25 133.16 892.766 123.457Q905 113.965 905 98.9883Q905 82.043 887.07 73.3242Q882.992 71.3555 868.438 67.0664Q857.68 63.9727 857.68 57.8555Q857.68 54.7617 860.035 52.8633Q862.391 50.9648 866.328 50.9648Q874.484 50.9648 882.922 58.8398Q888.898 64.3945 890.656 65.5195Q892.414 66.6445 895.227 66.6445Q898.602 66.6445 900.957 63.9375Q903.313 61.2305 903.313 57.293Q903.313 50.543 898.074 43.0898Q892.836 35.6367 888.125 35.6367Q886.859 35.6367 885.734 36.0586Q882.219 37.3242 881.516 37.3242Q880.672 37.3242 879.266 36.9023ZM191.539 102.152L183.102 121.066Q180.922 125.848 179.586 127.5Q178.25 129.152 176.633 129.152Q175.086 129.152 173.891 127.816Q173.117 126.973 170.34 121.629Q167.563 116.285 165.734 112.137L156.453 91.2539Q154.555 86.8945 152.445 86.8945Q150.195 86.8945 149.984 90.6211Q149.492 98.918 149.492 105.949Q149.492 113.262 150.195 115.863Q150.688 117.41 151.496 118.113Q152.305 118.816 155.891 120.645Q158.211 121.84 158.211 124.793Q158.211 132.668 138.031 132.668Q121.016 132.668 121.016 125.004Q121.016 123.035 121.895 122.156Q122.773 121.277 126.43 119.52Q128.75 118.465 129.559 116.637Q130.367 114.809 130.93 109.535Q131.563 103.91 132.125 91.0781Q132.688 78.2461 132.688 69.1055Q132.688 57.6445 130.93 53.5664Q130.297 52.1602 129.488 51.457Q128.68 50.7539 126.43 49.6289Q121.438 47.2383 121.438 43.4414Q121.438 40.9805 123.301 38.9414Q125.164 36.9024 128.258 36.0586Q131.352 35.1445 136.52 34.4766Q141.688 33.8086 145.273 33.8086Q154.273 33.8086 158 35.2852Q159.828 35.9883 160.883 37.1836Q161.938 38.3789 163.906 42.1055L178.531 69.0352Q180.922 73.4649 181.836 74.4492Q182.75 75.4336 184.367 75.4336Q185.773 75.4336 186.863 74.3789Q187.953 73.3242 189.43 70.4414L199.344 51.1055Q201.172 47.3789 201.734 46.2539Q205.18 39.2227 208.555 36.9023Q212.844 33.8789 224.164 33.8789Q244.063 33.8789 244.063 42.9492Q244.063 44.9883 243.289 46.2188Q242.516 47.4492 240.125 49.207Q236.891 51.668 236.047 56.3086Q234.43 66.0117 234.43 79.9336Q234.43 97.8633 236.117 111.363Q236.539 114.668 237.418 115.863Q238.297 117.059 241.953 119.449Q244.484 121.137 244.484 123.949Q244.484 128.871 237.945 130.91Q234.57 132.035 230.844 132.387Q227.117 132.738 219.383 132.738Q207.5 132.738 201.664 131.051Q195.195 129.152 195.195 124.582Q195.195 122.895 196.039 121.805Q196.883 120.715 200.398 117.832Q202.227 116.355 202.895 112.137Q203.563 107.918 203.563 97.793Q203.563 92.168 203.035 90.4102Q202.508 88.6523 200.82 88.6523Q198.852 88.6523 197.023 91.3594Q195.195 94.0664 191.539 102.152ZM277.25 33.8086Q291.031 33.8086 298.273 35.2852Q301.578 35.918 303.582 37.7813Q305.586 39.6445 305.586 42.0352Q305.586 43.8633 304.039 45.7617Q301.789 48.6445 301.789 49.9102Q301.789 52.4414 305.797 57.9961Q308.398 61.582 310.719 61.582Q312.195 61.582 313.602 60.4922Q315.008 59.4023 317.258 56.5898Q320 53.1445 320 51.1055Q320 49.8398 319.684 49.207Q319.367 48.5742 317.398 46.1836Q315.992 44.5664 315.992 41.8242Q315.992 33.8789 337.508 33.8789Q349.672 33.8789 353.328 35.0039Q355.648 35.707 357.16 37.6758Q358.672 39.6445 358.672 41.8945Q358.672 44.7773 356.914 46.2539Q355.156 47.7305 350.797 48.5039Q346.789 49.2773 343.836 51.5625Q340.883 53.8477 333.008 62.2852Q323.445 72.6211 321.09 77.5078Q318.734 82.3945 318.734 92.0977Q318.734 100.254 319.367 107.215Q319.719 111.504 320.703 113.156Q321.688 114.809 324.781 116.426Q329.914 119.098 329.914 123.105Q329.914 132.668 301.648 132.668Q290.047 132.668 279.711 130.418Q270.992 128.52 270.992 122.895Q270.992 118.535 276.336 116.637Q280.344 115.23 281.328 113.051Q283.578 108.199 283.578 90.1289Q283.578 84.5039 282.453 81.375Q281.328 78.2461 277.531 73.2539Q269.586 62.918 261.148 54.6211Q257.492 51.0352 254.117 49.7695Q249.336 48.0117 248.352 47.168Q246.383 45.4805 246.383 42.668C246.383 39.5273 248.75 37.2656 253.484 35.8828Q260.586 33.8086 277.25 33.8086ZM671.211 122.402L703.484 57.082Q706.578 50.7539 708.828 49.1367Q710.094 48.2227 714.383 47.7305Q720.43 46.957 720.43 41.7539Q720.43 37.3945 715.824 35.6016Q711.219 33.8086 700.039 33.8086Q677.609 33.8086 677.609 42.1758Q677.609 45.1289 681.266 47.0273Q684.57 48.7148 684.57 51.1055Q684.57 52.3008 683.656 54.5156Q682.742 56.7305 677.188 68.9648Q674.094 75.7852 672.266 78.1055Q670.438 80.4258 668.117 80.4258Q665.727 80.4258 663.828 76.0664L655.039 56.2383Q653.773 53.3555 653.773 51.8086Q653.773 50.1211 656.586 48.2227Q660.242 45.6914 660.242 42.7383Q660.242 38.168 653.492 35.9883Q646.742 33.8086 632.398 33.8086Q618.617 33.8086 611.234 36.7266Q603.852 39.6445 603.852 45.0586Q603.852 49.4883 608.07 50.2617Q611.656 50.8945 613.59 52.8281Q615.523 54.7617 617.914 60.1055L646.672 123.457Q648.43 127.395 649.59 128.906Q650.75 130.418 652.789 131.543Q655.461 133.02 658.836 133.02Q662.914 133.02 665.586 130.734Q668.258 128.449 671.211 122.402ZM788.352 33.8086Q796.367 33.8086 803.469 35.2148Q813.031 37.1133 813.031 43.3008Q813.031 45.3398 812.082 46.3594Q811.133 47.3789 807.266 49.3477Q804.031 50.9648 803.012 56.4492Q801.992 61.9336 801.992 77.8242Q801.992 104.684 803.328 111.082Q803.82 113.121 804.84 114.211Q805.859 115.301 808.391 116.566Q813.031 118.676 813.031 122.684Q813.031 128.309 804.453 130.418Q795.172 132.668 781.742 132.668Q758.82 132.668 758.82 123.949Q758.82 120.785 763.32 118.043Q766.766 115.934 767.398 112.277Q768.734 104.262 768.734 78.2461Q768.734 60.2461 766.906 55.1836Q765.922 52.3008 762.195 49.9805Q759.313 48.082 758.328 46.8164Q757.344 45.5508 757.344 43.582Q757.344 40.5586 760.262 38.7656Q763.18 36.9727 770.563 35.5664Q779.352 33.8086 788.352 33.8086ZM442.695 98.2852L442.695 66.0117Q442.695 56.3086 443.398 53.4258Q444.102 50.543 446.773 49.3477Q451.273 47.4492 452.434 46.3242Q453.594 45.1992 453.594 42.8789Q453.594 37.1836 444.875 35.2852Q438.125 33.8789 424.484 33.8789Q412.32 33.8789 405.078 36.1992Q396.57 38.8711 396.57 44.0039Q396.57 46.2539 398.82 48.0117Q400.086 48.9961 404.727 50.6133Q407.539 51.5273 408.418 53.6016Q409.297 55.6758 409.297 61.3008Q409.367 67.207 409.719 78.8789Q410.07 91.043 410.07 97.5117Q410.07 111.434 409.156 114.316Q408.031 117.762 404.023 119.66Q400.367 121.418 399.418 122.367Q398.469 123.316 398.469 125.285Q398.469 128.52 401.352 130.137Q403.32 131.262 408.172 131.262L457.32 131.262L472.93 133.16Q475.109 133.16 476.656 132Q478.203 130.84 480.242 127.676Q486.711 117.762 486.711 109.043Q486.711 103.699 484.355 100.359Q482 97.0195 478.273 97.0195Q474.547 97.0195 473.492 101.59Q471.664 109.043 467.023 112.559Q462.383 116.074 454.367 116.074Q446.914 116.074 444.594 112.348Q442.695 109.184 442.695 98.2852ZM591.688 70.4414L591.688 87.5977Q591.688 103.137 589.367 109.605Q584.375 123.246 567.43 129.363Q557.164 133.16 544.227 133.16Q521.656 133.16 508.086 122.402Q501.477 117.129 498.945 110.168Q496.414 103.207 496.414 90.0586Q496.414 84.9258 496.766 73.1836Q496.977 64.8867 496.977 62.2148Q496.977 56.3789 496.098 54.1289Q495.219 51.8789 492.266 49.9102Q487.625 46.8867 487.625 43.1602Q487.625 40.418 489.98 38.3086Q492.336 36.1992 496.203 35.4258Q503.938 33.8789 514.484 33.8789Q526.086 33.8789 533.75 35.6367Q541.273 37.3242 541.273 43.3008Q541.273 46.2539 539.094 48.0117Q538.602 48.4336 534.875 50.1914Q532.625 51.1758 531.816 53.7773Q531.008 56.3789 531.008 62.3555Q531.008 68.4727 530.445 88.793Q530.094 100.887 536.984 107.215Q542.609 112.418 551.469 112.418Q557.094 112.418 561.664 110.344Q566.234 108.27 568.625 104.684Q570.523 101.941 571.227 98.5664Q571.93 95.1914 571.93 89.3555L571.93 73.8867Q571.578 56.0977 570.91 53.0391Q570.242 49.9805 566.375 48.2227Q562.719 46.6055 561.383 45.2695Q560.047 43.9336 560.047 41.9648Q560.047 37.7461 565.074 35.8125Q570.102 33.8789 581.211 33.8789Q592.109 33.8789 596.996 35.7773Q601.883 37.6758 601.883 41.8242Q601.883 43.8633 601.039 44.8477Q600.195 45.832 596.609 47.8711Q592.883 49.9805 592.355 52.4063Q591.828 54.832 591.688 70.4414Z" />
      </g>
      <g stroke="#000000" stroke-width="6" id="EVERYTHING-" fill="#F6C74D">
        <path d="M53.5078 200.285L17.3672 200.285Q9.49219 200.285 6.75 200.918Q4.57031 201.48 3.23438 203.238Q1.89844 204.996 1.89844 207.246Q1.89844 211.395 5.90625 212.59Q8.57813 213.363 9.42188 213.926Q10.2656 214.488 10.9688 215.895Q14.3437 222.996 14.3438 250.137Q14.3437 268.137 12.0234 278.754Q11.4609 281.355 10.4414 282.691Q9.42188 284.027 7.3125 284.941Q4.28906 286.348 3.44531 287.262Q2.60156 288.176 2.60156 290.215Q2.60156 293.098 4.57031 294.68Q6.53906 296.262 10.125 296.262L69.75 296.262Q77.2734 296.473 81.7734 297.316Q84.3047 297.738 85.6406 297.738Q87.2578 297.738 88.3125 296.93Q89.3672 296.121 90.9844 293.73Q94.1484 288.809 96.3281 282.48Q98.5078 276.152 98.5078 271.934Q98.5078 268.066 96.5742 265.5Q94.6406 262.934 91.6875 262.934Q89.1563 262.934 87.5742 264.34Q85.9922 265.746 84.0234 269.824Q80.6484 276.926 75.3047 279.633Q69.9609 282.34 59.4141 282.34Q52.5937 282.34 49.6758 281.531Q46.7578 280.723 46.1953 278.613Q45.7031 276.926 45.2461 271.688Q44.7891 266.449 44.7891 263.145Q44.7891 257.73 45.9492 255.727Q47.1094 253.723 50.2734 253.723Q58.5 253.723 59.5547 261.668Q60.0469 265.535 60.9609 266.766Q61.875 267.996 64.2656 267.996Q68.1328 267.996 70.0313 264.129Q73.4766 257.027 73.4766 245.918Q73.4766 240.293 72.457 235.125Q71.4375 229.957 69.9609 227.918Q67.9219 225.176 65.0391 225.176Q63.0703 225.176 61.5938 226.441Q60.1875 227.566 59.6602 229.078Q59.1328 230.59 58.6406 234.668Q58.2891 237.832 56.9531 239.063Q55.6172 240.293 52.6641 240.293Q46.6875 240.293 45.2813 239.273Q43.875 238.254 43.875 234.035Q43.875 223.348 44.0508 220.746Q44.2266 218.145 45.1406 216.598Q46.8984 213.715 54.9844 213.715Q65.8125 213.715 70.5586 215.297Q75.3047 216.879 78.3984 221.59Q80.5781 224.895 81.8789 225.844Q83.1797 226.793 85.5 226.793Q88.875 226.793 90.8086 224.156Q92.7422 221.52 92.7422 216.949Q92.7422 207.879 88.1016 201.48Q85.2891 197.543 81.6328 197.543Q80.7891 197.543 79.3125 197.965Q74.5313 199.371 69.5039 199.828Q64.4766 200.285 53.5078 200.285ZM232.453 200.285L268.594 200.285Q279.563 200.285 284.59 199.828Q289.617 199.371 294.398 197.965Q295.875 197.543 296.719 197.543Q300.375 197.543 303.188 201.48Q307.828 207.879 307.828 216.949Q307.828 221.52 305.895 224.156Q303.961 226.793 300.586 226.793Q298.266 226.793 296.965 225.844Q295.664 224.895 293.484 221.59Q290.391 216.879 285.645 215.297Q280.898 213.715 270.07 213.715Q261.984 213.715 260.227 216.598Q259.313 218.145 259.137 220.746Q258.961 223.348 258.961 234.035Q258.961 238.254 260.367 239.273Q261.773 240.293 267.75 240.293Q270.703 240.293 272.039 239.063Q273.375 237.832 273.727 234.668Q274.219 230.59 274.746 229.078Q275.273 227.566 276.68 226.441Q278.156 225.176 280.125 225.176Q283.008 225.176 285.047 227.918Q286.523 229.957 287.543 235.125Q288.563 240.293 288.563 245.918Q288.563 257.027 285.117 264.129Q283.219 267.996 279.352 267.996Q276.961 267.996 276.047 266.766Q275.133 265.535 274.641 261.668Q273.586 253.723 265.359 253.723Q262.195 253.723 261.035 255.727Q259.875 257.73 259.875 263.145Q259.875 266.449 260.332 271.688Q260.789 276.926 261.281 278.613Q261.844 280.723 264.762 281.531Q267.68 282.34 274.5 282.34Q285.047 282.34 290.391 279.633Q295.734 276.926 299.109 269.824Q301.078 265.746 302.66 264.34Q304.242 262.934 306.773 262.934Q309.727 262.934 311.66 265.5Q313.594 268.066 313.594 271.934Q313.594 276.152 311.414 282.48Q309.234 288.809 306.07 293.73Q304.453 296.121 303.398 296.93Q302.344 297.738 300.727 297.738Q299.391 297.738 296.859 297.316Q292.359 296.473 284.836 296.262L225.211 296.262Q221.625 296.262 219.656 294.68Q217.688 293.098 217.688 290.215Q217.688 288.176 218.531 287.262Q219.375 286.348 222.398 284.941Q224.508 284.027 225.527 282.691Q226.547 281.355 227.109 278.754Q229.43 268.137 229.43 250.137Q229.43 222.996 226.055 215.895Q225.352 214.488 224.508 213.926Q223.664 213.363 220.992 212.59Q216.984 211.395 216.984 207.246Q216.984 204.996 218.32 203.238Q219.656 201.48 221.836 200.918Q224.578 200.285 232.453 200.285ZM608.555 200.285L571.5 200.285Q568.336 200.285 565.91 200.004Q563.484 199.723 559.688 198.949Q557.859 198.527 556.453 198.527Q551.25 198.527 545.906 205.699Q542.602 210.129 540.633 215.367Q538.664 220.605 538.664 224.965Q538.664 229.395 541.125 232.242Q543.586 235.09 547.383 235.09Q550.758 235.09 554.344 232.348Q557.367 230.027 562.078 222.855Q564.68 218.918 567.422 218.918Q569.672 218.918 570.656 221.59Q571.641 224.262 571.641 230.59Q571.641 239.59 571.148 251.859Q570.656 264.129 570.094 269.613Q569.461 275.801 568.441 277.98Q567.422 280.16 564.75 280.934Q560.391 282.27 559.758 282.621Q557.227 284.238 557.227 287.121Q557.227 292.465 564.328 294.855Q572.766 297.738 590.203 297.738Q604.406 297.738 611.262 295.277Q618.117 292.816 618.117 287.754Q618.117 285.223 616.746 283.781Q615.375 282.34 611.578 280.723Q608.063 279.246 606.797 276.504Q605.531 273.762 605.531 267.715L605.531 228.34Q605.531 223.348 606.656 221.168Q607.781 218.988 610.383 218.988Q612.281 218.988 613.617 220.324Q614.953 221.66 617.273 226.02Q619.945 230.801 622.688 232.875Q625.43 234.949 629.156 234.949Q633.094 234.949 635.906 232.84Q639.633 230.027 639.633 223.91Q639.633 214.98 634.254 206.543Q628.875 198.105 623.18 198.105Q621.563 198.105 619.453 198.668Q614.531 200.074 608.555 200.285ZM1008.35 200.918Q1000.2 198.316 990.984 198.316Q976.289 198.316 964.828 204.223Q951.68 210.902 944.367 223.207Q937.477 234.668 937.477 247.395Q937.477 259.98 943.242 270.809Q950.133 283.816 963.352 291.059Q976.219 298.16 991.617 298.16Q1001.04 298.16 1009.58 295.277Q1018.13 292.395 1024.17 287.262Q1032.96 279.738 1035.98 268.559Q1036.76 265.676 1037.5 264.938Q1038.23 264.199 1040.7 263.848Q1043.51 263.496 1045.27 261.633Q1047.02 259.77 1047.02 257.238Q1047.02 250.98 1039.36 248.59Q1031.27 246.129 1019.39 246.129Q1008.28 246.129 999.773 248.801Q992.039 251.262 992.039 257.098Q992.039 260.051 994.043 261.984Q996.047 263.918 999.07 263.918Q1002.45 263.918 1003.11 264.023Q1003.78 264.129 1004.55 264.691Q1006.52 266.098 1006.52 269.473Q1006.52 273.27 1004.17 275.695Q1001.81 278.121 998.156 278.121Q993.727 278.121 989.227 275.555Q984.727 272.988 981.492 268.699Q972.914 256.887 972.914 240.082Q972.914 228.762 978.293 222.082Q983.672 215.402 992.813 215.402Q1002.87 215.402 1010.6 224.895Q1015.24 230.59 1016.44 231.504Q1020.38 234.457 1024.45 234.457Q1029.45 234.457 1032.5 230.73Q1035.56 227.004 1035.56 220.957Q1035.56 212.098 1029.8 204.645Q1026.21 200.004 1022.27 200.004Q1020.73 200.004 1019.25 200.496Q1014.75 202.113 1013.34 202.113Q1012.01 202.113 1008.35 200.918ZM672.609 198.738Q694.547 198.738 694.547 207.809Q694.547 210.27 693.422 211.816Q692.297 213.363 689.133 215.262Q686.391 216.949 685.652 219.691Q684.914 222.434 684.914 230.801Q684.914 235.723 686.742 236.848Q687.797 237.551 689.941 237.691Q692.086 237.832 700.031 237.832Q707.273 237.832 709.031 237.059Q710.789 236.285 710.789 233.191Q710.789 223.91 709.945 220.254Q709.102 216.598 706.641 215.262Q703.547 213.504 702.563 212.273Q701.578 211.043 701.578 209.004Q701.578 206.121 703.758 203.766Q705.938 201.41 709.453 200.566Q716.766 198.809 727.805 198.809Q740.742 198.809 746.895 201.164Q753.047 203.52 753.047 208.512Q753.047 212.73 748.688 214.84Q745.945 216.105 745.102 217.266Q744.258 218.426 743.766 221.59Q743.484 223.348 743.063 237.199Q742.641 251.051 742.641 259.207Q742.641 273.48 743.695 277.348Q744.258 279.457 744.961 280.16Q745.664 280.863 749.391 282.973Q752.063 284.449 752.063 287.473Q752.063 292.816 745.699 295.242Q739.336 297.668 725.063 297.668Q712.547 297.668 706.57 295.207Q701.156 292.957 701.156 288.246Q701.156 284.238 705.305 281.988Q707.344 280.863 708.082 279.738Q708.82 278.613 709.523 275.59Q710.789 269.684 710.789 261.105Q710.789 256.676 709.488 255.621Q708.188 254.566 702.703 254.566Q690.117 254.566 686.672 255.973Q685.266 256.535 684.914 259.277Q684.492 262.652 684.492 267.574Q684.492 275.59 686.742 279.105Q687.516 280.23 690.398 281.988Q693.352 283.676 693.352 287.543Q693.352 292.465 686.531 295.066Q679.711 297.668 667.055 297.668Q655.523 297.668 648.211 295.277Q645.047 294.223 643.254 292.289Q641.461 290.355 641.461 288.035Q641.461 285.715 642.586 284.449Q643.711 283.184 647.508 281.215Q649.477 280.23 650.285 278.684Q651.094 277.137 651.516 273.48Q652.57 265.254 652.57 251.965Q652.57 249.504 652.5 246.129Q652.219 229.254 652.219 226.863Q652.289 220.816 651.199 218.883Q650.109 216.949 645.469 214.629Q642.375 213.152 642.375 210.199Q642.375 203.098 656.156 200.355Q664.172 198.738 672.609 198.738ZM166.852 287.402L199.125 222.082Q202.219 215.754 204.469 214.137Q205.734 213.223 210.023 212.73Q216.07 211.957 216.07 206.754Q216.07 202.395 211.465 200.602Q206.859 198.809 195.68 198.809Q173.25 198.809 173.25 207.176Q173.25 210.129 176.906 212.027Q180.211 213.715 180.211 216.105Q180.211 217.301 179.297 219.516Q178.383 221.73 172.828 233.965Q169.734 240.785 167.906 243.105Q166.078 245.426 163.758 245.426Q161.367 245.426 159.469 241.066L150.68 221.238Q149.414 218.355 149.414 216.809Q149.414 215.121 152.227 213.223Q155.883 210.691 155.883 207.738Q155.883 203.168 149.133 200.988Q142.383 198.809 128.039 198.809Q114.258 198.809 106.875 201.727Q99.4922 204.645 99.4922 210.059Q99.4922 214.488 103.711 215.262Q107.297 215.895 109.23 217.828Q111.164 219.762 113.555 225.105L142.313 288.457Q144.07 292.395 145.23 293.906Q146.391 295.418 148.43 296.543Q151.102 298.02 154.477 298.02Q158.555 298.02 161.227 295.734Q163.898 293.449 166.852 287.402ZM457.242 198.809Q471.023 198.809 478.266 200.285Q481.57 200.918 483.574 202.781Q485.578 204.645 485.578 207.035Q485.578 208.863 484.031 210.762Q481.781 213.645 481.781 214.91Q481.781 217.441 485.789 222.996Q488.391 226.582 490.711 226.582Q492.188 226.582 493.594 225.492Q495 224.402 497.25 221.59Q499.992 218.145 499.992 216.105Q499.992 214.84 499.676 214.207Q499.359 213.574 497.391 211.184Q495.984 209.566 495.984 206.824Q495.984 198.879 517.5 198.879Q529.664 198.879 533.32 200.004Q535.641 200.707 537.152 202.676Q538.664 204.645 538.664 206.895Q538.664 209.777 536.906 211.254Q535.148 212.73 530.789 213.504Q526.781 214.277 523.828 216.563Q520.875 218.848 513 227.285Q503.438 237.621 501.082 242.508Q498.727 247.395 498.727 257.098Q498.727 265.254 499.359 272.215Q499.711 276.504 500.695 278.156Q501.68 279.809 504.773 281.426Q509.906 284.098 509.906 288.105Q509.906 297.668 481.641 297.668Q470.039 297.668 459.703 295.418Q450.984 293.52 450.984 287.895Q450.984 283.535 456.328 281.637Q460.336 280.23 461.32 278.051Q463.57 273.199 463.57 255.129Q463.57 249.504 462.445 246.375Q461.32 243.246 457.523 238.254Q449.578 227.918 441.141 219.621Q437.484 216.035 434.109 214.77Q429.328 213.012 428.344 212.168Q426.375 210.48 426.375 207.668Q426.375 202.957 433.477 200.883Q440.578 198.809 457.242 198.809ZM803.039 200.215Q795.938 198.809 787.922 198.809Q778.922 198.809 770.133 200.566Q762.75 201.973 759.832 203.766Q756.914 205.559 756.914 208.582Q756.914 210.551 757.898 211.816Q758.883 213.082 761.766 214.98Q765.492 217.301 766.477 220.184Q768.305 225.246 768.305 243.246Q768.305 269.262 766.969 277.277Q766.336 280.934 762.891 283.043Q758.391 285.785 758.391 288.949Q758.391 297.668 781.313 297.668Q794.742 297.668 804.023 295.418Q812.602 293.309 812.602 287.684Q812.602 283.676 807.961 281.566Q805.43 280.301 804.41 279.211Q803.391 278.121 802.898 276.082Q801.563 269.684 801.563 242.824Q801.563 226.934 802.582 221.449Q803.602 215.965 806.836 214.348Q810.703 212.379 811.652 211.359Q812.602 210.34 812.602 208.301Q812.602 202.113 803.039 200.215ZM856.055 203.66L891.07 234.316Q895.992 238.605 898.172 238.605Q901.828 238.605 901.828 230.801Q901.828 221.941 900.773 218.707Q899.719 215.473 896.344 213.855Q893.602 212.52 892.477 211.008Q891.352 209.496 891.352 207.105Q891.352 201.199 899.438 199.512Q902.742 198.809 910.969 198.809Q921.586 198.809 925.664 200.074Q932.133 202.043 932.133 207.527Q932.133 212.098 926.859 214.418Q924.75 215.332 923.977 216.035Q923.203 216.738 922.641 218.145Q920.742 222.785 920.672 235.723L920.672 258.645Q920.672 263.918 920.742 273.059Q920.813 285.434 919.266 290.918Q917.367 297.738 912.375 297.738Q910.195 297.738 908.613 296.824Q907.031 295.91 903.375 292.605L861.68 255.27Q857.32 251.332 854.438 251.332Q850.148 251.332 850.148 263.215Q850.148 272.988 851.238 276.574Q852.328 280.16 855.703 281.848Q860.414 284.168 860.414 287.895Q860.414 297.668 839.391 297.668Q829.898 297.668 824.66 295.172Q819.422 292.676 819.422 288.105Q819.422 285.715 820.406 284.52Q821.391 283.324 824.836 281.285Q828.141 279.316 828.844 274.324Q830.039 265.254 830.039 248.238Q830.039 230.098 827.93 221.801Q827.156 218.777 825.961 217.301Q824.766 215.824 822.023 214.488Q818.859 212.941 817.629 211.465Q816.398 209.988 816.398 207.879Q816.398 201.129 828 199.371Q831.938 198.809 841.781 198.809Q847.406 198.809 849.973 199.688Q852.539 200.566 856.055 203.66ZM359.965 257.52Q360.703 255.902 363.375 255.902Q368.016 256.113 370.512 258.855Q373.008 261.598 374.625 268.277Q377.156 278.684 379.02 283.605Q380.883 288.527 383.555 291.762Q389.461 299.004 403.172 299.004Q413.438 299.004 419.344 296.262Q422.016 294.996 423.703 292.781Q425.391 290.566 425.391 288.387Q425.391 286.699 424.477 285.328Q423.563 283.957 422.227 283.535Q417.867 282.27 416.672 280.898Q415.477 279.527 414.844 274.887Q413.367 263.707 409.922 258.293Q406.477 252.879 399.094 250.207Q395.648 248.941 395.648 246.902Q395.648 245.355 397.898 244.23Q403.313 241.559 406.406 236.25Q409.5 230.941 409.5 224.473Q409.5 212.871 400.641 206.332Q390.797 199.09 375.75 199.09Q373.078 199.09 366.398 199.582Q355.852 200.426 349.523 200.426Q345.727 200.426 343.969 200.285Q334.688 199.582 332.367 199.582Q327.094 199.582 324.07 200.355Q320.484 201.27 318.48 203.203Q316.477 205.137 316.477 207.738Q316.477 209.707 317.531 210.938Q318.586 212.168 321.68 213.645Q324.914 215.262 325.898 218.777Q326.883 222.293 326.883 232.066Q326.883 262.863 326.531 267.855Q326.109 274.676 325.02 277.453Q323.93 280.23 320.836 282.27Q318.094 284.098 317.32 285.117Q316.547 286.137 316.547 287.824Q316.547 297.668 342.563 297.668Q356.555 297.668 362.426 295.734Q368.297 293.801 368.297 289.16Q368.297 285.363 364.078 283.043Q362.109 281.918 361.406 281.145Q360.703 280.371 360.352 278.965Q359.227 273.973 359.227 265.043Q359.227 259.137 359.965 257.52ZM358.523 236.426L359.297 220.043Q359.438 216.809 360.563 215.543Q361.688 214.277 364.43 214.277Q374.063 214.277 374.063 227.848Q374.063 234.879 371.25 238.078Q368.438 241.277 362.25 241.277Q360 241.277 359.262 240.434Q358.523 239.59 358.523 237.059L358.523 236.426Z" />
      </g>
      <g stroke="#000000" stroke-width="6" id="I-GIVE-2-U" fill="#F6C74D">
        <path d="M589.543 366.938L553.402 366.938Q545.527 366.938 542.785 367.57Q540.605 368.133 539.27 369.891Q537.934 371.648 537.934 373.898Q537.934 378.047 541.941 379.242Q544.613 380.016 545.457 380.578Q546.301 381.141 547.004 382.547Q550.379 389.648 550.379 416.789Q550.379 434.789 548.059 445.406Q547.496 448.008 546.477 449.344Q545.457 450.68 543.348 451.594Q540.324 453 539.48 453.914Q538.637 454.828 538.637 456.867Q538.637 459.75 540.605 461.332Q542.574 462.914 546.16 462.914L605.785 462.914Q613.309 463.125 617.809 463.969Q620.34 464.391 621.676 464.391Q623.293 464.391 624.348 463.582Q625.402 462.773 627.02 460.383Q630.184 455.461 632.363 449.133Q634.543 442.805 634.543 438.586Q634.543 434.719 632.609 432.152Q630.676 429.586 627.723 429.586Q625.191 429.586 623.609 430.992Q622.027 432.398 620.059 436.477Q616.684 443.578 611.34 446.285Q605.996 448.992 595.449 448.992Q588.629 448.992 585.711 448.184Q582.793 447.375 582.23 445.266Q581.738 443.578 581.281 438.34Q580.824 433.102 580.824 429.797Q580.824 424.383 581.984 422.379Q583.145 420.375 586.309 420.375Q594.535 420.375 595.59 428.32Q596.082 432.188 596.996 433.418Q597.91 434.648 600.301 434.648Q604.168 434.648 606.066 430.781Q609.512 423.68 609.512 412.57Q609.512 406.945 608.492 401.777Q607.473 396.609 605.996 394.57Q603.957 391.828 601.074 391.828Q599.105 391.828 597.629 393.094Q596.223 394.219 595.695 395.73Q595.168 397.242 594.676 401.32Q594.324 404.484 592.988 405.715Q591.652 406.945 588.699 406.945Q582.723 406.945 581.316 405.926Q579.91 404.906 579.91 400.688Q579.91 390 580.086 387.398Q580.262 384.797 581.176 383.25Q582.934 380.367 591.02 380.367Q601.848 380.367 606.594 381.949Q611.34 383.531 614.434 388.242Q616.613 391.547 617.914 392.496Q619.215 393.445 621.535 393.445Q624.91 393.445 626.844 390.809Q628.777 388.172 628.777 383.602Q628.777 374.531 624.137 368.133Q621.324 364.195 617.668 364.195Q616.824 364.195 615.348 364.617Q610.566 366.023 605.539 366.48Q600.512 366.938 589.543 366.938ZM303.441 364.969Q312.652 364.969 320.809 367.57Q324.465 368.766 325.801 368.766Q327.207 368.766 331.707 367.148Q333.184 366.656 334.73 366.656Q338.668 366.656 342.254 371.297Q348.02 378.75 348.02 387.609Q348.02 393.656 344.961 397.383Q341.902 401.109 336.91 401.109Q332.832 401.109 328.895 398.156Q327.699 397.242 323.059 391.547Q315.324 382.055 305.27 382.055Q296.129 382.055 290.75 388.734Q285.371 395.414 285.371 406.734Q285.371 423.539 293.949 435.352Q297.184 439.641 301.684 442.207Q306.184 444.773 310.613 444.773Q314.27 444.773 316.625 442.348Q318.98 439.922 318.98 436.125Q318.98 432.75 317.012 431.344Q316.238 430.781 315.57 430.676Q314.902 430.57 311.527 430.57Q308.504 430.57 306.5 428.637Q304.496 426.703 304.496 423.75Q304.496 417.914 312.23 415.453Q320.738 412.781 331.848 412.781Q343.73 412.781 351.816 415.242Q359.48 417.633 359.48 423.891Q359.48 426.422 357.723 428.285Q355.965 430.148 353.152 430.5Q350.691 430.852 349.953 431.59Q349.215 432.328 348.441 435.211Q345.418 446.391 336.629 453.914Q330.582 459.047 322.039 461.93Q313.496 464.813 304.074 464.813Q288.676 464.813 275.809 457.711Q262.59 450.469 255.699 437.461Q249.934 426.633 249.934 414.047Q249.934 401.32 256.824 389.859Q264.137 377.555 277.285 370.875Q288.746 364.969 303.441 364.969ZM183.91 365.461Q191.926 365.461 199.027 366.867Q208.59 368.766 208.59 374.953Q208.59 376.992 207.641 378.012Q206.691 379.031 202.824 381Q199.59 382.617 198.57 388.102Q197.551 393.586 197.551 409.477Q197.551 436.336 198.887 442.734Q199.379 444.773 200.398 445.863Q201.418 446.953 203.949 448.219Q208.59 450.328 208.59 454.336Q208.59 459.961 200.012 462.07Q190.73 464.32 177.301 464.32Q154.379 464.32 154.379 455.602Q154.379 452.438 158.879 449.695Q162.324 447.586 162.957 443.93Q164.293 435.914 164.293 409.898Q164.293 391.898 162.465 386.836Q161.48 383.953 157.754 381.633Q154.871 379.734 153.887 378.469Q152.902 377.203 152.902 375.234Q152.902 372.211 155.82 370.418Q158.738 368.625 166.121 367.219Q174.91 365.461 183.91 365.461ZM408.91 366.867Q401.809 365.461 393.793 365.461Q384.793 365.461 376.004 367.219Q368.621 368.625 365.703 370.418Q362.785 372.211 362.785 375.234Q362.785 377.203 363.77 378.469Q364.754 379.734 367.637 381.633Q371.363 383.953 372.348 386.836Q374.176 391.898 374.176 409.898Q374.176 435.914 372.84 443.93Q372.207 447.586 368.762 449.695Q364.262 452.438 364.262 455.602Q364.262 464.32 387.184 464.32Q400.613 464.32 409.895 462.07Q418.473 459.961 418.473 454.336Q418.473 450.328 413.832 448.219Q411.301 446.953 410.281 445.863Q409.262 444.773 408.77 442.734Q407.434 436.336 407.434 409.477Q407.434 393.586 408.453 388.102Q409.473 382.617 412.707 381Q416.574 379.031 417.523 378.012Q418.473 376.992 418.473 374.953Q418.473 368.766 408.91 366.867ZM520.074 388.734L487.801 454.055Q484.848 460.102 482.176 462.387Q479.504 464.672 475.426 464.672Q472.051 464.672 469.379 463.195Q467.34 462.07 466.18 460.559Q465.02 459.047 463.262 455.109L434.504 391.758Q432.113 386.414 430.18 384.48Q428.246 382.547 424.66 381.914Q420.441 381.141 420.441 376.711Q420.441 371.297 427.824 368.379Q435.207 365.461 448.988 365.461Q463.332 365.461 470.082 367.641Q476.832 369.82 476.832 374.391Q476.832 377.344 473.176 379.875Q470.363 381.773 470.363 383.461Q470.363 385.008 471.629 387.891L480.418 407.719Q482.316 412.078 484.707 412.078Q487.027 412.078 488.855 409.758Q490.684 407.438 493.777 400.617Q499.332 388.383 500.246 386.168Q501.16 383.953 501.16 382.758Q501.16 380.367 497.855 378.68Q494.199 376.781 494.199 373.828Q494.199 365.461 516.629 365.461Q527.809 365.461 532.414 367.254Q537.02 369.047 537.02 373.406Q537.02 378.609 530.973 379.383Q526.684 379.875 525.418 380.789Q523.168 382.406 520.074 388.734ZM899.832 419.25L899.832 402.094Q899.973 386.484 900.5 384.059Q901.027 381.633 904.754 379.523Q908.34 377.484 909.184 376.5Q910.027 375.516 910.027 373.477Q910.027 369.328 905.141 367.43Q900.254 365.531 889.355 365.531Q878.246 365.531 873.219 367.465Q868.191 369.398 868.191 373.617Q868.191 375.586 869.527 376.922Q870.863 378.258 874.52 379.875Q878.387 381.633 879.055 384.691Q879.723 387.75 880.074 405.539L880.074 421.008Q880.074 426.844 879.371 430.219Q878.668 433.594 876.77 436.336Q874.379 439.922 869.809 441.996Q865.238 444.07 859.613 444.07Q850.754 444.07 845.129 438.867Q838.238 432.539 838.59 420.445Q839.152 400.125 839.152 394.008Q839.152 388.031 839.961 385.43Q840.77 382.828 843.02 381.844Q846.746 380.086 847.238 379.664Q849.418 377.906 849.418 374.953Q849.418 368.977 841.895 367.289Q834.23 365.531 822.629 365.531Q812.082 365.531 804.348 367.078Q800.48 367.852 798.125 369.961Q795.77 372.07 795.77 374.813Q795.77 378.539 800.41 381.563Q803.363 383.531 804.242 385.781Q805.121 388.031 805.121 393.867Q805.121 396.539 804.91 404.836Q804.559 416.578 804.559 421.711Q804.559 434.859 807.09 441.82Q809.621 448.781 816.23 454.055Q829.801 464.813 852.371 464.813Q865.309 464.813 875.574 461.016Q892.52 454.898 897.512 441.258Q899.832 434.789 899.832 419.25ZM727.004 462.914L679.121 462.914Q672.793 462.914 672.793 459.328Q672.793 457.5 674.129 455.918Q675.465 454.336 682.777 447.445Q696.348 434.648 702.887 423.609Q706.262 417.984 706.262 413.906Q706.262 410.391 704.223 408.316Q702.184 406.242 698.738 406.242Q695.504 406.242 693.816 407.121Q692.129 408 686.363 412.852Q684.816 414.117 682.285 414.117Q678.98 414.117 676.203 411.551Q673.426 408.984 673.426 405.961Q673.426 403.219 675.957 399.738Q678.488 396.258 682.637 393.164Q697.824 382.266 716.316 382.266Q730.379 382.266 739.59 387.68Q743.738 390.141 746.27 394.57Q748.801 399 748.801 403.852Q748.801 416.156 731.785 430.57Q725.738 435.633 725.738 438.164Q725.738 440.133 727.566 441.504Q729.395 442.875 731.996 442.875Q738.184 442.875 743.035 438.094Q745.496 435.703 746.305 435.211Q747.113 434.719 748.52 434.719Q754.707 434.719 754.707 445.266Q754.707 450.539 752.703 455.953Q750.699 461.367 747.254 465.305Q743.598 469.523 739.238 469.523Q737.48 469.523 736.426 468.785Q735.371 468.047 734.035 466.008Q732.77 464.039 731.539 463.477Q730.309 462.914 727.004 462.914Z" />
      </g>
    </g>
  </g>
</svg>