<?xml version="1.0" encoding="utf-8"?>
<svg width="525px" height="194px" viewBox="0 0 525 194" version="1.1" xmlns:xlink="http://www.w3.org/1999/xlink" xmlns="http://www.w3.org/2000/svg">
  <g id="Group">
    <path d="M184.023 48.4546C189.637 48.4546 193.182 45.5228 195.205 40.0228L209.591 0.45459L202.296 0.45459L193.455 27.5455L193.091 27.5455L184.25 0.45459L176.978 0.45459L189.75 35.8182L188.909 38.1364C187.182 42.7728 184.75 43.1591 181.023 42.1364L179.387 47.7046C180.205 48.0682 181.978 48.4546 184.023 48.4546L184.023 48.4546ZM160.091 36.0682C168.341 36.0682 173.682 31.1136 174.432 24.3182L167.818 24.3182C166.955 28.0909 164.023 30.3182 160.137 30.3182C154.387 30.3182 150.682 25.5227 150.682 17.9091C150.682 10.4318 154.455 5.72727 160.137 5.72727C164.455 5.72727 167.091 8.45454 167.818 11.7273L174.432 11.7273C173.705 4.68182 167.955 0 160.023 0C150.182 0 143.818 7.40909 143.818 18.0682C143.818 28.5909 149.955 36.0682 160.091 36.0682L160.091 36.0682ZM115.955 14.6364C115.955 9.06818 119.364 5.88636 124.091 5.88636C128.705 5.88636 131.5 8.90909 131.5 13.9773L131.5 35.3636L138.296 35.3636L138.296 13.1591C138.296 4.52273 133.546 0 126.409 0C121.159 0 117.727 2.43182 116.114 6.13636L115.682 6.13636L115.682 0.454544L109.159 0.454544L109.159 35.3636L115.955 35.3636L115.955 14.6364ZM88.6136 36.0682C96.2273 36.0682 101.614 32.3182 103.159 26.6364L96.7273 25.4773C95.5 28.7727 92.5455 30.4545 88.6818 30.4545C82.8636 30.4545 78.9545 26.6818 78.7727 19.9545L103.591 19.9545L103.591 17.5455C103.591 4.93182 96.0455 0 88.1364 0C78.4091 0 72 7.40909 72 18.1364C72 28.9773 78.3182 36.0682 88.6136 36.0682L88.6136 36.0682ZM78.7954 14.8638C79.0681 9.90923 82.659 5.61377 88.1818 5.61377C93.4545 5.61377 96.909 9.52286 96.9318 14.8638L78.7954 14.8638ZM50.7045 49.1818C59.5909 49.1818 66.4545 45.1136 66.4545 36.1364L66.4545 0.454544L59.7954 0.454544L59.7954 6.11364L59.2954 6.11364C58.0909 3.95454 55.6818 0 49.1818 0C40.75 0 34.5454 6.65909 34.5454 17.7727C34.5454 28.9091 40.8863 34.8409 49.1363 34.8409C55.5454 34.8409 58.0227 31.2273 59.25 29L59.6818 29L59.6818 35.8636C59.6818 41.3409 55.9318 43.7045 50.7727 43.7045C45.1136 43.7045 42.909 40.8636 41.7045 38.8636L35.8636 41.2727C37.7045 45.5455 42.3636 49.1818 50.7045 49.1818L50.7045 49.1818ZM50.6365 29.2045C44.5683 29.2045 41.4092 24.5454 41.4092 17.6818C41.4092 10.9773 44.5001 5.77271 50.6365 5.77271C56.5683 5.77271 59.7501 10.6136 59.7501 17.6818C59.7501 24.8863 56.5001 29.2045 50.6365 29.2045L50.6365 29.2045ZM11.7955 36.1364C17.5682 36.1364 20.8182 33.2045 22.1136 30.5909L22.3864 30.5909L22.3864 35.3636L29.0227 35.3636L29.0227 12.1818C29.0227 2.02272 21.0227 0 15.4773 0C9.15909 0 3.34091 2.54545 1.06818 8.90909L7.45455 10.3636C8.45455 7.88636 11 5.5 15.5682 5.5C19.9545 5.5 22.2045 7.79545 22.2045 11.75L22.2045 11.9091C22.2045 14.3864 19.6591 14.3409 13.3864 15.0682C6.77273 15.8409 0 17.5682 0 25.5C0 32.3636 5.15909 36.1364 11.7955 36.1364L11.7955 36.1364ZM13.2728 30.6818C9.43191 30.6818 6.65918 28.9545 6.65918 25.5909C6.65918 21.9545 9.88645 20.6591 13.8183 20.1363C16.0228 19.8409 21.2501 19.25 22.2274 18.2727L22.2274 22.7727C22.2274 26.9091 18.9319 30.6818 13.2728 30.6818L13.2728 30.6818Z" transform="translate(265.77148 144.25513)" id="agency" fill="#FFFFFF" fill-rule="evenodd" stroke="none" />
    <path d="M502.128 104.76L502.128 48.816L502.128 48.888L502.128 0L524.88 0L524.88 104.76L502.128 104.76ZM456.624 68.976C456.624 63.312 457.44 58.152 459.072 53.496C460.704 48.84 462.828 44.856 465.444 41.544C468.06 38.232 471.012 35.676 474.3 33.876C477.588 32.076 480.888 31.176 484.2 31.176C486.792 31.176 489.168 31.656 491.328 32.616C491.088 32.568 490.872 32.544 490.68 32.544C490.488 32.544 490.272 32.544 490.032 32.544C488.256 32.544 486.768 33.024 485.568 33.984C484.368 34.944 483.408 36.54 482.688 38.772C481.968 41.004 481.464 43.932 481.176 47.556C480.888 51.18 480.744 55.656 480.744 60.984L480.744 76.896C480.744 86.496 481.416 93.696 482.76 98.496C484.104 103.296 486.336 106.008 489.456 106.632C489.216 106.68 488.976 106.704 488.736 106.704C488.496 106.704 488.256 106.704 488.016 106.704C482.592 106.704 477.912 105.588 473.976 103.356C470.04 101.124 466.788 98.22 464.22 94.644C461.652 91.068 459.744 87.036 458.496 82.548C457.248 78.06 456.624 73.536 456.624 68.976L456.624 68.976ZM421.152 104.76L398.4 104.76L398.4 32.76L421.152 32.76L421.152 104.76ZM426.624 47.8799C426.624 46.1999 426.948 44.6159 427.596 43.1279C428.244 41.6399 429.12 40.3439 430.224 39.2399C431.328 38.1359 432.624 37.2599 434.112 36.6119C435.6 35.9639 437.184 35.6399 438.864 35.6399C440.544 35.6399 442.128 35.9639 443.616 36.6119C445.104 37.2599 446.4 38.1359 447.504 39.2399C448.608 40.3439 449.484 41.6399 450.132 43.1279C450.78 44.6159 451.104 46.1999 451.104 47.8799C451.104 49.5599 450.78 51.1439 450.132 52.6319C449.484 54.1199 448.608 55.4159 447.504 56.5199C446.4 57.6239 445.104 58.4999 443.616 59.1479C442.128 59.7959 440.544 60.1199 438.864 60.1199C437.184 60.1199 435.6 59.7959 434.112 59.1479C432.624 58.4999 431.328 57.6239 430.224 56.5199C429.12 55.4159 428.244 54.1199 427.596 52.6319C426.948 51.1439 426.624 49.5599 426.624 47.8799L426.624 47.8799ZM361.632 88.128L361.632 43.632C361.632 39.744 360.852 36.768 359.292 34.704C357.732 32.64 355.224 31.416 351.768 31.032C356.76 31.128 361.26 31.764 365.268 32.94C369.276 34.116 372.684 35.796 375.492 37.98C378.3 40.164 380.46 42.792 381.972 45.864C383.484 48.936 384.24 52.392 384.24 56.232L384.24 94.536C384.24 100.536 386.232 103.536 390.216 103.536C391.32 103.536 392.208 103.368 392.88 103.032C390.72 105.336 387.6 106.488 383.52 106.488C380.4 106.488 377.568 106.032 375.024 105.12C372.48 104.208 370.272 103.02 368.4 101.556C366.528 100.092 365.028 98.424 363.9 96.552C362.772 94.68 362.112 92.784 361.92 90.864L361.632 88.128ZM341.4 106.488C338.52 106.488 335.904 106.056 333.552 105.192C331.2 104.328 329.184 103.104 327.504 101.52C325.824 99.936 324.528 98.04 323.616 95.832C322.704 93.624 322.248 91.176 322.248 88.488C322.248 85.56 322.776 82.932 323.832 80.604C324.888 78.276 326.28 76.26 328.008 74.556C329.736 72.852 331.692 71.46 333.876 70.38C336.06 69.3 338.304 68.544 340.608 68.112C342.432 67.776 343.908 67.56 345.036 67.464C346.164 67.368 347.148 67.296 347.988 67.248C348.828 67.2 349.608 67.128 350.328 67.032C351.048 66.936 351.936 66.744 352.992 66.456C353.04 66.408 353.112 66.384 353.208 66.384C350.28 67.824 348.156 69.72 346.836 72.072C345.516 74.424 344.856 77.16 344.856 80.28L344.856 93.24C344.856 94.824 344.892 96.3 344.964 97.668C345.036 99.036 345.228 100.248 345.54 101.304C345.852 102.36 346.356 103.188 347.052 103.788C347.748 104.388 348.72 104.688 349.968 104.688C350.208 104.688 350.472 104.676 350.76 104.652C351.048 104.628 351.312 104.592 351.552 104.544C350.256 105.12 348.78 105.588 347.124 105.948C345.468 106.308 343.56 106.488 341.4 106.488L341.4 106.488ZM325.776 50.544C325.776 48.912 326.088 47.364 326.712 45.9C327.336 44.436 328.188 43.164 329.268 42.084C330.348 41.004 331.608 40.152 333.048 39.528C334.488 38.904 336.024 38.592 337.656 38.592C339.288 38.592 340.836 38.904 342.3 39.528C343.764 40.152 345.036 41.004 346.116 42.084C347.196 43.164 348.048 44.436 348.672 45.9C349.296 47.364 349.608 48.912 349.608 50.544C349.608 52.224 349.296 53.784 348.672 55.224C348.048 56.664 347.196 57.924 346.116 59.004C345.036 60.084 343.764 60.936 342.3 61.56C340.836 62.184 339.288 62.496 337.656 62.496C336.024 62.496 334.488 62.184 333.048 61.56C331.608 60.936 330.348 60.084 329.268 59.004C328.188 57.924 327.336 56.664 326.712 55.224C326.088 53.784 325.776 52.224 325.776 50.544L325.776 50.544ZM253.008 107.208L222.048 32.76L247.32 32.76L264.024 71.568L253.008 107.208ZM291.456 107.208L260.496 32.76L285.84 32.76L302.544 71.424L291.456 107.208ZM166.992 32.76L192.48 32.76L210.696 75.6L199.248 107.784L166.992 32.76ZM158.352 123.768C158.352 122.04 158.676 120.432 159.324 118.944C159.972 117.456 160.86 116.148 161.988 115.02C163.116 113.892 164.424 113.004 165.912 112.356C167.4 111.708 169.008 111.384 170.736 111.384C172.464 111.384 174.072 111.708 175.56 112.356C177.048 113.004 178.356 113.892 179.484 115.02C180.612 116.148 181.5 117.456 182.148 118.944C182.796 120.432 183.12 122.04 183.12 123.768C183.12 125.496 182.796 127.104 182.148 128.592C181.5 130.08 180.612 131.388 179.484 132.516C178.356 133.644 177.048 134.532 175.56 135.18C174.072 135.828 172.464 136.152 170.736 136.152C169.008 136.152 167.4 135.828 165.912 135.18C164.424 134.532 163.116 133.644 161.988 132.516C160.86 131.388 159.972 130.08 159.324 128.592C158.676 127.104 158.352 125.496 158.352 123.768L158.352 123.768ZM130.584 88.128L130.584 43.632C130.584 39.744 129.804 36.768 128.244 34.704C126.684 32.64 124.176 31.416 120.72 31.032C125.712 31.128 130.212 31.764 134.22 32.94C138.228 34.116 141.636 35.796 144.444 37.98C147.252 40.164 149.412 42.792 150.924 45.864C152.436 48.936 153.192 52.392 153.192 56.232L153.192 94.536C153.192 100.536 155.184 103.536 159.168 103.536C160.272 103.536 161.16 103.368 161.832 103.032C159.672 105.336 156.552 106.488 152.472 106.488C149.352 106.488 146.52 106.032 143.976 105.12C141.432 104.208 139.224 103.02 137.352 101.556C135.48 100.092 133.98 98.424 132.852 96.552C131.724 94.68 131.064 92.784 130.872 90.864L130.584 88.128ZM110.352 106.488C107.472 106.488 104.856 106.056 102.504 105.192C100.152 104.328 98.1357 103.104 96.4557 101.52C94.7757 99.936 93.4797 98.04 92.5677 95.832C91.6557 93.624 91.1997 91.176 91.1997 88.488C91.1997 85.56 91.7277 82.932 92.7837 80.604C93.8397 78.276 95.2317 76.26 96.9597 74.556C98.6877 72.852 100.644 71.46 102.828 70.38C105.012 69.3 107.256 68.544 109.56 68.112C111.384 67.776 112.86 67.56 113.988 67.464C115.116 67.368 116.1 67.296 116.94 67.248C117.78 67.2 118.56 67.128 119.28 67.032C120 66.936 120.888 66.744 121.944 66.456C121.992 66.408 122.064 66.384 122.16 66.384C119.232 67.824 117.108 69.72 115.788 72.072C114.468 74.424 113.808 77.16 113.808 80.28L113.808 93.24C113.808 94.824 113.844 96.3 113.916 97.668C113.988 99.036 114.18 100.248 114.492 101.304C114.804 102.36 115.308 103.188 116.004 103.788C116.7 104.388 117.672 104.688 118.92 104.688C119.16 104.688 119.424 104.676 119.712 104.652C120 104.628 120.264 104.592 120.504 104.544C119.208 105.12 117.732 105.588 116.076 105.948C114.42 106.308 112.512 106.488 110.352 106.488L110.352 106.488ZM94.728 50.544C94.728 48.912 95.04 47.364 95.664 45.9C96.288 44.436 97.14 43.164 98.22 42.084C99.3 41.004 100.56 40.152 102 39.528C103.44 38.904 104.976 38.592 106.608 38.592C108.24 38.592 109.788 38.904 111.252 39.528C112.716 40.152 113.988 41.004 115.068 42.084C116.148 43.164 117 44.436 117.624 45.9C118.248 47.364 118.56 48.912 118.56 50.544C118.56 52.224 118.248 53.784 117.624 55.224C117 56.664 116.148 57.924 115.068 59.004C113.988 60.084 112.716 60.936 111.252 61.56C109.788 62.184 108.24 62.496 106.608 62.496C104.976 62.496 103.44 62.184 102 61.56C100.56 60.936 99.3 60.084 98.22 59.004C97.14 57.924 96.288 56.664 95.664 55.224C95.04 53.784 94.728 52.224 94.728 50.544L94.728 50.544ZM30.96 107.208L0 32.76L25.272 32.76L41.976 71.568L30.96 107.208ZM69.4078 107.208L38.4478 32.76L63.7918 32.76L80.4958 71.424L69.4078 107.208Z" id="wayward" fill="#FFFFFF" fill-rule="evenodd" stroke="none" />
  </g>
</svg>