<?xml version="1.0" encoding="utf-8"?>
<svg width="310px" height="310px" viewBox="0 0 310 310" version="1.1" xmlns:xlink="http://www.w3.org/1999/xlink" xmlns="http://www.w3.org/2000/svg">
  <defs>
    <filter id="filter_1">
      <feColorMatrix in="SourceGraphic" type="matrix" values="0 0 0 0 1 0 0 0 0 1 0 0 0 0 1 0 0 0 1 0" />
    </filter>
  </defs>
  <g id="Logo-Copy-5" filter="url(#filter_1)">
    <path d="M143.484 0L143.484 44.7784L134.17 44.7784L134.17 0L143.484 0ZM112.723 45.4125C109.516 45.4125 106.856 44.5744 104.743 42.8981C102.629 41.2218 101.572 38.722 101.572 35.3986C101.572 32.8914 102.163 30.9236 103.343 29.4952C104.524 28.0667 106.073 27.0208 107.989 26.3576C109.906 25.6944 111.972 25.2607 114.188 25.0567C117.103 24.7652 119.188 24.4591 120.441 24.1384C121.695 23.8177 122.322 23.118 122.322 22.0394L122.322 21.9082C122.322 20.5234 121.888 19.4521 121.021 18.6941C120.153 17.9362 118.925 17.5572 117.337 17.5572C115.66 17.5572 114.327 17.9216 113.335 18.6504C112.344 19.3792 111.688 20.3048 111.368 21.4272L102.753 20.7275C103.394 17.6665 104.987 15.2395 107.53 13.4467C110.074 11.6538 113.357 10.7573 117.38 10.7573C119.873 10.7573 122.205 11.1509 124.377 11.938C126.549 12.7251 128.302 13.9532 129.635 15.6222C130.969 17.2912 131.636 19.4594 131.636 22.1268L131.636 44.7784L122.803 44.7784L122.803 40.1213L122.54 40.1213C121.724 41.681 120.503 42.9527 118.878 43.9366C117.253 44.9205 115.201 45.4125 112.723 45.4125L112.723 45.4125ZM115.391 38.9834C117.432 38.9834 119.108 38.3894 120.42 37.2014C121.732 36.0135 122.388 34.5376 122.388 32.7739L122.388 29.21C122.023 29.4578 121.459 29.6764 120.693 29.8659C119.928 30.0554 119.112 30.2194 118.244 30.3578C117.377 30.4963 116.601 30.6166 115.916 30.7186C114.283 30.9518 112.968 31.411 111.969 32.0961C110.971 32.7812 110.472 33.7796 110.472 35.0915C110.472 36.3742 110.934 37.3435 111.86 37.9995C112.786 38.6554 113.963 38.9834 115.391 38.9834L115.391 38.9834ZM86.3575 45.4344C82.9175 45.4344 79.9512 44.7311 77.4587 43.3244C74.9661 41.9178 73.0493 39.9209 71.7083 37.3336C70.3673 34.7463 69.6968 31.6816 69.6968 28.1396C69.6968 24.685 70.3673 21.6531 71.7083 19.044C73.0493 16.4348 74.9406 14.4014 77.3821 12.9438C79.8237 11.4861 82.6916 10.7573 85.9858 10.7573C88.9448 10.7573 91.6159 11.3841 93.9991 12.6377C96.3824 13.8912 98.2737 15.7825 99.673 18.3115C101.072 20.8405 101.772 24.0072 101.772 27.8116L101.772 30.3697L78.9017 30.3697L78.9017 30.3916C78.9017 32.8987 79.5868 34.8738 80.957 36.3169C82.3272 37.7599 84.1783 38.4815 86.5106 38.4815C88.0702 38.4815 89.4185 38.1535 90.5555 37.4976C91.6924 36.8416 92.4941 35.8723 92.9606 34.5896L101.575 35.1581C100.919 38.2774 99.2575 40.77 96.5901 42.6357C93.9226 44.5015 90.5117 45.4344 86.3575 45.4344L86.3575 45.4344ZM78.9019 24.5982L93.0044 24.5982C92.9898 22.6013 92.3485 20.9542 91.0803 19.6569C89.8122 18.3596 88.1651 17.7109 86.139 17.7109C84.0692 17.7109 82.371 18.3815 81.0446 19.7225C79.7181 21.0635 79.0039 22.6887 78.9019 24.5982L78.9019 24.5982ZM50.5894 44.7792L50.5894 11.1954L59.6194 11.1954L59.6194 17.055L59.9692 17.055C60.5814 14.9706 61.609 13.3928 63.0521 12.3214C64.4951 11.25 66.1568 10.7144 68.0372 10.7144C69.0721 10.7144 70.0487 10.8237 70.967 11.0423L70.967 19.3071C70.5297 19.1613 69.9248 19.0411 69.1523 18.9463C68.3797 18.8516 67.6728 18.8042 67.0314 18.8042C64.9762 18.8042 63.2744 19.4492 61.9261 20.7392C60.5778 22.0292 59.9036 23.7091 59.9036 25.779L59.9036 44.7792L50.5894 44.7792ZM49.2359 11.1946L49.2359 18.1912L42.917 18.1912L42.917 34.4583C42.917 35.7411 43.2086 36.6083 43.7916 37.0602C44.3747 37.5121 45.1326 37.738 46.0655 37.738C46.5028 37.738 46.9401 37.6979 47.3774 37.6177C47.8147 37.5376 48.1499 37.4756 48.3831 37.4319L49.8481 44.3629C49.3816 44.5087 48.7257 44.68 47.8803 44.8767C47.0348 45.0735 46.0072 45.1938 44.7974 45.2375C41.4157 45.3833 38.7008 44.6508 36.6529 43.0401C34.6049 41.4295 33.5882 38.977 33.6028 35.6827L33.6028 18.1912L29.0112 18.1912L29.0112 11.1946L33.6028 11.1946L33.6028 3.14844L42.917 3.14844L42.917 11.1946L49.2359 11.1946ZM29.4296 20.7712L20.9024 21.296C20.6692 20.2174 20.0789 19.2918 19.1314 18.5192C18.1839 17.7467 16.9012 17.3604 15.2833 17.3604C13.8402 17.3604 12.6194 17.6629 11.621 18.2678C10.6225 18.8727 10.1305 19.678 10.1451 20.6838C10.1305 21.4855 10.4476 22.1633 11.0962 22.7172C11.7449 23.2711 12.849 23.7157 14.4087 24.0509L20.487 25.2753C26.9443 26.6018 30.1802 29.6336 30.1948 34.3709C30.1948 36.572 29.5498 38.5033 28.2598 40.165C26.9698 41.8267 25.2024 43.1204 22.9577 44.046C20.7129 44.9716 18.1402 45.4344 15.2395 45.4344C10.7938 45.4344 7.25171 44.5051 4.6134 42.6466C1.97509 40.7882 0.437289 38.2555 0 35.0487L9.16121 34.5677C9.45273 35.9379 10.1269 36.9728 11.1837 37.6725C12.2405 38.3721 13.5997 38.722 15.2614 38.722C16.8939 38.722 18.2094 38.4013 19.2079 37.7599C20.2064 37.1186 20.7129 36.3023 20.7275 35.3111C20.6838 33.6494 19.248 32.5343 16.4202 31.9659L10.6043 30.807C4.10323 29.5097 0.86729 26.3102 0.896443 21.2085C0.881866 17.9726 2.17551 15.4217 4.77738 13.556C7.37925 11.6902 10.8302 10.7573 15.1302 10.7573C19.3719 10.7573 22.7135 11.6538 25.1551 13.4467C27.5966 15.2395 29.0214 17.6811 29.4296 20.7712L29.4296 20.7712Z" transform="translate(0 166.29102)" id="streal" fill="#1A0084" fill-rule="evenodd" stroke="none" />
    <path d="M0 155C0 69.3959 69.3959 0 155 0C240.604 0 310 69.3959 310 155C310 240.604 240.604 310 155 310L155 270.979C219.07 270.882 270.979 218.913 270.979 154.82C270.979 90.6666 218.973 38.6602 154.82 38.6602C90.6666 38.6602 38.6602 90.6666 38.6602 154.82C38.6602 154.88 38.6602 154.94 38.6603 155L0 155ZM155 262.816C214.579 262.621 262.817 214.262 262.817 154.637C262.817 94.8901 214.383 46.4561 154.637 46.4561C94.8901 46.4561 46.4561 94.8901 46.4561 154.637C46.4561 154.758 46.4563 154.879 46.4567 155L90.6887 155C90.6886 154.94 90.6885 154.88 90.6885 154.82C90.6885 119.401 119.401 90.6885 154.82 90.6885C190.239 90.6885 218.952 119.401 218.952 154.82C218.952 190.179 190.336 218.855 155 218.952L155 262.816ZM155 211.223C186.075 211.089 211.224 185.857 211.224 154.75C211.224 123.561 185.94 98.2764 154.75 98.2764C123.561 98.2764 98.2764 123.561 98.2764 154.75C98.2764 154.834 98.2766 154.917 98.2769 155L146.292 155C146.293 150.012 150.337 145.968 155.325 145.968C160.314 145.968 164.358 150.012 164.358 155C164.358 159.989 160.314 164.033 155.325 164.033C155.216 164.033 155.108 164.031 155 164.027L155 211.223Z" id="Disc" fill="#1A0084" fill-rule="evenodd" stroke="none" />
  </g>
</svg>